<svg xmlns="http://www.w3.org/2000/svg" viewBox="0 0 346 256">
  <title>
    payments-ilustration
  </title>
  <path fill="#BDC6FA" d="M86.98 243.04v.05a12.77 12.77 0 0 1-12.77 12.74H65.07c.7-5.53 3.22-10.7 8.06-13.13a24.47 24.47 0 0 1 10.84-2.67c1.05 0 1.95.07 2.77.2.15.89.24 1.82.24 2.8"/>
  <path fill="#FF796B" d="M138.5 57.9l-37.56 81.66C90.63 146.7 80 157.1 69 172.86l57.62-121 11.87 6.04z"/>
  <path fill="#010101" d="M94.3 219.49c-.51-5.8-3.84-10.2-7.44-12.91 2.2-4.58 3.43-9.51 3.43-13.93v-1.18c1.2.27 2.44.6 3.68.9 1.03.24 2.06.42 3.08.55 2.05.27 4.12.4 6.17.4 16.03 0 31.96-7.9 41.01-21.58a91.9 91.9 0 0 0-.3 20.04c2.28 24.85 18.12 40.36 38.69 48.57-19.6 8.64-40.11 13.9-60.04 15.48H74.21c7.04 0 12.75-5.7 12.77-12.74v-.05a15.92 15.92 0 0 0-2.52-8.58v-.01a13.98 13.98 0 0 0 9.92-13.38c0-.54-.02-1.07-.07-1.58"/>
  <path fill="#6E85FF" d="M36.29 255.27l7.4-6.57 15.34-13.65H80.4c1.41 0 2.78-.2 4.06-.6a15.9 15.9 0 0 1 2.28 5.77c-.82-.12-1.72-.2-2.77-.2-3.67 0-7.45.98-10.84 2.68-4.84 2.44-7.36 7.6-8.06 13.13H35.13v-.13c.42 0 .83-.14 1.16-.43"/>
  <path fill="#FFF" d="M145.02 45.1a6.67 6.67 0 1 0-11.88-6.06 6.67 6.67 0 0 0 11.88 6.06zm9.36 4.71l-.04.08-15.81 8.03-.04-.02-11.87-6.05-2.82-17.54.03-.06 15.85-8.02 11.87 6.06 2.83 17.52zM70.63 222.08l-2.48 4.86-9.12 8.11-15.35 13.65a8.93 8.93 0 0 0-3.86-3.94 8.9 8.9 0 0 0-5.45-.8l.89-8.91 2.34-23.67a6.67 6.67 0 0 0 11.79-.06l2-6.6s17.27 18 19.24 17.36M24.7 190.04c1.6 2 2.4 4.68 2.4 7.77 0 4.08-1.34 8.26-3.73 11.86-2.15-1.82-3.25-4.58-3.93-7.83a55.27 55.27 0 0 0-5.08-14.19l1.16-.63c.66-.09 1.3-.14 1.93-.14 2.85 0 5.44.93 7.24 3.16"/>
  <path fill="#010101" d="M142.11 36.13a6.67 6.67 0 1 1-6.05 11.88 6.67 6.67 0 0 1 6.05-11.88"/>
  <path fill="#FFF" d="M123.83 34.25l-.03.06-.01-.04z"/>
  <path fill="#010101" d="M68.72 150.35l-21.15 41.47c.65-3.38.95-6.75.95-9.68 0-7.07-2.37-15.02-7.5-21.15h.02c3.32-4.16 5.04-9.64 5.17-15.15 5.62 2.92 12.05 4.86 18.15 4.86 1.48 0 2.93-.12 4.36-.35z"/>
  <path fill="#FFF" d="M154.38 49.82v.05l-.04.02z"/>
  <path fill="#BDC6FA" d="M10.91 181.93a54.13 54.13 0 0 0-2.94-3.88C3.43 172.59 0 166.4 0 158.6c0-35.56 56.37-65.57 74.06-65.57 6.78 0 13.57 2.65 20.55 6.51l-25.89 50.8c-1.43.23-2.88.35-4.36.35-6.1 0-12.53-1.94-18.15-4.86-.13 5.5-1.85 10.99-5.17 15.14l-.01.01c5.12 6.13 7.49 14.08 7.49 21.15 0 2.93-.3 6.3-.95 9.68-1.34 6.95-4.16 13.98-9 17.63a12.26 12.26 0 0 1-7.58 2.57c-3.46 0-5.88-.86-7.63-2.35 2.4-3.6 3.73-7.78 3.73-11.86 0-3.1-.8-5.77-2.4-7.77-1.8-2.23-4.4-3.16-7.23-3.16-.63 0-1.28.05-1.94.14l-1.16.63a54.57 54.57 0 0 0-3.45-5.72"/>
  <path fill="#6E85FF" d="M35.13 255.83H28.3c-4.4 0-8.56-1.12-12.18-3.1-7-3.83-10.36-11.51-10.36-19.35 0-3.4.63-6.82 1.87-9.98a27.71 27.71 0 0 0 22.6 11.65h5.04l-.89 8.9-.98 9.84a1.74 1.74 0 0 0 1.74 1.91v.13z"/>
  <path fill="#FEC83C" d="M49.42 211.26l-.03.06a6.67 6.67 0 0 1-11.79.06l.98-1.92c4.83-3.66 7.65-10.7 8.99-17.64l76.23-157.5 2.82 17.53L69 172.86c-1.87 2.68-19.58 38.4-19.58 38.4"/>
  <path fill="#BDC6FA" d="M94.38 221.06v.01a13.98 13.98 0 0 1-13.98 13.98h-8c1.4-8.36 11.02-15.66 19.77-15.66.8 0 1.49.04 2.14.1a16 16 0 0 1 .07 1.57M126.55 112.4a57 57 0 0 0 19.2 9.72c-9.2 2.07-18.67 4.21-28.43 8.38l9.23-18.1z"/>
  <path fill="#010101" d="M43.68 248.7l-7.4 6.57a1.74 1.74 0 0 1-1.94.25c-.64-.33-1.01-1-.95-1.73l.98-9.84a8.91 8.91 0 0 1 5.45.82 8.92 8.92 0 0 1 3.86 3.93"/>
  <path fill="#6E85FF" d="M23.37 209.67c1.74 1.49 4.16 2.35 7.62 2.35 2.95 0 5.46-.95 7.59-2.57l-.98 1.93-2.34 23.67h-5.03a27.7 27.7 0 0 1-27.75-28.29c0-1.33.06-2.66.18-4 .7-7.87 3.75-14.85 8.25-20.83a54.73 54.73 0 0 1 8.53 19.9c.68 3.26 1.78 6.02 3.93 7.84"/>
  <path fill="#010101" d="M154.34 49.9l-27.79 62.5-9.23 18.1a91.94 91.94 0 0 0-16.38 9.06L138.5 57.9l.04.02 15.8-8.03z"/>
  <path fill="#6E85FF" d="M86.86 206.58c3.6 2.7 6.93 7.1 7.45 12.9-.65-.05-1.35-.09-2.14-.09-8.75 0-18.36 7.3-19.77 15.66H59.03l9.12-8.1 2.48-4.87c7.18-2.33 12.86-8.5 16.23-15.5"/>
  <path fill="#B3C4FF" d="M59.64 187.47c-3.63 6.13-8.65 13.6-8.65 20.97 0 2.62.63 5.22 2.18 7.74 2.84 4.6 7.28 6.9 11.22 6.9 2.18 0 4.27-.35 6.24-1 7.18-2.33 12.86-8.5 16.23-15.5 2.2-4.58 3.43-9.51 3.43-13.93v-1.18c1.2.27 2.44.6 3.68.9 1.03.24 2.06.42 3.08.55 2.05.27 4.12.4 6.17.4 16.03 0 31.96-7.9 41.01-21.58a91.9 91.9 0 0 0-.3 20.04c2.28 24.85 18.12 40.36 38.69 48.57 49.1-21.65-20.14-124.13-20.14-124.13a49.57 49.57 0 0 1-13.11 5.09l-3.61.81c-9.21 2.07-18.68 4.21-28.44 8.38a91.99 91.99 0 0 0-16.38 9.06C90.63 146.7 80 157.1 69 172.86a217.31 217.31 0 0 0-5.64 8.52 254.62 254.62 0 0 0-3.72 6.1"/>
  <path fill="#B3C4FF" d="M161.55 147.75c-.48 4.96-.76 10.24-.76 15.64 0 12.23 1.27 23.2 4.01 32.69 5.54 19.17 24.97 36.66 61.26 36.66 37.88 0 57.66-24.1 57.66-56.48 0-50.13-53.66-72.2-99.8-72.2-38.57 0-65.51 14.54-88.17 36.96a189.66 189.66 0 0 0-15.23 17.06c-9.9 12.5 25.07 1.17 33.38 1.17.27 0 11.54-.6 17.76-.6 18.58 0 37.59 4.09 48.57 19.46l-18.68-30.36z"/>
  <path fill="#FEC83C" d="M199.63 21.38h11.34c-5.98 6.17-9.09 14.87-9.41 23.73h-15.38a17.66 17.66 0 0 0-13.4-9.94 52.53 52.53 0 0 1 13.52-13.79h13.33z"/>
  <path fill="#FFF" d="M173.53 63.37c-.67.34-1.36.63-2.05.86-1.88.64-3.83.9-5.8 1.01a42.39 42.39 0 0 1 1.5-18.32h.22c1 0 2.03.12 3.1.37 1.76.42 3.31 1.2 4.6 2.17-3.27 1.47-5.66 4.22-5.66 7.84 0 2.65 1.65 5 4.1 6.07"/>
  <path fill="#6E85FF" d="M212.95 45.1a8.36 8.36 0 1 1 0 16.73h-8.45a39.14 39.14 0 0 1-2.94-16.72h11.39z"/>
  <path fill="#FEC83C" d="M285.39 112.95c-7.38 19-17.92 33.45-19.6 48.24a92.23 92.23 0 0 0-21.14-2.63c-16.88 0-32.53 8.27-42.74 21.35-1.72-.18-3.44-.4-5.13-.7 3.14-3.11 4.4-7.22 4.4-11.63 0-2.12-.29-4.32-.8-6.5 27.93-4.13 44.94-32.13 44.94-61.17 0-18.85-12.06-45.66-23.73-60.05 4.23-3.28 9.25-5.4 14.06-5.4 8.24 0 15.86 6.9 15.86 18.25 0 8.1-2.32 14.18-6.6 19.06 6.31 18.89 21.9 34.03 40.48 41.18"/>
  <path fill="#010101" d="M204.5 61.83h-17.2a17.66 17.66 0 0 1-17.08 13.23h-2.87c-.63-3.35-1.27-6.65-1.66-9.82 1.96-.1 3.91-.37 5.8-1 .68-.24 1.37-.53 2.04-.87 2.88-1.44 5.38-3.87 5.38-7.46 0-2.17-1.43-4.65-3.81-6.45a12.29 12.29 0 0 0-4.6-2.17c-1.06-.25-2.1-.38-3.1-.38l-.22.01a45.16 45.16 0 0 1 5.6-11.75 17.66 17.66 0 0 1 13.4 9.94h15.38a39.15 39.15 0 0 0 2.95 16.72M170.92 89.34c-.5.16-.99.34-1.48.54l-.02-.33c.5-.03 1-.1 1.5-.21"/>
  <path fill="#7A8ADB" d="M175.1 49.46c2.38 1.8 3.81 4.28 3.81 6.45 0 3.59-2.5 6.02-5.38 7.46a6.7 6.7 0 0 1-4.09-6.06c0-3.63 2.39-6.38 5.66-7.85"/>
  <path fill="#FEC83C" d="M187.3 61.83a17.66 17.66 0 0 1-17.08 13.23h-2.73l-.12.05c-3.18 1.49-5.48 4.2-5.48 7.77 0 3.62 3.09 6.68 7.05 6.68l.48-.01c.5-.03 1-.1 1.5-.21a30.2 30.2 0 0 1 9.62-1.6c10.56 0 18.4 5.74 24.4 13.88a43.78 43.78 0 0 1 12.98-22.76 41.48 41.48 0 0 1-13.42-17.03h-17.2z"/>
  <path fill="#010101" d="M167.49 75.06l-.12.05-.02-.05h.14z"/>
  <path fill="#FF796B" d="M285.39 112.95c-18.58-7.15-34.17-22.3-40.48-41.17 4.28-4.89 6.6-10.96 6.6-19.07 0-11.35-7.62-18.25-15.86-18.25-4.81 0-9.83 2.12-14.06 5.4 11.67 14.39 23.73 41.2 23.73 60.05 0 29.04-17 57.04-44.94 61.17a49.6 49.6 0 0 1-7.18.52c-15.42 0-30.99-9.09-30.99-29.75 0-11.85 3.7-20.87 5.82-29.46a43.05 43.05 0 0 0 1.46-10.36c0-.72-.01-1.44-.05-2.15a30.2 30.2 0 0 1 11.1-2.14c10.56 0 18.41 5.74 24.4 13.88a43.77 43.77 0 0 1 12.98-22.76 41.48 41.48 0 0 1-13.42-17.03h8.45a8.37 8.37 0 0 0 0-16.72h-11.4c.33-8.86 3.44-17.56 9.42-23.73h-24.29l-.09-.21c-.59-1.45-.9-3.02-.9-4.6 0-10.5 13.74-15.64 23.6-15.64 13.18 0 21.09 7.47 31.73 9.82 15.07 3.32 51.7 3.22 51.7 64.8a97.86 97.86 0 0 1-2.97 23.88c-1.2 4.78-2.7 9.26-4.36 13.52z"/>
  <path fill="#010101" d="M186.6 21.17l.09.21h-.4l.3-.21"/>
  <path fill="#6E85FF" d="M267.13 175.07c-1-2.73-1.57-6-1.57-9.9 0-1.33.08-2.66.24-3.98h-.01a92.23 92.23 0 0 0-21.14-2.63c-16.88 0-32.53 8.27-42.74 21.35-1.72-.18-3.44-.4-5.13-.7-.25.25-4.36 10.06-38.46 14.04-46.99 5.5-48.66 62.58-48.66 62.58h235.5l.25-6.95c-4.48-62-70.34-52.26-78.28-73.8"/>
  <path fill="#B3C4FF" d="M280.72 186.4c-53.73 18.73-100.7 49.09-153.18 69.4h217.62l.25-6.92c-3.43-47.47-42.84-52.89-64.69-62.49l6.23 34.95"/>
</svg>
