<svg xmlns="http://www.w3.org/2000/svg" id="Layer_1" viewBox="0 0 1490 740"><style>.st0{fill-rule:evenodd;clip-rule:evenodd;fill:#8bdeb3;}</style><path d="M1484.5 171.4c-2.1-1.2-6.7-.6-7.7-1.7-1.1-1.3 4.3-1 5.1-1.6.9-.6 7.6 1.6 7.6 2.6s-2.9 1.9-5 .7zM839.2 319.8c.9-.8 1.5.2.1.8-1.4.6-2.3 2-2.2 2.6.1.7-3.4 2.6-5.6 1.3-1.7-1-.9-2.8 1.9-2.9 2.7-.2 4.9-1 5.8-1.8zm-42.2.9c1.2 1.1 5.6.2 6.5.7 1 .5 2.5-.4 2.6.2.1.6-3.2 1.8-5.6 1.7-2.4-.1-4.6-1.3-6.1-1.6-1-.1 1.4-2.1 2.6-1zm-36.9-5.3c-1.3-.1-1.7-2.1-4.7-2.9-3.1-.8-4-1.7-4.3-2.3-.4-1 2-2.4 3.5-1.6 1.5.7 2.5.5 5 0 2.5-.6 3.5-.1 3.3.2-.2.3-2 2.2-1.7 3.9.3 1.6.2 2.8-1.1 2.7zm-24.4-28.7c1.7-1 1.9-2.3 2.6-2.2.7.1.9 7.5-.9 7.7-1.7.2-3.4-4.5-1.7-5.5zm-2.8 8.7c.5-.9 1.7.4 3-.7 1.3-1.2 4.3-.3 3.8 1.5-.6 1.8.1 5.7-.7 6.7-.8 1-1.5.4-2.9 1.8s-2.3-1.6-1.7-4c.6-2.4-2.1-4.2-1.5-5.3zm-20 5.5c.3 2.1-1.8 2.4-3.6 1.2-.9-.6 3.3-3.3 3.6-1.2zM790 196.5c-.9-.8 3.1-1.2 2.6-.3-.5.9-1.9.9-2.6.3zm3.4 2.2c-.7.7-3.2 2.8-4.3 2.8-.9 0-.6-3 1.6-3.6 2.3-.6 3.4.2 2.7.8zm-17.2 4.1c2.3-.1-2.3 6-2.8 5.4-.7-.8.4-5.4 2.8-5.4zm-30.1 12.4c1.2-1.7 2.4.2 2.7-1.2.2-1.3.9 1.1 1.4 1 .6-.1.9-1.3 1.4-1 .6.4-1.2 3.7-1 4.5.2.7-1.5 3.7-3 3.4-1.5-.2-2.2-2.1-1.1-1.8 1.1.2 2-.6 1.2-1.1-.9-.6-2.8-2.1-1.6-3.8zm410.4-125.8c-.7-.9 2-1 2.4-2 .5-1 5.1-1.2 5 .7-.1 2-6.2 2.9-7.4 1.3zm327.4 62.5c-1.3-.1-2 1.5-2.1 2.3-.1.7-1.5.4-2.3-.2-.7-.7-2 .2-.9.4 1 .2 2 1.2 1 1.2s-3.2.1-4.6-1c-1.4-1-2 .2-1.3.5.7.2 1.3 3.9.6 4.1-.7.2.5 2-.4 2-.9.1-1.6-1.2-2-.5-.4.7 2.9 1.3 1.8 2.3-1 .9-1.5-.2-2.3.5-.8.7-1.4-.5-2.5-.2-1.1.2-1.8-.2-2.2-1.2-.4-.9-2.1-.5-4.1-1.5-2-1-2.6-2.4-2.9-3.5-.3-1.2-5-2.9-6.5-2.1-1.5.8-4.1.6-4.3-.1-.2-.7-2.1-1.7-1.5-2.8.6-1.2 1.9-2.9.5-2.2-1.3.7-1.5.1-2.2.1-.7.1-.4 1.3-1.5 1.3s-1.3 1.5-.3 2 2 1.8.7 2.4c-1.2.6-.6 1.1-1.2 2.1s-4.2 2.2-5.5 2.8c-1.3.6-3.8.9-4.7.3-.9-.5-.4-1.3-2.2-2-1.8-.7-4.5.1-4.1 1.2.4 1.1 2.3 1.5 3.5.7 1.2-.7 1.3.4 1.3 1.4 0 1 1.7 2.2 2.4 1.5.7-.7 3.2 2.8 2.8 4-.4 1.3 2.4 2.6 2.4 3.8-.1 1.2 1.7 1.8.1 3.4-1.6 1.6-2.5.8-4.5.4s-3.5-.1-3.7-.9c-.2-.8-1.9-.4-1.7.4.2.8-4.8 3.4-8.6 4.2-3.9.9-6.7 2.3-7 3.1-.3.9-1.3.3-2.4 1.6-1 1.3-.5.2-2.4 1.6-2 1.4-4.5 2.9-6 3.4-1.5.4-.2 2.1-1.7 2.4-1 .2-1.3-1.8-3.1-2.6-1.8-.9-7.6-1-10.3.8-2.7 1.8-3.5 3.5-3.9 2.2-.4-1.3.5-3.6-.9-3.6s-3.1 3.1-4.2 4c-1 .9-.7-.9-1.6-.7-.9.2-3.1-.7-3.6.2-.6.9-2.8 3.4-3.1 5.2-.4 1.8-1.9 1.5-3.5 3.7-1.6 2.1-.5 4.3.5 4.3 1-.1 1.3-.5 2.6-.2 1.3.4 2.1.7.1 2.2-2 1.5-1.7 4.8-.9 4.6.9-.1 3.2 1.6 2 2.8-1.2 1.1-1.9-.2-3.2.2-1.3.4-3.5 4.2-2.9 5 .6.8 2.4 2.6.7 4.1-1.7 1.5-3.5-.2-5 .9-1.5 1-4.3 2.6-4 3.8.3 1.2 1.2 3.2.4 3.5-.9.3-2.4-.2-3.1.6-.6.8-2.5 1.2-2.8 1.9-.3.7.1 3.5-.9 4.2-1 .7-.5 1.1-2.1 2.4-1.5 1.3-3.8 4.3-4.3 3.7-.5-.6-.2-2.1-1.1-3-.9-.9-.2-5.3-1.3-7-1-1.8-2.2-11.8-2.3-15.3-.1-3.5 1.5-7 3.8-9.5s.4-4.9 1.4-5c1-.1 3.9-.1 3.9-.8 0-.7 4.2-.7 6.8-4.6 2.6-3.9 6.6-5.1 7.6-7 1-2 3.2-2.1 3.4-3.7.1-1.6 4.2-2 5.4-2.4 1.2-.4 1.2-1 1.2-1.9.1-.9 2-1 1.2-1.8s.7-1.5.7-3.5c-.1-2.1 1.5-3.5 3.1-3.1 1.7.4 1.8-.2.1-1-1.7-.7-7 0-7.1 2.5-.1 2.5.9 4.2-.9 4-1.7-.2-4.2.6-6.8 3.2-2.7 2.7-4.8 2.7-5 2.2-.2-.5 2.1-1.2 1.1-1.7s-2.9.2-2.3-1.6c.6-1.8 3-3.2 2-3.8-1-.6-2.1 1.5-3 1.2-.9-.3-.7-2.3-2.8-1.2-2.1 1.2-5.4.5-6.8.6-1.3.1-2.2 2.8-2.2 3.8s-1.3.2-3.1 1.8c-1.8 1.5-4.6 2.9-6.1 5.4-1.5 2.5-1.5 3.5.3 3.5s2.7 1.3 1.7 1.3c-1.1-.1-3.3.2-4.3 1-1 .9-1.4-.9-2.9.1s-3.2.9-4.3.7c-1.1-.1-2.8 1.4-4.2.6-1.4-.8.1-1.5 1.3-1.4 1.2.1 2.1-1.1.7-1.3-1.4-.2-1.4-2.4-2.9-1.5-1.5 1-2.2.1-3.1-.6-.9-.7-5-1-5.8.7-.9 1.6-2 1.4-3.4 1-1.4-.4-1.9.8-4 .5-2.1-.2-3.3-.5-3.9.1-.6.6-1.2 1-2.1.1-.9-.9-5.9-1.7-9-1.1-3.1.6-7.7 3.1-7.8 4-.1 1-4 2.6-4.6 3.8-.6 1.3-1.9 2.5-4.5 4.6-2.6 2.1-5.6 3.4-5.9 4.5-.4 1-.7 2.1-2.3 3-1.6.9-4.3 2.7-5.3 3.1-1 .4-.7 1.5-2.8 2.6-2.1 1.1-2.8 2.9-.2 3.1 2.6.2 5-.8 4.7.1-.3.9-.7 4.5.5 4.2 1.2-.2 1.2-2.1 2.6-2.9 1.4-.8.4.4.1 1.7-.2 1.2 1.5 1.3.2 2.4-1.3 1.2 1.5 1 2.3-.2.8-1.2 1.1-1.8 1.8-1.6.7.2 1.1-.5.8-1.4-.3-.9 2.2 0 3.5-.1 1.4-.1 3.1 1.3 3.2 2.4.1 1.2 1.5 1.6 2.5 2.1s2.3 1.6 1.5 2c-.7.4-.8.7-.5 1.2.3.6-.1 2.3.2 3.1.3.8.5 1.7-.7 2.8-1.2 1-.9 2.1-1.5 2.9-.6.8-.4 2.1-.8 2.6s-.4 8-1.8 10.9c-1.3 2.9-1.8 3-2.6 4.2-.7 1.2-3.7 4.3-4.4 5.9-1.1 2.6-3.9 5.9-6.1 8.1-2.1 2.3-6.7 6.6-6.7 7.5-.1.9-7.8 6.1-9.5 6-1.7-.1-3.2-2.7-4.8-2.7-.6 0-1.9.8-3.4 1.9-.3.2-.7.5-1 .8-2 1.6-4.1 3.5-4.6 4.5-1 1.9-.2 4.3-1.5 5-1.3.7-5.5 4-7.2 4.4-1.7.4-2.6 2.8-1.2 3.7.6.4 2.1 1.7 3.7 3.4 2.2 2.4 4.4 5.3 4.3 6.9-.2 2.8.5 5.1 1.1 6 .6.9-.5 2.1-1.7 1.8-1.2-.3-1.8-.6-4 1.7-2.3 2.3-7.5 3.2-7.9 2.6-.4-.6.4-1.8-.6-2.8-1-1 2.6-3.1 1.3-5-1.2-1.9-1.2-4.1.2-3.8 1.4.3 1.5-1.6.2-1.8-.9-.1-.8-1.4-1.3-2.2-.2-.3-.5-.6-1-.6-1.7 0-2.6-.4-3.2.6-.6 1-2 .1-2.1-1-.1-1.1-1.8-1.2-.7-2.5s3.6-3 2.4-4.5c-.9-1.1-2.8-2.2-4.7-2.3-.7-.1-1.4 0-2 .3-2.3.9-5.3 2.8-7.6 4.3-2.4 1.5-4.1 1.2-2.9.1 1.2-1.2-.1-1.6.6-3.2.7-1.5 4.8-4 2.8-5.6-2-1.6-4.7.1-7 2.8-2.3 2.7-3.8.3-4.8 3.4s-3.5 1.3-5.1 1.5c-1.7.2-2.7 5.3.1 5.1 2.8-.1 5-.2 4.3 1.5-.7 1.6.6 4.2 2.6 3.3 2-.9 4.5-5.1 5.5-3.6 1 1.5 2.6 2 4 1.6 1.4-.4 3.4 1.9 2.4 2.6-1 .7-4 .7-4.7 1.4-.7.7-1.8-.1-2.5 1.3-.7 1.4-1.4 1.8-2.3 1.6-.9-.2-.1 1.4-2 2.2-1.9.8-2.6 2.9-2 3.9.6.9 3.2 1.2 3.7 2.6.5 1.4 2 4.5 2.6 5 .7.5-.4 1.7.7 2.5 1.1.9 4.1 3.3 3.5 3.9-.6.6-2.3 0-3.7-.7-1.4-.7-3.5.1-2.3.1 1.2 0 2.5 2.8 3.7 2.7 1.2-.1 3.4 2 2.5 2.3-.9.3-3 1.8-4.3 2.1-1.3.3.7 1.8 1.5.9.7-.9 1.6 1.5 2.4.9.8-.6 3.2.1 1.7.5-1.5.4-2.5 2-1.8 2.5.7.6-.9.2-.7 1.6.2 1.4-.1 3.1-.9 3.4-.8.3-2.5 1.3-2.7 2.5-.2 1.2-.9 2.2-1.9 2.9-1 .7-3.1.8-2.9 1.3.2.5 1.5 1.7.6 2-1 .3 0 2.4-.6 3.2-.6.7-1.8.6-1.8 1.5 0 1-2 1.2-2.1 2-.1.8-2.8 1-2.8 1.8 0 .7-.9 2.1-2.4 2.5-1.5.4-1.2.9-2.4 2-1.3 1-1.2 2.1-2.4 2.1-1.2.1-5.9.2-7.2 1.2-1.3 1-4-.7-4-.1-.1.6-4.2 3.4-8.1 4.7-3.9 1.3-6.1 2.4-5.8 3.5.2 1.1.1 2.9-1.1 1.8-1.2-1.1-1.7-3-.9-3.6.7-.6.1-2.8-1.1-1.7-1.2 1.1-1.8.9-2.4 0-.6-.9-1.9-1.2-2.3-.1-.3.9-1.7.3-2.5.7-.1.1-.3.2-.4.3-.6 1-1.9 2.1-3.2 2.1-1.3.1-1.6 1.2-1.6 2.4.1 1.3-2.6 1.7-2.9 3.6-.3 1.9-.2 4.6 1 5.6s1 2.4 1.8 3.2c.9.8 5.6 5.7 6.7 5.6 1-.1 3.9 5.3 3.9 6.5.1 1.2 1.8 5.7 1 9.6-.8 3.9-1.2 4.2-3.2 5.5-2.1 1.3-4.2 2.8-5.6 2.7-1.5-.1-2.1-.4-2.6.4-.4.8-.1 2.3-1.1 2.2-1-.1-.1 1.3-1 1.6-.9.3-3.2 2.1-3.7 2.9-.5.8-2 .3-2.1-1.7-.1-2 2.1-3 1.2-3.6-.7-.5-1.4-.8-1.8-1.4-.1-.2-.3-.4-.4-.6-.4-1-2.6.5-3.3-.3-.7-.9.7-2.3-.2-2.2-.9.1-2.4.7-2.6-.4-.2-1.1.4-3-1.1-3.7-.1 0-.2-.1-.3-.1-2-.6-2-2.4-4.4-2.3-2.4.1-2.6-.7-3.1-2.5s-4.3-.5-3.5 1c.9 1.6-2.1 6.7-2.3 8.4-.2 1.8-1.9 5.9-.5 6.6 1.4.7 2.6.7 2.6 2 0 1.2 1.7 2.4 1.5 3.8-.2 1.4.8 4.5 2.9 4.7 1.8.2 3.9 1.6 4.8 2.8.1.2.3.4.3.6.4 1.2 1.4.1 2 2 .6 1.9 3.2 1.6 3.2 4.3-.1 2.8-1.3 6.5.1 8 1.3 1.4 3.7 5.4 2.7 5.9-.9.4-5.6-2.3-7.9-4-2.4-1.7-3.4-2.2-4-3.8-.5-1.6-4.2-5.5-4.2-7.9 0-1.9-.2-4.2-1.1-6.3-.3-.7-.7-1.4-1.2-2-2.1-2.7-4.3-5.2-5.4-5.3-1.1-.1-.7-1.8-.2-3.7.4-1.5.8-4.3 1.2-6.1.1-.4.2-.8.2-1.1.4-1.4-1-3.6-.6-4.9.5-1.3.2-4.9-1.6-6.5-1.8-1.7-2-6.8-2.1-8.9-.2-2.1-.8-3.7-1.7-4.6-.9-.9-1.8-3.3-2.1-1.7-.3 1.7-2.4 2.7-3.5 4.2-1 1.5-2.6 1.2-4 .5s-2.6-.8-1.7-2.3c.9-1.5 1.3-4.1.6-6.7-.7-2.6-2.3-7.4-4.7-8.4-1.6-.7-3.1-2.5-3.9-4.1-.4-.8-.6-1.5-.6-2.1-.1-1.8-1.3-5.2-2.2-5.6-.9-.4-2.4.6-2.5 2-.1 1.4-2 1.6-3.3 1.6-1.1 0-1.6.5-2.8.8-.3.1-.6.1-1 .1-2 0-7.1.7-7.4 2.5-.3 1.8.3 2.6-1.3 4.3-1.6 1.7-5.1 2.3-6.3 4.3-1.2 2-5.3 5.6-6.7 6.7-1.3 1.1-5.1 3.4-6.3 5-1.2 1.6-2.9 2.7-4.1 2.8-1.2.1-.9 1.9-1.5 3.4s-1 3.7-.3 5.2.5 5.3-.6 6.7c-1.1 1.4-1.2 3.7-1.2 5.3 0 1.6 0 2.7-1.1 2.9-1.1.2-1.4 1.3-1.6 2.8-.2 1.5-3.3 2.1-3.9 3.9-.6 1.7-2.8 3.3-3.9 2.6-1-.7-4-4.6-4-7.3 0-2.8-2.8-7.2-3.9-8.7-1.1-1.5-2.4-7.6-4-10.7-1.7-3.1-3.4-8.3-3.9-11.1-.4-2.8-1.7-5.6-1.9-7.5-.2-1.9-1.4-5.3-.8-7 .6-1.7.9-3.1 0-3.8-.9-.7-.2-3.9-1-4.3-.8-.4-2.1 1.7-1.3 2.1.9.5-1.3 3.7-4.3 4.3-3 .6-8.9-6.6-8.8-7.2.1-.6 5.7-.2 5.7-2s-2.1.7-4.5-.2c-2.1-.8-2.6-2.5-3.8-3.5-.2-.2-.4-.3-.7-.4-1.8-.8-3-.6-3.6-1.6-.6-1 .1-2-.9-2.8-.9-.9-1.8-1.3-1.9-2.3-.1-1-1.3-2.1-3.3-1-1.7.9-5.7.7-6.7.1-.9-.6-2.5-.2-3.2.5-.4.5-4.4.6-7.7.6 0-.4-.1-.8-.1-1 0 .3.1.6.1 1-1.9 0-3.6-.2-4.3-.4-2-.6-13.4-1.4-14.4-2.7-1-1.3-.4-4.9-3.2-5.4-2.8-.5-4.5 2-6.7 1.8-2.2-.1-7.4-1.5-9.4-3.6s-3.6-1.6-5-2.5c-1.4-.9-1.3-1.7-2.4-3.8-1-2.1-3.4-6.5-4.2-6.5-.9.1-2 .9-2.9.1-.9-.7-.8.5-1.9.5-.3 0-.6.1-1 .2-.7.2-1.4.6-1.8 1-.2.2-.4.5-.4.7 0 .7 1.2 3.3 2 5.2.3.7.5 1.4.5 1.8.1 1.4 2.9 3.7 4.2 4.9 1.3 1.2 2.8 3.4 1.8 4.5-.7.9 1.4 3.9 2.2 4.5.2.1.3.1.3-.1 0-1 1-4.5 2.8-4 1.8.5 1.3 4 .5 5.3-.2.3-.2.7-.1 1.1.2 1 1 2.1 1.7 2.6.4.3.7.4.9.2.8-.5 1.8-1.8 4.9-1.3 3.1.5 6.6-1.3 7.8-3.7 1.2-2.4 4.2-5.6 5-5.6.4 0 .5 2.6 1.1 5.1.4 1.7 1.1 3.5 2.2 4.4 2.9 2.3 6.4 1.6 6.9 2.6.5.9 2.3 4.2 3.5 4.3 1.2.2 1.1.9.3 2.3-.8 1.3-3.4 4.1-3.4 4.8-.1.7-2.1 2.1-3.4 2.3-1.3.2-1.6 4.4-1.4 5.6.2 1.2-1.3.8-2.6 1.3-1.3.6-1.9 3.4-2.7 3.8-.8.4-3-.6-4.5.7-1.5 1.3.2 2.8-1.6 3.2-1.8.5-4.4-.2-6.7 1.2-.4.2-.7.4-1 .5-1.7.7-2.8.4-3.5 1.3-.9 1.1-.1 2.9-4 4.2-3.9 1.2-7.6 1.7-8.7 2.9-1.2 1.2-2.2 2.3-3.2 2.2-1-.1-3.5-.1-4.1.7-.5.7-2.8 2.2-4.5 2.2-1.7 0-3.2.2-5.3 1.7-2.1 1.4-6.9 1.5-7.5.9-.6-.7-.1-4.2-1.4-6.1-1.3-1.9-1.7-5.2-1.2-6.6.2-.7 0-1.6-.4-2.6s-1-1.9-1.4-2.4c-.8-1 0-1.8-1.4-3.2-1.4-1.4-2.8-3.7-3.8-6.3-1-2.6-2.6-4.1-4.8-5.4-2.2-1.4-3.3-4.5-3.4-7-.1-2.4.2-3.6-1-4.6-1.3-1-1.3-3-3.7-4.6-2.4-1.6-3.1-3.2-3.2-4.6-.1-1.4-4-7.2-6-9.3-2-2.1-2.4-3.8-3.4-4.1-.8-.3-.4-3.8-.7-4.7 0-.1-.1-.2-.1-.2-.5-.3-1 5.9-2.5 5.9s-3.5-4.1-4.2-5.4c-.6-1.3-2.2-5.5-2.7-5.3-.6.2 0 4.9 1.9 7.6 1.9 2.7 2.9 2.9 2.8 4.6-.1 1.7 1.8 2.6 2 4.2.1 1.6 3.5 5.7 4.4 8.4.9 2.7 2.2 2.6 1.9 4.6-.1.6-.1 1.1 0 1.7.2 1.3 1 2.4 2.3 3.1 1.9 1 3.5 3.2 3.6 4.3.1 1 .9 3.6.9 6.8 0 3.2 1 5.8 2.4 6.5.6.3 1.6 1.2 2.6 2.4 1.2 1.5 2.3 3.3 2.3 4.6.1 2.3 2.1 5.9 3.1 6.1.9.1 1.2 2.6 2.6 2.6 1.5 0 4.2 1.6 6.5 4.5 1.9 2.4 3.4 4 4.4 4.9l.5.5c1 .9 1.5 2.2.4 2.4-1.2.2-2.8 1.5-2.4 1.9.2.2 1.2.4 2.2.9l-.1.1.1-.1c.7.4 1.5 1.1 2.1 2.4 1.4 2.9 5.8 1.8 6.8.6 1.1-1.3 4.2.2 5.4-1 1.2-1.2 3.2-1.5 6.6-1.5 3.4-.1 8.6-1 9.3-2.5.7-1.5 2.9-1.2 2.7 1.4-.2 2.6-1.5 5.7-1.4 7.2.1 1.5-2.4 6.3-3.9 8.2-1.5 1.9-3.4 4.5-3.7 6.4-.3 2-2.7 4.9-4.8 7.6-3.4 4.3-8.3 9.1-10.3 10.1s-3.7 1.8-7.2 5.5c-3.2 3.4-7.6 7.5-9.2 9.7-.1.2-.3.4-.4.5-1.2 2-1.5.5-2.3 1.5-.8 1-1.7.7-2.6 2.1-.5.8-2.5 5.1-4 9-1.1 2.9-2 5.5-1.8 6.3.4 1.8 3.2 2 2.2 3.5s-1.3 2.9-.7 3.1c.6.2.5 1.7.4 3.4-.1 1.7 1.4 1.7 1.5 4.2.1 2.5 2.8 1.4 2.9 3.8v.2c0 2.6.6 7.9.4 9.9-.2 2 .6 7 1 8.1.4 1.1-4 7.1-6.5 8.6-2.6 1.5-5.4 1.5-8.1 3.5-2.6 2-2.7 3.5-4.3 4.8-1.7 1.2-2.6.6-3.5 2.2-.9 1.6-.9 2.1-1.9 2.2-1 .1-1.2 1.4-.7 3.1.5 1.7 1.6 2.2 2 5.3.4 3.1 1.2 3.9.7 5.2-.5 1.4-.1 4.8-.4 6-.4 1.2-1.7 2-5.2 3.2-3.5 1.3-6.9 3.5-6.5 4.8.4 1.2 1.8-.4 1.7 1.6 0 .5-.1 1.2-.2 2.1-.3 2.5-.9 5.8-1.9 6.8-1.4 1.3-4.2 3.7-5.9 6.6-1.7 2.9-6.8 9.2-9.8 12-3.1 2.9-6.9 5.4-8.5 5.4-1.6 0-3.3-.2-3.4 1.2-.1 1.4-1.8 0-2.6.6-.9.5-2.2 1.1-4 .5-1.8-.6-4.3-.6-6.4.1-2.1.6-1.7 1.5-3.8 1.5-2.1 0-4.2.3-4.9 1.3-.7 1-2.1 1-2.7.2-.6-.8-1.3-1.7-2.2-1.8-.9-.1-.6-.8-1.7-1-1.2-.2 0-1.5-1.3-3.5-1.3-2.1-1.3-3.2-.1-3.4 1.3-.2.6-2 0-3.9s-3-4.9-4-8.2c-.6-2-1.8-4.5-3.1-6.6-.8-1.3-1.7-2.5-2.6-3.3-2.3-2.2-2.4-7.5-2.8-10-.4-2.5-.8-5-1.5-6.5s.5-4.7-.2-7-3.3-5.6-4.2-8.6c-.9-3-2.6-6.5-4-8.4-1.4-1.8-2.5-4.1-2.3-5.4v-.2c.2-1.2.6-4.5.5-5.6-.1-1.1 2.1-3.4 2.1-5.8s1.5-6.2 3-7.9c1.5-1.7 3.2-3.4 2.9-6-.2-2.6-2.6-6.5-2.6-8.7 0-2.1 1.2-3.2.7-4.3-.5-1.1-2.9-5.8-3.6-8.6 0-.1-.1-.3-.1-.4-.3-1.4-.7-3-1.5-4.6-.7-1.5-1.8-3-3.5-4.4-.2-.1-.3-.2-.4-.3-2.9-2.4-1.9-2.9-4.1-5.1-2.3-2.3-2.9-3-3-3.8-.1-.8-2.8-3.1-2-3.7.7-.5 1.7-1.5 1.7-2.6-.1-1.2 2.6-.9 2.3-1.7-.3-.8-2.1-1.5-1.6-2.1.2-.2.5-.5.7-.9.3-.5.5-1-.2-1.1-1-.1-1.1-1.2.2-1.7 1.3-.4 1.6-1.8 1-2.7v-.1c-.5-1 .5-2.9.8-3.7.2-.8-.5-3.7-1.2-4-.7-.4-2.3.6-3.2-.7-.6-.9-1.2-2-1.7-2.3-.2-.1-.4-.2-.7 0-.7.7-4.5.6-5.5.6s-3.3 1.4-4.2.9c-.9-.5-2.3-2.5-2.2-3.5.1-1-2-3.8-3.9-4.2-2-.4-5.4-.6-6.2-1.6-.7-.8-1.5.9-2.8.9-.7 0-1.8.1-2.8.2-.9.2-1.8.4-2.3.9-.2.2-.5.4-.8.5-1.3.7-3.1 1.2-4.8 2-2.1 1-7.3 3.4-8 3.2-.3-.1-1.4-.6-3.1-1.1-2-.6-4.7-1-8-.5-5.3.9-9.7 2.7-12.2 2.7-.4 0-.7 0-1-.2-2.1-.8-6.7-3.8-9.7-6-1.6-1.2-3.6-2.5-5.4-3.6-1.4-.9-2.7-1.7-3.3-2.2-1.4-1.2-2.3-1.8-3.3-5.2l-.6-1.5c-1.2-2.4-3.1-4-4.7-5.1-1.7-1.2-1.5-2.5-3-3.6-.1-.1-.3-.2-.5-.3-2-1.2.6-2.4-1.8-3.1-2.1-.6-2.3-1.3-3.3-2.6-.1-.2-.3-.3-.4-.5-.5-.6-.6-1.2-.5-1.9.1-.9.5-1.8.5-2.5 0-.3 0-.6-.2-.8-1-.9-2.9-3.8-1.5-5.9.6-.9.8-2.1.9-3.3.2-1.4.2-2.8.7-3.6.9-1.5 3.2-5.5 1.3-8.1-1.9-2.6.4-5.2-.9-6.7-.9-1.1-2.6-2-2.3-4.7.1-1 .4-2.3 1.2-3.9 2.8-5.9 7.1-10.1 7.3-12.9.2-2.8 4.8-5.6 5.5-7.6.5-1.2 1.1-2.7 2.3-3.8.7-.7 1.7-1.3 3-1.5 3.3-.6 4-2.9 6.1-4.1 2.1-1.2 5.7-5.4 4.9-6.8-.8-1.3-1.5-5.1 0-6.3 1.5-1.2 1-2.9 2.3-3.9 1.3-1 1.5-3.5 3.1-3.5 1.7 0 5.1-1.2 6.3-3 1.2-1.8 3.4-7.9 4.5-8.4 1.2-.6 2.3 0 3.9 1.8s4.9.7 7 .7c1.5 0 3.3 1.2 4.8 1.1.6 0 1.1-.2 1.6-.7 1.6-1.8 4.6-3.4 6.5-3.4 1.9 0 3.2-3.3 6.4-3.4 3.2-.1 14.4-2 15.5-.9 1.1 1 4.4-1.1 5.7-1.2 1.3-.1 3.5-.7 4.2-.4.5.2 2.3.7 3.9.8.9 0 1.7-.1 2.2-.6 1.5-1.4 5.5-1.2 5.7.3.2 1.5 1.3 1.3 2 .7.7-.6 1.8.1.6 1.5-1.3 1.3-2.6 2.1-.7 3.6 1.8 1.5 1.6 4.2-.1 5.6-1.7 1.4-3.5 1.3-3.2 2.9.3 1.5 2.6 2.1 3.2 1.4.6-.7 1.7.6 1.7 1.4 0 .4.6 1.1 1.6 1.8 1.1.7 2.8 1.3 4.8 1 3.7-.6 5.4 1.1 7.5 1.5 2.1.4 2.9 1 2.7 2.4-.2 1.3 1.6 2.9 4.1 2.9 2.5 0 5.6.9 7.6 2.8 2.1 1.9 5 1.7 6.4-.1 1.3-1.8-.6-3.7-.5-5.4.1-1.7 5.2-5 9.2-4.7 4 .2 2.7 2.7 6.3 3.2 3.6.5 5.3.6 5.6 1.5 0 .1.1.1.1.2.6.8 3.1 1.2 6.2 1.5 3.4.3 5.7 1.4 7.6 2.1 1.8.7 3.9.7 4.6-.4.8-1.2 6.8-2.3 8.6-1.4 1.8.9 3.3 1.6 5.2 1.1 1.9-.5 3.9.7 4.4.2.1-.1.3-.3.5-.7 1-1.5 2.9-5.2 3.3-7.4.1-.6.3-1.3.7-1.9l2.1.9h.1l-.2-.1-1.9-.8c1.1-2.4 3.1-5 3.1-6.2v-.5c.2-1.3 1-2.3.3-3.1-.4-.5-.1-1.3 0-2.1.1-.5.2-1-.1-1.4-.7-1 1.8-2.9 1.1-3.3-.7-.4-2 .2-3.2.9-1.2.6-2.4-1.2-3.2-.8-.7.4-2.6 2.4-3.9 2.4-1.3 0-3.3 1.1-4.3.7-1-.4-3.6-3.1-5.6-3.3-2-.2-3.4.2-3.4 1.5s-4.5 2.2-5.3 1c-.8-1.2-1.3-3-2.6-2.6-1.3.4-2.1.1-2.1-.6s-2.6-1-2.7-1.7c-.1-.6-3.2-2-2.1-2.1 1.2-.2 1-1.5 0-2.3-1-.7-.9-2.1-.1-2.9.8-.7-.8-2.4-.4-3.1.4-.6-.3-1.3-1.7-1.2-1.4.1-.8-2.3.9-3.1 1.7-.7 6.5.1 8.7-.7 2.2-.9 1.5-2.8 2.1-3.2.6-.4 7.2 1.1 9-.5 1.8-1.6 6.8-4.6 12.5-3.9 5.7.7 4.3 1.7 6.2 1.7s1.8 1.8 3.7 1.6c1.8-.1 2.5 1.6 4.9 1.6 2.4 0 5.6-.8 7.2-.2 1.3.5 5.7-.8 7.7-2.6.5-.4.8-.9 1-1.4.6-2.5-1-1.3-1.6-4.3-.5-2.5-4-2.2-6.4-3.6-.4-.2-.8-.5-1.1-.8-2.3-2.4-5.1-4.9-7.7-5.6-2.6-.7-2.6-2.5-3.2-2.6-.7-.1-.3-1 1.1-1 1.4 0 2.5-.3 2.3-1.8-.2-1.5 2.4-1.6 2.4-2.4.1-.7-2.4-2-1.6-2.3.9-.3 5.5-2.3 5.1-3-.2-.4-2.2-.3-4.2.1-1.3.3-2.6.6-3.4.9-1.8.9-3.4 1.4-5.3 1.6-1.9.2-5.2 2.7-5.2 3.3 0 .6.2 3.6 3.4 3.4 3.2-.2 4.6.4 4.2 1.1-.4.7-3.9-.3-5.5.8-1.7 1.1-2.7.8-4 1.7-1.3.9-2.9 1.4-3.4.8-.5-.6.9-2.5-.2-3.2-1-.7-4-1.3-4.2-1.9-.1-.6 5.7-1.8 5.5-3.1-.2-1.2-5.1-.1-6.7-1-1.6-.9 1.9-2.3-.4-2.7-2.3-.4-3 .4-4.6.7-1.6.3-1.8 2.8-3.5 4.2-1.7 1.3-2.1 1.2-2 3.1v.2c.2 2.1-.9 2.1-2.1 2.3-1.3.1-2 2.1-2.1 3.4 0 .8.1 1.6 0 2.2-.1.4-.3.7-.9.9-1.3.4-2.4 3.4-3.3 3.5-.9.2.2 3 .9 3.1.3.1.4.5.6 1 .2.7.4 1.6 1 2.1 1 .9 3.9 1.8 3.1 2.5-.8.7-4.1 0-5.6.5-1.5.6-2.1 2.4-3.9 2.4-.8 0-1.6-.6-2.4-1.2-.9-.7-1.8-1.3-2.8-1.3-2 0-2.5 1.8-3.1 1.5-.6-.2-.6-1.5-2.5-.8s.2 2.7-.8 3.1c-1 .4-2.7.6-3.3-.5-.6-1.1-3.2-.4-2.1 1.2 1.1 1.5 3.4 3.4 3.4 4.6 0 1.3-2.8.7-1.3 2.2 1.5 1.5 1.2-.7 3.4-.1 2.3.6 2.1 3.2 1.3 3.4-.7.1-1.5 1.3-3 .4s-2.8.9-1.5.8c1.3-.1 2.8.7 1.9 1.6-.9 1-2.6-.4-2.9.1-.3.5 1.6 3.7.7 4.2-.9.4-2.4-1.9-3.9-1.8-1.4.1-2.5-1.6-2.1-2.9.4-1.2-2.4-2.3-.9-3.5 1.6-1.2 4.4.4 4.4-.4s-2.8-2.4-3.7-1.3c-1 1.1-3.1.6-2.9-1 .2-1.5-.9-3.1-2.2-3.5-.1 0-.1-.1-.2-.1-1.2-.6-1.5-2.5-2.8-3.5-1.3-1-1-4.9.1-6.1 1.1-1.1.5-1.7-1.1-2.6-.1 0-.1-.1-.2-.1-.8-.4-1.8-1.3-2.9-2.2-.7-.6-1.4-1.1-2.1-1.6-.6-.4-1.2-.7-1.7-.7-1.8-.1-3.4-1-3.6-1.9-.1-.9-2.3-.7-3.3-1.8s-3.6-4.3-3.7-5.8c-.1-1.5-2.1-1.3-3.2-1.3-.7 0-.6-.9-.7-1.8-.1-.5-.2-1-.7-1.2-.5-.2-1.7-.1-2.6.3-1.2.5-2.3 1.4-1.8 2.4.9 1.8-1 2-.1 4.2 1 2.1 4.9 2.3 5.8 5.9.9 3.6 3.9 6.7 6.4 6.6 2.5-.1 1.5 1.5 3.1 2.4 1.6 1 8.3 3.7 8.2 5.8-.1 2.1-1 1.2-3.1-.2-2.1-1.3-4.4.1-4 1.8.4 1.6 2.9 2 1.9 3.2-1 1.3-2.2 1.2-2.4 2.4-.2 1.2-1.5 3.4-2.1 3.4-.6 0-1.1-2.1-.2-3.3.9-1.2.7-3.4-.2-4.5-.9-1 .1-2.3-1.3-2.4-1.4-.2-1.5-1.8-2.9-2.4-1.5-.7-2.7-1.3-3.6-2.4-.9-1.1-2.4-.9-4-1.7-1.5-.8-2.7-2.9-5.6-4.8-2.9-1.9-3.7-4-3.9-5-.2-1-.4-1.2-1.3-2.4-.9-1.3-3.7-3.1-5.8-2.4-2.1.6-1.6 1.8-2.9 2.4-.6.3-1.3.4-2 .6-.7.2-1.6.6-2.6 1.7-2 2.1-3.6 2.3-4.8 1.6-1.2-.7-5.6-2-7.6-1.6-2 .3-4.2 1.7-3.4 4.1.1.4.2.7.2 1.1.3 1.7-.2 2.8-1.7 3.5-1.8.7-2.4 2.1-4.5 2.4-2.1.2-3.8.7-3.8 2 0 1.4-1.8 1.5-3.4 4-1.7 2.5.1 5.3-.1 6.1-.2.7-2.9 2.2-3.1 3.2-.1 1 .1 2.7-1.5 2.9-1.7.2-2.9 1.2-3.2 2.2-.4 1-1.5 1.5-3 1.5-1.5-.1-2.9.1-5.3.2-2.3.1-2.8 1.5-3.8 1.5s-1.9-.4-2.4.1 0 1.2-1 1.3c-2.3.3-3.3-4-5-4.8-.7-.3-1.4-.3-2.2-.2-1.1.2-2.3.7-3.3.7-1.7 0-3.2.3-3.2-.8s1.1-5.7-.6-7c-1.6-1.3-3.2-1.8-1.6-3.6s3.4-8.6 2.6-9.9c-.3-.6-.2-1.6-.1-2.8.1-1.5.3-3.2-.7-4-1.8-1.4-1.5-2.9.9-3 2.4-.1 1.7-2.1 3.4-2.1s1.9 1.5 5 1.3c3.1-.2 11.1.4 13.6.1 2.4-.3 5.9 1 7.2.8h.2c1-.5 2.3-5.8 2-7.5-.3-1.7 1.2-3.6.6-5-.6-1.3.9-2.7-1.1-3.2-2-.6-3.2-2-3.2-3.5-.1-1.5-.3-1-1.3-1.8s-1.5.1-3.6-1-4.9-1-5.5-1.8c-.6-.8.3-1.7-.5-2.6-.8-.9.4-2.1 2.6-2 2.1.2 2.7-.9 4-.4 1.3.5 1.4 2 2.5 1.2s2.8.8 3.6.2c.8-.6.9-2.8-.6-4.4-1.4-1.6 1.9-2.9 2.4-1.6.5 1.3 4.2 2.6 5.2 1.8s.2-2.8 2.7-2.9c2.5-.2 4.5-.4 4.3-2.9-.2-2.4 1-3.6 2.5-3.5.3 0 .6 0 .9-.1.9-.2 1.9-.7 2.8-1.2.2-.1.4-.3.6-.4 1.3-.8 3.4-2.3 3.3-3.9-.1-1.6 2-2.1 1.9-3.4-.1-1.3 1.7-2 1.9-1 .2 1 2.6.6 2-.1-.7-.7-.1-2.5 1.7-2.9 1.8-.4 3.2-.7 4.2-.1.6.3.9 0 1-.4.1-.3.1-.6.1-.9-.1-.6 2.4-.9 3.1-.5.7.4 3 1.4 3.1.4.1-1 2.6-.1 1.8-1.7-.8-1.5-1.6-2.5-1.1-3.5.3-.6-.2-1.2-.7-2-.4-.6-.8-1.3-.6-1.8.4-1.2-1.3-2.1-1.6-3.6-.2-1.5-.7-3.7 0-4.7s.8-3.1 2.1-3c1.3.1 1.6 2 2.4 1.2.8-.7-.7-1.5-.2-1.8.5-.4 2.3.4 2.4-1.3.2-1.6 2.4-2.3 3-1.6.6.6.3 2.9-.4 3.5-.7.6-.5 2.6.1 2.9.6.3 2.3 1.2 2 2-.3.8-2.3.4-2.6 1.4-.3 1-1.6 2-1.2 2.6.4.6.7.9 1.9.2 1.2-.6 1.6 2 1.5 2.6-.2.9-2.1.8-2.9.1-.9-.7-2-1.3-2.1-.4-.1.6 1.1 1.4 1.7 2.2.2.3.3.6.2 1-.2 1.3 1.6 2 3.1 1.5 1.5-.6 2.4-.7 1.5.7-1 1.4.9 2.6 2.1 1.6 1.3-1 3.2-3.2 4.6-2.7 1.5.5 3.1-1.8 3.7-1 .6.8-2 2.4-.4 2.4s2.3.4 2.4 1.3c.1.3.2.4.3.5.4.2 1.1-.2 1.2-.9.1-1 4.5-.3 6.4-2.2 1.9-1.9 9-3.4 9.1-2.6.1.8.2 2.6 2 2.6 1.1 0 1.9-.6 2.3-1.2.2-.3.3-.7.2-1-.1-.8 2.8-1.4 2.8-.2s2.8 1.2 2 0c-.9-1.2 1.9-1.3 1.3-2.3-.2-.3-.4-.5-.6-.6-.5-.3-.9-.4-.2-1.1.9-1.1 1.2-2.8.4-4.5 0-.1-.1-.1-.1-.2-1-1.8-.4-3.1.6-3.9 1-.8.2-2.4 1.7-3.3 1.4-.9 3.4-2.6 4-1.8.6.8 2.5 4.3 3.7 4.3 1.2 0 3.3.4 3.4-1.6.1-1.9-.8-2.8.4-4.1v-.1c1.2-1.3.3-1.9-.9-1.6-1.2.2-1.6-.2-2.4-1.4-.9-1.2.3-1.6-.9-2.6s1.5-1.3 2.5-2.4c1-1.1 5.5-1.1 7.7-1.5 2.2-.4 6.1 1.3 7.8.8.4-.1.7-.3.9-.4.6-.5.4-1 2-1.6 2.2-.7 2.6-1.6 4-1.3 1.4.2 2.6.2 2-.5-.7-.7-2.6 0-3.6-.8s-1.7-3.2-2.6-2.7c-.4.2-1 .4-1.7.6.6-.9 1.3-1.8 2-2.5-.7.7-1.4 1.6-2 2.5-1 .2-2.2.4-3.7.4-2.7 0-9.5 2.8-12.8 2.9-3.4.1-3.4-1.3-4.5-1-1.2.4-1.3-1.5-2.5-1.3-1.2.1-3.1-1.8-3.9-1.5-.8.2.2-2.3 1.1-4.3.9-2-.4-3.9-.7-4.6-.3-.8.4-1.8-.4-2.9-.9-1.1-1-1.8-.1-2.4.9-.5.7-2.6 1.8-2.6 1.2 0 2.9-.1 2.9-1.4-.1-1.3 1-2 2.2-2.3 1.2-.3 1-1.8 2.4-1.9 1.4-.1 3.7-2.3 4.2-4.2.5-1.8 1.4-2.4 2.3-1.8.9.5.8-.2.7-1.5-.1-1.3.2-2.4-1.5-3.2-1-.5-2.1-1.1-3.3-1.4-.7-.2-1.4-.2-2.2-.1-2.2.4-3.4-.6-4.3.4-.9 1-1.4 1.6-2.7 2.1-1.3.5.2 2-1.6 3.4-1.8 1.3 1 2.7.4 4-.6 1.3-4.2 3.7-6.4 4.8-2.1 1-2.3 1.6-3.9 2.3-1.7.7-1.3 2.9-2.9 3.2-1.5.4-.8 1.5-2 1.9-1.2.4-1.1 1.9-1.1 3.2 0 1.3-1.8 2.7-1.5 4 .2 1.3.7 4 .5 4.6-.2.7 2 .2 2.9.8 1 .6 3.9 3.4 3.9 4.3 0 .9-2.8 2.4-2.4 3.4.4.9-2 3.1-3.7 3.5-1.8.4-2.1 1.7-2.3 2.5-.2.9-.1 4.6-.7 5.9-.6 1.3-1.3 4.5.1 2.9 1.4-1.6 2.1-1.9 1.5-.2-.6 1.6-1.9 4.2-2.3 3.9-.4-.3-1.2-2.1-1.5-.6-.2 1.5-1 2.5-2.4 1.9-1.4-.6-3.2-.4-3.4.3-.2.7-1.2.2-1.3 1.3-.1 1.2.4 2.4-1.5 2.4-2 .1-2.8.9-3.2.1-.4-.9 0-2.6-.1-3.5-.1-.9-1.7-.5-1.2-1.9.6-1.4.4-2-.9-3.1s-.9-2.2-2.1-3.7c-1.2-1.5-.1-3.2-1.5-4.3-1.3-1.1-1.9-2.6-1.8-4.2v-.4c0-1.2-.4-1.7-1-1.9-.6-.2-1-2.6-1.7-2.3-.7.4-.1 2.3-1 3-.9.7-2.3-.2-2.9.6-.6.8-5.3 5.3-7.7 5.7-2.4.4-3.6-1-4.8-1.3-1.2-.3-5.1-2.3-4.3-3.4.8-1.1 1.7.1 1.7-1.3 0-1.4 1.5-.6 1-1.6-.4-1-1.5-1.3-2.2-.2-.7 1-2.3 1.2-2.3.3 0-.9 1.2-1.5.3-2.4-.9-1 1.5-2.6 1.4-1.2-.1 1.3 1.9 1.5 1.6.4-.2-1.1 1-1.8 2.1-1.7 1.1.1.6-2.5-.7-1.3-1.3 1.2-2.5 2.1-2.9 1.1-.4-1-1.2.7-2.1-.7-1-1.4 1-1.6.3-2.5-.7-.9-.7-1.6 0-2 .7-.3 1.5-1.3.4-1.5-1.1-.2.4-1 .5-1.5.1-.5-1.9-1-1.6-2.1.3-1 1-2.4 1.9-1.8.9.6 2.4.4 1.5-.4-.9-.9.7-2.1 1.9-1.9 1.2.2.9-1.8 2.2-1.5 1.3.3 3.9.7 3.5-.1-.4-.7-2.9-.7-2.2-1.6.7-.9 3.1-.4 4-1.5.9-1.1 3.2-.1 2.3-1.4-.9-1.3-1-2.4.5-2.3 1.5.1 1.3 2.5 2.3 1.8 1-.7.6-3.1 2-3.1 1.5-.1.7-1.8 2.6-2.6 1.9-.9 3.4-2.4 3.7-1.5.2 1 2.4.3 1.3-.6-1.1-.9-2.9-2.3-2.3-2.6.6-.2 2.7 0 2.9-.9.2-.9 2.6.5 2.6-.4s-.9-2 0-2.8c.9-.8-.1-3.4.6-3.8.7-.4 2.7.5 3.2-.5.6-1-1-1.4.7-3.1 1.7-1.6 3.7-3.9 3.8-5.2.1-1.3 1.5.2 1.5-1.3s.9-2.9 1.7-3c.8-.1 1.5-.9 2-1.7.4-.8 1.7-.1 1.7.8s2.1.3 1.2-.7c-1-1 1.2-1.5.4-2.2-.8-.7-1.8-.9-2.6.2s-1.8.8-2.4.4c-.6-.4-2.4.4-4 1.5-1.7 1-2 .4-3.1 1.5-1 1.2-3.2 1.1-1.4-.1 1.8-1.2 4.7-1.7 5.1-2.8.4-1.2 2.4-1.5 1.8-2.2-.7-.7 1.2-.6 2.6-2 1.4-1.4 1.8-2.9 2.4-2 .6.9-1.8 2.8-1 3.4.8.6 1.5-2 2.3-1.1.7.9 1.7 2.4 1.8 1.1.2-1.3 1.3-1 2.1-.2.9.8 1-.6.4-1.1-.6-.5.5-1.1-.6-1.5-1.1-.4-2.5 1.3-2.6.2-.2-1.1 1.5-1.8 2.1-2.8.6-1 2.7-1.2 2.8-.4.1.9 1.6.8 1.5-.2-.1-1 .3-1.2 1.3-1 1 .2 1.2-1 .4-1.9-.8-.9-.1-.9 1.2-1.2 1.3-.2 2.4-1.3 2.9-.2.5 1-.9 3.1.3 2.4 1.2-.7 2.7-1 2.3.2-.4 1.2 1.4 2.2 1.4.9 0-1.3.6-2.3-1-2.7-1.5-.4 1.2-1.8 1.3-.8.1 1 1.8 1.8 2.2 1.3.4-.4 2.1.8 2 .2-.1-.5-3.2-1.6-2.3-2.1.9-.4 2.3-.8 3.1-.1.9.7 2.9.1 1.2-.9s-1.8-2.8-.2-2.8c1.5.1 3.4.2 3.4-.7 0-.9 1.3-1.1 1.5-.4.1.4-1 2.1-2.2 2.1-1.2 0-1.7 1.9-.9 1.6.9-.3.4 3 1.5 2.7 1.1-.3 1.2-2 .4-2.4-.7-.4.2-.4 1-1.6.7-1.2 2.3-2.1 2.9-1 .6 1.1 1.5.3.9-.6-.6-.9.8-1.1.7-1.6-.1-.5 2.4.9 2.9.4s.7-2.2 2.3-1.8c1.5.4 1.5 1.6.5 1.6s-1.1 2.3-2.7 3.2c-1.6.9-1.7 2.8-.7 2.6 1-.2 2.3-2 4-3.9 1.7-2 2.6-2.6 2.6-1.4.1 1.2-1 3.5-.1 3.5s3-2.6 2.4-3.2c-.6-.6.3-2.5 2.6-2.3 2.3.2 2.9 2 1.7 2.3-1.2.3.1 1.4-.5 2.3-.6.9 1 1.3 1-.4 0-1.7 2.4-2.9 3.2-2.2.8.7.9 1.3 2.2 1 1.3-.2 2.7.5 3.1 1 .4.5 2.3 1.2 2.1 2.1-.2.9-1.7.1-2.8 1.1-1.1 1-1.8 1.4-2.7.9-1-.5-2.2-.6-2.1-.2.1.4 2.8 1.2 2.7 2.1-.1.9 1.6 1.1 1.8.2.2-.8 2.1-.8 3.1-.1.1.1.2.1.3.2.9.8 2.1 1 2.5.1.4-.9 1.3-1.7 2.9-.6 1.7 1.1 2.6.2 2.7 1.1.1.9-2.6.4-3.1 1s.5 1.8 2.3 1.3c1.8-.4 2.8 1 3.8.2 1-.7 2.4-.9 3 .1.6.9 1.2.7 2.1.2.9-.4 6 1.3 9.7 3.8 3.7 2.4 4.6 3.2 6.1 3.1 1.4-.1 1.6 1.9 3.4 1.9 1.8 0 3.1 1.3 3.4 2.1.3.7 2.4.9 2.4 1.8 0 1 1.7 3.6.4 4.9-1.3 1.3-7.4 5.9-12 5.3-4.6-.7-6.5-1-9.7-1.6-3.2-.5-4.3-1.9-7.2-2.3-2.9-.4-4.6-1.3-5.7-2.4-1.1-1.1-2.6-1.5-3.3-1.2-.7.3 1.3.4 1.5 1.3.2.9 2.8 3.1 4 3.4 1.3.3 1 1.8 2.5 1.8s3.2 1.4 3.2 2.3c-.1.9.7 2-.3 2.6-1 .7-.1 2-.1 2.7-.1.7 1.1 1.5 1 3-.1 1.5.2 2.7 2.1 2.4 1.9-.3 3.7 1.2 3.8 2.1.1 1 2.6.2 3.2 1 .6.8 2.8.2 3.1-.5.4-.7.8-2.5-.4-2.5-1.2 0-3.4-.1-4-1.4-.6-1.3-1.7-1.6-1.2-2.4.4-.8 1.2-2.4 2.5-2.3 1.3.1 3.8 3 4.7 2.8.9-.2 3.6.1 4.3 1 .7.9 4.8 1.1 5 .3.1-.8-.2-1.8-1.7-3.2-1.5-1.5-1.3-2.9-.2-3.6 1.1-.7 2.8-2.7 4-2.9 1-.1 3-.5 3.7-1.6.7-1 1.2-1.6 2.6-1.3 1.4.4 3.9-.2 4.2.8.2 1 .8 1.7 1.2 1.2.4-.5 1.8 1.2 1.8.1 0-1.2 1.3-1.6 1.3-3.2s.1-3.7-1.5-3.7c-1.7.1-2.4.1-1.3-1.5 1.1-1.6 1.9-3.7 1.6-4.6-.3-.9.7-2.4-1.2-2.9s-2-2.2-.7-1.6c1.3.6 3.3 1 5.1.6 1.8-.5 5.1-.1 5.3 1.5.2 1.5 3.1 3.3 2.5 4-.6.7-2.1-.8-3.7.2-1.5 1-2.5.4-2.9 1.1-.4.7-1.1 2.4.1 2.6 1.2.2 1.8 3.2 3.3 3.1 1.5-.1 6.5.3 7-.9s-.4-3.7.9-4.3c1.3-.6 4.5-.5 4.5-1.4 0-.9 2.6-.9 4-2.4 1.3-1.5 8.5-3.2 9.5-2.8 1 .4 1 1.5 1.8 1.1.9-.4 0-1.7.8-2.3.8-.7 5.6-2.3 5.6-1.6.1.6-1.7 2-.9 2.8.7.9.3 1.3-1 1.2-1.3-.1-2.3.4-1 1.1 1.2.7 4.5.2 5.6.4 1.1.2.9-2.1 3.9-2.8 2.9-.7 5.8.5 7 0 1.2-.5 5.3-3.5 6.4-3.2 1 .4 3.2 1.2 2.5 1.9-.7.7-1.7 1.8 0 2.4 1.7.6 2.9.3 2.1-.9-.7-1.2 1.2-1.4 2.8-1.4 1.7 0 2.2-1.4 1.3-2.3-.9-.9-2-2.1-1.9-3.4.1-1.3-.6-2-2.6-1.9-2.1.1-1.1-.9-3.1-1.2-2-.3-2.4-2.8-1.2-3.4 1.3-.7 2.8.7 5 1.6 2.3 1 1.8 2.4 3.1 2.3 1.3-.2 3.7.7 7.5.7 3.8-.1 5.6.6 7.6 2 2.1 1.4 3.6 1.3 5.5 2.3 1.9 1 5.7 2.1 6.7 2.9 1 .7 4.2 4.1 5 4 .8-.1 3.1-3.3 2.6-4.1-.5-.8-1.5 0-2.5-1.3s-.5-2.6-1.8-3.4c-1.3-.7-4.3-1.1-4.9-1.8-.6-.7.4-2.1 1.4-2.8 1-.7-.2-1.6.2-2 .4-.4 1.2-2.9.5-3.3-.7-.4-1.7.4-2.3-.6-.7-1 .2-3 1.7-3.6 1.5-.6 4.7-1.5 5.5-4.2.8-2.8 2.1-4.6 2.8-5.9.6-1.2 1-2.6 2.3-2.3 1.3.2 6.5.5 7.9.4 1.4-.1 5 .7 5.1 1.7.1 1 0 5.6-1.8 7-1.8 1.5-2.6 2.6-1.3 3.1 1.2.6 3.7 2.7 3.4 4.7-.4 2-1.2 3.2-1 4.3.1 1.1.4 3 .1 3.9-.4.9.3 3.1.1 4.2-.2 1.2 2.5 3 3.2 3.5.7.5.7 1.3-.1 1.5-.8.2-1.6 2.1-1.1 2.8.5.7.1 2-.7 2-.8 0-1.2 1.3-2 1.3-.9.1-.3.9-1.1 1.3s-.3 1.8-1.3 2.2c-.9.4-2.3.9-1.8 1.5.4.7.4 1.1-1 1-1.3-.1-.4.9-2.1.8-1.8-.1-1.2-1.6-2.4-1-1.2.7-2.3 1-2.4.2-.1-.8-1.8-1.6-2.2-.6-.4 1.1.6 2.3 2 1.8 1.5-.5 1.5 1 3.3 1 1.8.1 3.5-1.1 4.8-.4 1.3.7 3.8 1.6 3.7 0-.1-1.6 2-2.3 3.8-3.3 1.8-1 3.2-1.5 3.1-2.8-.1-1.2 4.1-3.4 3.4-4.9-.7-1.5-2.1-4.6-.9-5.7 1.2-1.1 5.3-1.5 6.4-1.7 1.1-.2 2.1.9 2.6 1.7.6.8 2.2 1.5 2.1 2.6-.1 1.2-1.5 2.6-1 3 .4.4.5 2.1 1.9 2.6 1.3.5 4.8.9 4.6.4-.2-.6-4.8-1.3-4.8-3.2.1-1.8 2.7-1.8 1.9-3.1-.8-1.2 0-2.4-1.5-3.2-1.5-.7-5.7-3.1-8-2.7-2.3.4-3.9 1.5-4.8 1-1-.4-2.5.5-3.2-.6-.7-1 .4-2-.2-4.2-.5-2.1 2.9-5.8 2.4-7-.5-1.2-3.9-5-4.7-5.7-.9-.7 1.7-1.5 1.7-2.6 0-1 3.7-1 5-2.6 1.2-1.5 1.4-3.8 1-4.3-.4-.5-.5-2.1 1.1-1.7 1.6.5 2.9 3.4 1.8 5.1-1.1 1.7-1.8 3.4-1 4.1.9.7-.7 1.7.2 2.7.9 1 5.4-.2 7 .6 1.7.9 3.7 2.5 4.8 2.4 1-.1 2.1-.7.6-1.2-1.5-.6-.4-1.6-3.7-2.1-3.3-.5-6.1-3.3-5.5-4.3.6-1 2.6-2.2 4.5-.9 1.9 1.3 5.3.2 3.4-.6-1.8-.8-3.1-.6-2.3-1.3.8-.7-.2-.6-1.7-.6s.4-2 2.6-2.1c2.3-.1 1.2 1.7 3 1.5 1.8-.1 7.2.6 9.5 2.4 2.3 1.8 5.9 3.7 7 2.3 1.2-1.5-.4-3.9-2.4-4-2-.2-5.6-2.1-5.6-3 0-.9 1.3-1.5-.1-2.9-1.4-1.4-.1-3.5 1.4-4.1 1.5-.6 7.7-.8 10.7-.9 3-.1 5.3-1 6.1-.3.8.7 1.3.1 2-.7.7-.8 3.9-.5 3.9.2s1.3.4 1.2-.4c-.1-.7 1.1-1 .4-1.8l-.2-.2c-1-.9-.2-1.3-1.3-1.5-1.2-.1-2.1-.4-1.6-1.1.5-.7 3.2.6 3.1-.2-.1-.8-.7-1.5-1.8-1.4-1.1.1-2.9-.7-2.3-1.3.6-.6 3 .9 3.5.2.6-.7 0-1.6-1.1-1.5-1.1.1.9-1.3 1.5-1 .7.2 1.7-.9.6-1-1.1-.1.9-1.4 1.7-.5.7.9 2.4.7 3.2-.4.7-1.1 1.7-1.2 3.9-1.6 2.2-.4 1.1-1.8 3.9-1.8 2.8-.1 5-.1 5.2-.7.2-.7 6.9-.6 6.8-1-.1-.4-3-.7-2.5-1.7s2.7.2 4-.4c1.3-.5 2-1 2.7-1.3.7-.4 2.4 1.5 2.8.4.3-1.1 3.2-1.7 3.9-1 .7.7-2.1 2-1.2 2.3.9.3 2.1-.4 2.7-.2.6.2 2.3.5 2.7-.5.4-1 2.6-1.3 3.6-.8s2.9 1.2 3.1.6c.2-.6-2.6-1-2.7-2.1-.1-1 4.9-1.1 6.3-.9 1.4.2 2.5.1 2.3-.7-.2-.8.4-1.5-.8-1.8-1.2-.2 1.3-2.9 2.8-3.6 1.5-.7 1.7-2.9 4.6-3.4 2.9-.6 4.2-1.2 5.4-1.2 1.2.1 2.9.7 4.3 1.1 1.4.4 2.9 0 3.5.9.6.9.9 1.3-.5 1.6-1.4.2-2.6 1.3-3.9 1.5-1.3.1-2.6.6-1.2.5 1.4-.1 4.5.1 4.9.7.4.6 6.8-.1 6.8.5s-3.8 3.7-3 3.9c.8.2 5.1.6 5.2-.5.1-1.1 1.6-1.8 2.7-1.5 1.1.3 4.7.4 5.1-.1.4-.5 2.6.7 2.6.2 0-.5 4.5.2 6 1.4s2.9-.9 3.6-.1c.7.7.9 2.2.9 3.4-.1 1.2 1.8-.6 2.7.5.9 1.1-.7 2.3.4 2 1-.3 2.3 1.4 1 1.9-1.3.5-2.3 0-2.1.7.2.7 1.9.6 1.8 1.4-.1.8-.7 2-1.9 2.5-1.2.6-4.4 2-5 2-.6 0-.9 2.3-2 2.2-1.1-.1-6.6 1.8-7.1 2.9-.5 1.1-3.2 2.1-4.3 2.6-1.1.5-1 1.8-3.3 2.2-2.3.4-3.7.2-4.5 1.4-.9 1.2-2.4.6-3.9 2-1.5 1.5-2.9 4.5-1 2.9s2.8-1.6 6.8-2.1c1.5-.2 6.3-1.3 6.3-2.2 0-.9 5.2-.5 5.1-1.5-.1-.5-1.8.1-2.5-.7-.7-.7 2.3-3.3 4.6-2.7 2.4.6 3.9 1.6 4.8 2.4.9.8 4.6.4 4.3-.6-.3-1 1.8-.9 2.1.5.2 1.3-.7 4.2.7 4 1.4-.1-.4-1.8.6-2.2.9-.4 7.5-1 10.4-1.3 2.9-.3 4.8 1.3 7.6 1.2 2.9-.2 4.5.4 3.7.7-.8.4-2.1.6-1.7 2 .4 1.3 5.7 1.7 5.8.8.1-.9 1.2-.8 1.8.3.6 1.1 2.1.2 5.6 1 3.4.9 3.4-1 5-.5 1.6.6 2.3 1.1 2.4-.2.1-1.3.8-1.5.1-3.1-.7-1.6.7-2.8 2.1-2.1 1.3.6 1-2.1 2-2 .9.1 1 2 3.7 2.8 2.7.7 5 .5 4.7 1.3-.3.8 1.8 1.1 1.5.1-.2-1 5.4-.7 5.5-.1.1.7 1.5 1.8 2.8 2 1.3.2 1.8 1.2.8 1.5s1.7 2.6.9 2.9c-.8.2-1.4 1.6.2 1.6 1.6.1 1.7 2.3.8 2.8-.9.5-2.1.5-3-.3-.9-.8-2.4-.6-1.6-.1.7.5 3.5 2.9 3.8 4.2.2 1.3 4.8 5.7 6.2 5.6 1.4-.1 1.5 1.4 2.6.8 1.1-.6 1.5-3 2.6-3.2 1.1-.2 1.2-2.9 2.3-4.3 1.1-1.4 1.4-1 2.3.2.9 1.2 4 2.6 6.2 2.4 2.3-.2 3.1-1.5 4.8-1.6 1.7-.1 4.9 1.4 6.4 1.1 1.5-.3.9 2.2 3.3 2 2.4-.2 1.8-1.4 0-1.7-1.8-.2-.6-1 1.2-.9 1.7.1 3-.9 3.9.2.9 1.1 3.4.7 3.4 0-.1-.7.2-2.1-1.3-2.8-1.5-.7 2.1-1.7 1.1-2.2-1-.5-2.1 1.4-3.3-.1-1.2-1.5 1.8-2.9 3.8-2.6 2 .3 4.5-.3 3.7-1.3-.8-1-.8-2 .9-1.9 1.7.1 3.1 1.6 6.2 1.3 3.1-.3 9 1.1 11.5 1.5 2.4.4 4.1.6 4 1.2-.1.7-2.7.4-4.2 0s-2.9.2-2.3 1.1c.6.9 4.6.3 4.6 1.4 0 1.1-2.9.9-3.2 2-.3 1.1 2 2.6 4.4.4 2.4-2.3 1.4-3.7 2.4-4 1-.4 12 .2 13.3 2.2 1.3 2-1.6 1.6-3.4 1.6-1.7 0-1 1.7.4 1.3 1.5-.3 5.2 1 5.2 1.7s1 1.6 1.6.7c.6-.9 4.5.4 5.2 1.5.7 1.1-1.2 2.1 1.1 2 2.3-.1 7.2.2 9.7-.6 2.4-.7 11.6-1.7 15.7-.1 4 1.6 8.2 4.8 6.7 5.9-1.5 1 .1 1.8-.7 2.6-.8.8.3.9 2.2.9 1.9 0 3.2.5 3.2 1.2s.6 4.2 1.1 4c.6-.2-.2-3.1.9-3.9 1.1-.7 11.7-1.5 12.5-.7.8.7 8.4 2.3 10.3 1.2 2-1.1 3-3.7 4.9-3.9 1.9-.1 5.4.8 5.2 2.1-.2 1.3-1.8 2.2-3.1 1.2-1.2-1-2.6-.7-2 1.1.6 1.8 3.1 1.2 4 2.6.9 1.4 3.9 2.9 5.7 2.1 1.8-.8 3.1-2.2 1-4-2-1.8-2.9-3.1-2-3.3.9-.2.5-1.6 1.3-2.6.9-1 8.1 1.7 9.5 2.2 1.4.6 1.8-.9 3.8-.6 2 .3 8.3.6 9.7.4 1.5-.2.8 1.4 3.8 1.6 3 .2 10 3.1 11.6 4.8 1.6 1.7 5.7 1.8 6.5 3 .8 1.2 3.8 2.1 6.1 3.1s7.8 3.5 8 4.7c.2 1.2 1.8 1 1.6 2.2-.2 1.2-.6 3.6.2 4.2.8.6 3 2.3 2.6 1.2-.4-1.1 1.3-1.6.6-2.6-.7-1-2-1-1.9-1.9.1-.9 5-.7 5.4.1.4.8 1.9 1.7 1.9 1s4.7-.1 5.7 1.3c1 1.4 4.9 3.9 6.1 4.3 1.5.5 1.1 1.3-.2 1.2zm-572 243.8c1.4-.4 3.1-1 4.7-1.5-2.2.7-4.5 1.4-6.2 1.9.4-.1.9-.3 1.5-.4zm-40.5 27.7s-.1.1-.1.2c.1-.1.1-.1.1-.2zm-24-8.7c-.2-1-.4-2-.3-3-.1 1 .2 2.1.3 3zM642 423.9c.1-.3.2-.6.2-.8-.1.2-.1.5-.2.8zm.2-1.2zm9.4 1.5zm0-2.8zm4.1 19.6c0-.1-.1-.2-.1-.3.1.1.1.3.1.5v-.2zm20.3-8.8zm-11.7 12.6zm0-84.6c1.8 1.1 6.7 4.3 12.5 8.2-5.8-3.9-10.7-7.1-12.5-8.2zm22.3 74.4c.2.2.3.3.5.3-.2 0-.4-.1-.5-.3zm.6.4zm.4-.2c.1 0 .1 0 0 0 .1 0 .1 0 0 0zm9.9-22.1c.1.1.2.1.4.2-.2 0-.4-.1-.4-.2zm.3 17.7c.2-.2.3-.8.9-1.1.1-.1.3-.1.5-.1-.9 0-1.2.9-1.4 1.2zm4.5-.6h.7-.7zm8.2-5.9c.1 0 .2 0 .3-.1-.1 0-.2 0-.3.1zm3.8 1.2c0 .2 0 .4-.1.5.1-.1.1-.3.1-.5zm-1.1-29s2-.5 3.5-.8c.2 0 .4-.1.6-.1-1.5.4-4.1.9-4.1.9zm32.5 70.5l1-.3.8-.2-1.8.5zm3.3-90.5c-.1 0-.1 0 0 0-.1 0 0 0 0 0zm5.3 42.1h.4-.4zm1.5.9c.1.1.2.3.3.4-.1-.1-.2-.3-.3-.4zm-2.3 47.3h.2c.9 0 1.8 0 2.5.1-.8-.1-1.8-.1-2.7-.1zm9.3-22.3zm-5.1-64.2l3.3-1.8 3.7-2-7 3.8zm7.6 84.8c.1 0 .1 0 0 0 .1 0 .1 0 0 0zm26.1-35.3l.1.1-.1-.1zm18 24.3l-1-2.4 1 2.5v-.1zm4.8 113.4c1.8.2 2 1.1 2 1.7.1-.6-.1-1.6-2-1.7zm7.8-81.5c0-.1 0-.1 0 0 0-.1 0-.1 0 0zm.8 22c-.5-1.3-.1-3.5-2.2-5.4-1.1-1-1.9-4.8-2.5-7.9-.4-1.9-.7-3.6-1-4.3-.1-.3-.3-.4-.4-.4-1 .4-.2 14.2 1.8 15.3 1.1.6 2.1 2.7 3 4.2.7 1.2 1.5 2.1 2.3 1.7 1.3-.5-.6-2-1-3.2zm2.1 62.8zm12.3-49.2c1.3 2.8-.8 4.3-.5 7.3.4 3 3.4 7.9 4.5 6.3.1-.2.1-.4.1-.7-.1-2-2.6-6.7-1.8-8.7.1-.4.2-.9.2-1.4.1-3.1-1.6-8.4-3-8.4-.3 0-.5.1-.6.2-.7.8 0 3 1.1 5.4zm-5 13.2zm-4.2 51.7v-.3.3zm-.3-106.7c-1.2 3.2-1.5 6.9 0 6.3 2.2-.9 5.3.6 6.7.4 1.4-.3-1.5-2-.3-2.6 1.1-.5 1.9-2 2-3.9v-.4c0-2.1 2.8-1.6 2.9-2.7.1-.5-1.1-1.1-2.7-1.5-1.7-.4-3.9-.6-5.5-.1-1.2.4-2.3 2.3-3.1 4.5zm15.7-141.3v-.6.6zm22.9-11.7c0-.1.1-.1 0 0 .1-.1 0-.1 0 0zm-143.1-75.8zm1.4-3.5zm3.7 22.9c0-.1 0-.1 0 0-.4 1 0 1.7.5 2-.5-.4-.8-1-.5-2zm10.9-7.1zm17.5-8.2v.2c.1-.1.1-.2 0-.2zm9.1 11.8l.2-.2-.2.2zm.4-.3s.1-.1 0 0c.2-.1.2-.2.2-.2l-.2.2zm1.7-11.7v.1c.1-.1 0-.1 0-.1zm6.4 31.2c0-.1 0-.3.1-.5-.1.2-.1.4-.1.5zm.2-.7c.1-.1.1-.3.2-.5-.1.2-.1.3-.2.5zm2.5-3.6l.1-.1s-.1 0-.1.1zm.6-.5c0-.1.1-.2.1-.4 0 .2 0 .3-.1.4zm5-12.3s.1 0 0 0c.1-.1.1 0 0 0zm0 19.5c.1.1.2.2.3.2.1 0 .1.1.1.1-.1-.1-.2-.2-.4-.3zm1.4-20.3l.2-.2c-.1.1-.2.1-.2.2zm7.3-10.3l-.6-.3.6.3zm-.6 20.9zm-.5 8.7s0 .1 0 0zm0 .5s0 .1 0 0c0 .1 0 .1 0 0 0 .1 0 0 0 0zm.2-30.7l.2.2c-.1-.1-.3-.2-.4-.3 0 0 .1.1.2.1zm-.8-.9c-.1-.2-.2-.4-.2-.5.1.2.2.3.2.5zm-.6-4.3c.2.2 1.4.4 2.4.6-1-.1-2.2-.3-2.4-.6zm2.9 6.8c-.1.1-.2.2-.3.4.2-.1.3-.3.3-.4zm.1-.5l-.1-.1.1.1zm0 .4c.1-.1.1-.2.1-.3 0 .1-.1.2-.1.3zm2.9-19.7c0 .1 0 .1 0 0 0 .1 0 .1 0 0 0 .1 0 .1 0 0zm.3-13.5zm12.9-9.9c.1-.2.3-.3.5-.5l-.5.5zm-23.4-86.5c-.1-.1-.3-.2-.4-.2.3.2.6.4.8.6l-.4-.4zm87.6 184.6l-1.6-.5 1.6.5zm11.9-19.8zm1.1 1.9c0 .2.1.3 0 .5.1-.2 0-.3 0-.5zm5 8.9c1-.4 1.8-1 2.6-1.6-.8.6-1.7 1.1-2.6 1.6zm32-11c-1.6-.1-.2-3.5-3.2-3.8-1.1-.1-1.6.2-1.9.7-.5.8-.2 2.2-.5 2.8-.5 1-2.7-3.4-1.3-5 1.3-1.6-.2-2.2-2-2.1-1.7.1-1.7-2.1-2.9-1.7-1.2.4-1.3-2.1-1.3-3.2s-1.8-2.7-3.2-2.7c-1.3 0-.4-2.7 2.1-1.3 2.4 1.3 1.1-1.2.6-2.3-.5-1.1 3.3-2.1 5.1-1.8 1.8.2 4.5.1 4-1.1-.5-1.2.7-4.4-.5-6.1-1.2-1.7-3.5-.5-6.4-1.2-2.8-.7-6.6 1-8.7 2.8-.2.2-.5.4-.7.5-2.2 1.5-5.7 2.4-7.3 4.5-1.8 2.3-4.6 3.8-2.1 6 2.6 2.2 1.7 3.5 1.6 5.6-.1 1.2 2.4 4.4 4.7 7.2 1.6 2 3.2 3.9 3.7 4.8 1.2 2.2-.4 6.2-2.4 8.8-.6.7-.8 1.6-.7 2.5.1 2.4 2.2 4.9 5 4.9 3.8 0 4 4.6 7.6 4.5 3.5-.1 8.3-1 8.9-2 .2-.3.2-1.1.1-2.2-.1-1.8-.3-4.3 0-5.5.5-2-.6-2.1-.9-3.3-.2-1.2-3.7.4-2.3-1 1.3-1.3 1.7-2.7-.2-2.6-2 .1-1.3-1.7-.9-3.4.5-1.7 2.3-.5 3.8 0s2.7-1 4.2-.9c1.4.2-.5-2.3-2-2.4zm5.4-.4c.1 0 .2.1.3.1-.1 0-.2-.1-.3-.1zm18.5-23.9c-1.5-.1-1.2 2.3-1.7 2-.6-.5-2.4-2.1-3.8-.1-.1.2-.2.4-.3.7-.9 2.3-.5 6.7.6 6.4 1.2-.4.1-6 1.7-6 1.6 0 1.5 3.2.5 5.9s2 3.1 5 .9c.7-.5 1-1.1 1.2-1.8.6-2.4-1.3-5.4-2.2-5.4-1.1-.2.5-2.5-1-2.6zm.7-2.4c.4 1 5.2 2.2 5.7 1.6 1.1-1.4-6.2-2.6-5.7-1.6zm27.4 45.8c-.9.2-1.6-.3-2.4-.5.7.3 1.4.7 2.4.5h.2-.2zm13.4-20.5c.3-.1.5-.2.8-.3-.2.1-.5.2-.8.3zm2.4-.2zm7.3 24.5c.1 0 .1 0 .2-.1-.1.1-.2.1-.2.1zm27.6 13.5c0 .2-.1.4-.1.6.1-.1.1-.3.1-.6zm-3.3-7.2s-.1 0 0 0c-.1-.1-.1-.1 0 0-.1-.1-.1-.1 0 0zm-2.6-.7l-.2.4c0 .1-.1.2-.1.3.2-.4.3-.7.3-.7zm-10.5-7.2c.3-.1.5-.1.7-.2-.2 0-.5.1-.7.2-.2-.2-.5-.4-.8-.5.3.1.6.3.8.5zm-8.1 0c1.2-1 2.5-2.1 3.2-2.2-.7.1-2 1.2-3.2 2.2zm3.9-12h-.2.2zm21.9-36.8c-.9-.2-7 1.3-10.4.5-3.4-.9-8.9-.1-10.6 1.6-1.7 1.7-1 7 .5 6.7 1.3-.2-.9-2 2.2-5.3s10.6-1.6 14.1-1.6c3.4.1 5.1-1.6 4.2-1.9zm4.7 23.3zm-.1-2c0 .6.1 1.2.1 1.7 0-.5-.1-1.1-.1-1.7zm30.6 70.2zm2.6 2c0 .3.1.6.3.9l-.3-.9zm12.3-1.6s0 .1 0 0c.1 0 0 0 0 0zm1.5 28.4zm1.4-2.9c.1-.1.2-.1.3-.1 0-.1-.1 0-.3.1zm16.8-28.1h-.1.1zm19.1 26.5c.2 0 .4 0 .6-.1-.2 0-.4.1-.6.1zm.8-.2c.1 0 .2-.1.3-.1.1 0 .2-.1.3-.2-.3.1-.4.2-.6.3zm.7-.4c.2-.2.5-.4.6-.6-.1.2-.3.4-.6.6zm12.9 35.7c-.2-.1-.4-.3-.5-.4.1.1.3.2.5.4zm18.4-200.5c-1.3-.4-3.1 5-5.3 8.4-3.1 4.9-9.4 6.8-11 10.5-1.7 3.7-8.5 4-7.9 5 .7 1.1 9.2-.2 9.2-2.7 0-2.6 7-3.3 10.5-6.4 3.4-3.2 5.7-14.4 4.5-14.8zm28.1 32.6c.4.1.8.2 1.1.3-.4-.1-.7-.2-1.1-.3zM1452 115c-2 .4-6.7 2.3-8.7 1-2-1.3-3.4 1.3-5.9.1-2.6-1.3 4.5-5.4 10-4.6 5.5.7 6.5 3.2 4.6 3.5zm-141.1-29.7c-5.6-.4-7.1-3.2-10-3.4-1.5-.1 1.8-4.5 2.8-2.8 1 1.7 3.7 1.8 5.6 1.2 2-.6 3.2 2 4.8 1 1.6-1 6.9.9 6.7 2.1-.1 1.2-4.2 2.3-9.9 1.9zm-26.9 7.3c3.8.6 7.6 4.6 5.4 5.1-2.2.5-11.1-.4-12.2-2-.5-.6 3-3.8 6.8-3.1zm-4.4-3c0 1.8-2.4 2.1-3.9 1.6-2.7-.9 3.9-3.4 3.9-1.6zm15.1-9.6c-2 .9 1 3.3-2.9 3.5-3.9.2-6.4-2.6-5.4-3.8 1-1.2-2.1-2.2-2.2-.7-.1 1.5 3.1 4.8.4 4.8s-5-.7-7.3.7c-2.3 1.5-2.4-1.2-3.9-.7s-5.1 2-6.1 1-1.6-1.8-3.3-2.7c-4-2 4.3-10.5 7-9.7 2.7.9 7.8 6.5 8 3.8.1-2.7 3.3-2.6 5.9-1.5 2.4 1.1 6.1 0 8.9 1.7 2.6 1.7 2.8 2.7.9 3.6zM1117 55.8c-3.7-.1-9.2 2.1-10.9 1.1-1.8-1 2.8-2.8 2.9-5.9.1-3.1 3.2-1 3.1-2.3-.1-1.3 1.5-2 1.5-3.3s4.3-.1 4.4-1.6c.1-1.5 4.8.4 2.4 2.7-2.3 2.3-1.3 3.7-.5 2.2.9-1.5 4.4-2.9 6-1.2 1.6 1.7 5.7 1.6 5.4 3.5-.4 1.9-10.7 4.9-14.3 4.8zm-11-9.5c1.1.1.7 3.1-2.8 3.1s-9.5-2.9-11.7-2.4c-2.2.5-2.8-2.6-4-2.8-1.2-.2-2.1 0-3.1-.9-1.1-1 2.8-2.3 2.8-3.7 0-1.3 10.8-3.8 11.5-2.4.7 1.3 3.1 4 3.1 1.8s8.1-.1 6.1 2.7c-2.1 2.8-3 4.5-1.9 4.6zm-8.2-14.4c-2.7.2 1.3 2.8-1.1 3.4-2.4.6-11.6 2-11.4 3.4.2 1.5-2.3 3.5-4.9 2.9-2.6-.6-2.4-2-3.7-2.4-1.6-.6.5-1.5 2.9-1.5s3.3-.6 1-1.6-2-2.9-.1-2.8c1.8.1 3.5-2 1.8-2.8-1.7-.9.4-2 4.6-2.8 4.3-.9 4.9-3.1 6-2.1 1.1 1-.2 3.8 3.1 4.3 3.3.5 4.5 1.8 1.8 2zm-25.8-3.7c-2.1-1.8 6-2.6 5.5-.7-.5 1.8-4.8 1.4-5.5.7zm-46 72.3c-1.6-.8 2.9-3.3 3.2-1.3.2 1.9-1.3 2.3-3.2 1.3zm-35.7-1.8c-1.4-.2-1-3.3 1.8-3.3s5 1 4.5 1.8c-.5.9-4.8 1.7-6.3 1.5zm-16.6-24.5c-8 1.8-22 6.6-23 8.7-1 2.1-4.2 1.1-5.5 2.6-1.3 1.5-4.3.4-3.9 1.3.4 1-.1 3.7-2.6 4-2.4.4.2 2.6-2.2 2.8-2.4.2-.7 2.2-3.7 4.3-2.9 2.1-.4 2.9-3.3 4.8-2.9 1.8-1.1 6.2 1.5 8.9s5.7 3.8 5.6 5c-.2 1.9-8.4.1-10.8 0-2.3-.1-7.1-1.3-5.3-2.9 1.8-1.6-4.3-4.4-3.3-2.3 1 2.1-.1 2.4-1.6 1.3-1.5-1.1 1.2-2.9-.7-3.1-2-.1-4.8.2-4.2-2.4.6-2.7 5-.6 5.1-2.7.1-2.1 2.7-1.1 2.4-2.4-.2-1.3-3.7-2.8-1.3-2.8 2.3 0 3.1-.9 2.9-2.1-.1-1.2 3.9 0 3.7-1.8-.2-1.8 3.4-2.2 1.1-2.3-2.3-.1-1.3-2.6.5-2.9 1.8-.4 4.2-.7 3.5-1.8-.6-1.1 2.1-1.7 1.2-2.7-.9-1 4-1.1 2.3-2.7-1.7-1.6-.2-3.9 1-2.8s3.6 0 3.6-1.2 2.9-1 3.2-2c.2-1 3.7-2.4 5.4-2.3 1.7.1 3.5-1.6 5.1-1.5 1.6.1 4-2.8 6.1-1.5 2.1 1.3 6.2.4 8.2-.7 2-1.1 4.8 0 6.7-1.6 2-1.6 9.9-4.6 12.7-2.4 3.1 2.1-2.4 5.4-10.4 7.2zm-7.1-43.5c-2.3.2-5.7.9-6.9-.4-1-1.1 3.7-2 4.9-1.8 1.2.1 1.6-1.8 4-1.3 2.6.4 2.7 3-2 3.5zM946 32.8c-1.6-1.2 3.5-2.6 3.2-3.8-.4-1.2 6.5-1 6.7.1.2 1.1 2.7 1.1 1.8 2.2-.8 1.1-8.8 3.8-11.7 1.5zm-5.6 3.6c-1.1 1.5-7.6 2-9.1.7-1.3-1.1 0-2.4 2.4-2.4s3.4-.1 3.1-1.1c-.4-1 8.4-.4 7.9 1.1-.4 1.5-3.2.3-4.3 1.7zm-.2-11c-2-.2-1.1 1.6-4 1.6s-5.1-.7-5.4-1.5c-.1-.4 6.4 0 5.6-1-.7-1 6.4-1.5 7.3-.2 1.1 1.3-1.5 1.4-3.5 1.1zm-1.9 3.9c-.4 2.6-12.1 3.7-14.4 1.3-1-1 5.4-1.7 4.4-2.6-2.1-1.9-.2-2 2.9-.6 3.2 1.5 7.4-.6 7.1 1.9zm-22.4 6.5c-1.2-.4 5.1-2.6 5.1-.6s-4 1-5.1.6zm-13.3 89.9c2.7.7 5.3 2.4 3.7 2.7-1.6.2-4.4 4.6-7.7 1.6-2.6-2.3 1.3-5.1 4-4.3zm6.7-93.7c-3.4.2-4.8 1.5-4.9 2.6-.1 1.1-3.3 0-3.3 1.2s-6.1 1.1-6.8-.4c-.7-1.4 3.1-1 3.9-2.2.9-1.2 7.3-.9 5.6-2.1-1.7-1.2 2.6-3.5 5.7-2.1 3.2 1.6 3.2 2.8-.2 3zm-17 .3c-2.8 2.6-6.4.6-6.7-.2-.6-1.4 4.3-.5 6.4-1.6 2.1-1.1 7.8-.7 7.3.5s-4.2-1.3-7 1.3zm-92.4 11.5c-2.1.1-1.8 1.4-4.7 1.2-2.8-.2-4.3-2.4-5-1.7-.6.7-9.3-.2-9.7-1.3-.5-1.1 10.1-2.1 8.6-2.9-1.5-.8-12.3 2.3-15-.5-.9-.9 1.3-.9.5-1.6-.8-.6-3-1.7-2.1-1.8.9-.1.5-1.6 1.7-1.6 1.3 0 2.8 2.9 3.1 2.2.4-.7-.8-2.4-.1-2.3.7.1 2.6 1.6 3 .8.5-.7-1-1.7-.3-1.8.7-.1 4.1 1 4.5 2.6.4 1.6 3.2-1.1 3.4.2.2 1.3 2.8 2.2 3.3 1.8.6-.4-1.9-3.2.7-4 2.7-.8 1.8 2.1 2.4 2.7.6.6 1.7.2 2.3-1.1.6-1.3 4.5-.2 6.1.6 1.7.8 7.6-.6 8.2 1.5.6 2-5.6 3.5-5.7 4.7.1 1.2-3 2.2-5.2 2.3zm-27.6-3.7c-.5 1.1-1.9 2.7-1.1 2.9.8.2 2.3-2.3 3.4-1.5 1.1.8.6 3.3 1.7 3.2 1.1-.1 3.9-.4 3.9.7s1.1 1.3 1.6.5c.6-.7 2.8.1 2.1.5-.7.4 3 .8 2.9 1.8-.1 1-.5 2.5.8 2.4 1.3-.1 3.7 1.7 2.3 2.3-1.4.6 1.6 1.4 3.2 1.2 1.7-.2 1.8.6.7 1.7-1.1 1 2.1 1.4 3.4.8 1.3-.6 2.8-.3 2.9.7.1.9-2.1.6-3.6 2.4-1.5 1.7-4.2 3.5-5.2 2.5s1.2-3.4-2.3-2.1c-3.5 1.3-5.6.9-3.9-.8 1.7-1.7 2-3.7.7-3.9-1.3-.3.2-.8-1.5-1.5-1.7-.6-2.7-3-.6-3.1 2.3-.2 1.3-1.9-.8-.9-2.1 1-3.2-.2-5 1.5-1.7 1.6-2.1 2.2-1.5 3.5.6 1.3-1.6 0-1.9 1.6-.4 1.6 1.2 2.5-1.6 3.5s-4.9 5.8-4.8 7.4c.1 1.3-2.2 1.7-2.7.8-.5-.9-3.8-1.6-3.4-2 .4-.5 3-1.2 2-1.6-1-.4-3.6.5-4-.5-.5-1-4.3-1.6-4.1-3.3.2-1.6 4.1-.1 4-.8-.1-.7.8-1.6 3.6-1.6s5.4-.6 3.8-.9c-1.7-.4-6-.1-8.3.4-2.3.5-5.4.4-3.8-1.5 1.7-1.8 5.3-.6 6.5-2.2 1.2-1.6 4.6-.8 5-2.3.4-1.5 0-2.9-1.7-1.4-1.6 1.6-4.7 1.7-3.6.4 1.1-1.3.9-2.9-.4-2.5-1.3.5-.5 1.9-2 1.8-1.6-.1-1.2 2.5-2.4 3.2-1.2.7-4.5.9-5.9-.4-1.4-1.3-4.7-2.8-4.1-4.6.5-1.7 4.1-3.7 2.4-4-1.7-.4-2.8 2.7-4.3.4-1.5-2.3-.9-4.5 0-4.1.9.4 2-1.7 3.3-1.5 1.3.3 2.2 1.3 2.9.3.7-1 2.3.2 3.5-.5 1.2-.7 3.8.2 2.4.8-1.4.6-4.3 1.2-3.5 1.3.8.1 3.1 1.4 3.1 2.5s1.6.6 1.1-.7c-.5-1.4 1.1-1.9 1.6-3.3.6-1.4 2.7.2 2.8 2.1.2 1.9 4.4 6 4.6 5.2.2-.7-1.2-5.3-2.6-6.2-1.4-.9-.3-1.7.6-1.9.8-.2.1-2.3 1-2 .9.3 1.7 3 2.2 1.9.8-1.2 5.1.3 4.6 1.4zm-26.7 10.3c1.2 1.3 3.2 3.5 2.8 3.6-1 .1-1.8-1.7-2.9-2-1.1-.3-4.2-3.2-2.6-3.7s1.6.8 2.7 2.1zm-42.8 189.8c1.2-.2 2.7 0 1.8.9-.9.9-4.4 2.4-5.7 2.4-1.3-.1-4 .4-4.6.9-.6.4-2.6-1.4-3.3-.8-.7.6-1.8 1.2-3.2.9-1.5-.2-2.2.6-3 .4-.8-.2-.9 2-1.8 1.8-1-.1-1.3-1.3-3.1-.6-1.8.7-2.5 2.4-3.1 1.7-.9-1.1 4-5.8 5.3-6.5 1.2-.7 3.2.4 4.6-.6 1.3-1 1.4-1.7-.4-1-1.8.7-2.8-.6-4.3-.6-1.6 0-1.3-1.3-2.4-.5-1.1.8-3.9-1-1.6-1.7s4-1.8 4-2.8c-.1-1-2.3-.8-2.4-1.6-.1-.8 1.7-1.7 1.2-2.6-.4-.9 1.2-1.3 1.3-.7.1.6 3.9.7 4.2-.2.3-.9-.2-2.7.4-3.7.6-1 .1-1.1-1.1-1.5-1.2-.4-1.7-1.5-.7-2.6s.3-2.7-1.1-1.2c-1.4 1.5-5.8 1.5-5.9.6-.1-.9 2.1-2.9 1.5-4.2-.7-1.3.5-2.8-.3-2.9-.8-.1-.2 2.9-2.4 3.2-2.2.4-.8-3-1.7-2.5-.9.5-2.9 2.2-2.9 1 0-1.2 3.6-1.3 3.4-2.6-.1-1.2-2.5-.5-2.2-2.2.3-1.7 3.1-2.9 1.5-3.1-1.6-.2-4.2-1.5-3-2.4 1.2-1 1.9.4 2.5.9.6.6 1.4-.2 1-1.2-.4-1 1.9-1.6 1.8-2.8-.1-1.2.7-3.9 2.6-3.5 1.9.4 3.7.6 4.5-.1.8-.6.9-2.4 1.8-1.7.9.8-.7 1.6-.6 2.4.1.9-2.1 3-3.1 3.4-1 .4.2 2 1.4 1.3 1.2-.6 7.6-.7 7.6.4 0 1-1.7 6.2-3.2 7.2-1.5 1-2.4 2.8-1.5 2.7.9-.1 2.7-.7 3.7.6 1 1.3 2.4.5 2.8 2.1.4 1.6.7 4.5 2.7 5 2.1.5 3.3 4.4 3.1 5-.2.6.7 2.1 1.3 2.3.7.1-.6 1.2.1 2.3.7 1.1 1.6 1.2 2 .2.4-1 4.5.3 4.3 2.1-.1 1.8-2.1 2.8-3.4 4-1.3 1.5-1.6 2.9-.4 2.7zm-8.6-54.9c1.6-.4.4 3.5-.7 4.6-.5.4-.9-4.2.7-4.6zm-24.4 17.8c-1.2 0 2-4.5 2.8-3.7.8.9-1.1 3.7-2.8 3.7zm3.3 15.6c1.7 1.6 3.5 3.4 2.3 4.6-1 1-2.9 1.2-3.2 2-.1.2-.1.4.1.6.7 1.5 1.9 8.6 0 9.6s-3-.9-5.1 1c-2.1 2-5.6 2.9-7.2 2.9-2.1 0-4.6-2.2-4.1-3.3.5-1.1 2.8-1 2.8-2.7 0-1.7 2.9-2 1.1-3.5-1.8-1.5-3-1.4-1.9-2.9s-2-2.4-.5-3.1c1.5-.7 3 .9 4.4-.1 1.4-1 3.4-.7 3.4-1.7-.1-1-2-.4-2-2 .1-1.5 2.4-1.5 4.2-.9.2.1.3.1.5.1 1.7.2 3.7-2.1 5.2-.6zM639.6 27c-2.6.1-1.2 1.8-5.4 2.3-4.2.5-3.2 1.7-9.1 1.8-5.9.1-5.9 1.8-2 1.3 3.9-.5 9.7.6 7.6 1.8-2.1 1.2-7.9 1.5-10.4 1.5-2.4 0-7 2.2-5.6 3.4 1.3 1.2 4.2-1.8 6.8-2.2 2.7-.4 5.6 3.3 2.8 3.3s-7.8.7-6.9 4.2c1 3.4-7.6 3.5-7.3 5.6.2 2.1-.2 6.2-2.6 7.7-2.3 1.5 2.1 2.3 3.3-.2 1.2-2.6 9.2.6 8.3 1.8-.9 1.2-6-1.3-5.6 1.2.4 2.6 5.4 2.3 6.8 1.5 1.5-.9 5.1 3.9 2.6 4.4-2.6.5-8.4-2.1-11.3 0-2.8 2.1-4.4-.4-5.6.7-1.2 1.1 3.1 2.1 3.1 3.2s5.1 1.8 7.3 1.8 5 6 2 7.6c-3.1 1.6-5.7-1-7.2 1.2s5.5 5.4 7.5 4.6c2-.7 1.3 2.9-1.1 2.8-2.4-.1-10.5-.7-9.2.9 1.3 1.6 7.8 3.3 5.5 5.1-2.3 1.8-4.3.9-7 1.7-2.7.9-7.9-3.9-9.2-2.7-1.2 1.2 2.6 2.9-1.6 3.4s-1.2 4.4 1.8 2.7c3.1-1.7 9.9-1.6 9.9.1 0 1.7-.7 5.6-3.9 4.3-3.2-1.3-6.7-2.7-6.1-.7.6 2 12.1 7.7 10.8 9.5-1.3 1.8 1.8 4.5-1.5 5.5s-7.1-.2-9-3.1c-2-2.8-6.5-4.4-5.9-2 .6 2.4 1.6 3.5-.7 3.9-2.3.4-4 4.3-1.2 2.7 2.8-1.6 6.7.5 9.2 1.1 2.4.6 5.7.5 7.3-.4 1.6-.9 1 .5-1.6 2.1s-8.8 3.7-11.7 6.1c-2.9 2.4-11.5 3.9-14.8 4-3.3.1-2.7 1.3-6.1 1.3-3.4 0-1 2.4-4 1-3.1-1.5-4.5-.6-3.9 1.6.6 2.2-4.2 1.8-5.1 5.1-1 3.3-5 6.7-9.2 7.9-4.2 1.2-6.5.4-7.7 1.6-1.2 1.2-1.7-.5-.9-2.2.9-1.7-2.6-1.8-2.1.1.5 2-.9 3.3-3.4 3.5-2.6.2-5 1-3.9 2.4 1.1 1.5-.4 2.4-2.3 1.1-2-1.3-2.6.9-.6 1.6 2 .7 2.3 2.8.9 3.1-1.5.2-2.3 1-1.6 2 .7 1 .9 2.7-.1 2.9-1 .2-.4 2.8-1.7 3.2-1.3.4-.4 3.2-3.2 2.8-2.8-.4-3.3 1.6-2.1 2.1 1.2.5 1.6 6.1.4 6.5-1.2.4-.7 5.7-2.1 6.5-1.3.7-1.6 3.4-3.1 3.2-1.5-.2-6.7-1.5-7.2-2.8-.5-1.3-3.2-2.3-4.9-2.1-1.7.2-1.8-1.8-4-1.2-2.2.6-4-1.5-4.6-3.1-.6-1.6-3.8-3.7-4.6-4.9-.9-1.2-2.7-2.8-2-5 .7-2.2-3.1-2-3.2-3.5-.1-1.6-2.3-1.5-2.1-4.2.2-2.7-1.8-.1-2.4-2.2-.6-2.1.9-6.2-.7-7.1-1.6-.9-6-4.2-5.7-6 .2-1.8 4.8-2.6 3.2-3.7-1.6-1.1-4.4-1-4-3.5.4-2.6 3.4-4 3.4-6.1 0-2.1 1.3-2.7 3.3-2.9 2-.2 5 1.2 5.3-.2.2-1.5-.4-4.5.9-5.7 1.2-1.2-1.6-5-3.7-4.3-2.1.7-11.1-4.4-11.1-5.1 0-.7 8.2-1.2 11 .9 2.8 2.1 4.8.9 1.7-1.7-3.1-2.6-6.4-2.2-8-3.8-1.6-1.6 1.5-4.2-1.5-4.2-2.9 0-2.3 3.3-6.2 2.7-3.9-.6-.6-3.9-2-5.6-1.3-1.7 4.3-3.2 2.1-5.1-2.2-2-2.7-3.3-2.1-4.3.6-1-3.1-2.4-2.9-4.5.1-2.1-.5-5.3-3.8-6.7-3.3-1.5-6.1-3.2-5.7-5.5.4-2.3-3.7-2.7-6.6-4.3-2.9-1.6-11.5-2.3-13.3-3.5-1.8-1.2-2.7 1.6-5 1-2.3-.6-4.6 2.1-5.5 1-.9-1.1-5.9-1.3-4.2.5 1.7 1.8-3.5.9-6.7-.7s-5-1.3-4.9-2.7c.1-1.3 3.1-2.7-.1-3.3-3.2-.6-7.1-.2-7.5-2-.4-1.7 7.6-.4 10.2-2 2.6-1.6 11 1.5 11.1-.7.1-2.2-2.7-3.9-6.5-2.4s-9.3 1.3-11.3-.9-4.7-1.5-6.9-2c-1.7-.4-2.4-1.7-2.4-3.1 0-3.5 15.5-3.9 15.8-6.1.2-2.2 10.3-.5 13-2.3 2.7-1.8 5.6-6.4 3.4-7.6-2.2-1.2-9.2.5-10.2-1.6s15.4-9.9 18.7-10.2c3.3-.2 6.9 2.7 8 1.2 1.1-1.5.5-5-1.2-6.2-1.7-1.2 6.7-3.1 9.3-1.2 2.6 1.8 5.6.9 2.7-.9-2.9-1.7 1.6-2.8 5-2.7 3.4.1 10-2.9 12.6-2 2.6 1 3.5 6.4 2.2 8.4-1.3 2.1 3.4.2 3.4-2.8 0-3.1-2.1-5.3.4-5.3 2.4 0 6.7 4.8 7.6 4.2.9-.6 5.7 1.3 5.7-.2 0-1.6-7.2-4.3-5-5.7 1.8-1.2 9.2.4 11.1 2.4 2 2.1 6 1.3 9.2 3.4 3.2 2.1 8.2 3.8 5.4 1-2.8-2.8-8.7-4.4-10.5-6.6-1.8-2.2 7.1-1 7.3-2.2.2-1.2-7-3.3-4.2-3.8s12.5 0 13.7-1.6c1.2-1.6 9.4 1.5 11.3 0 1.6-1.3 6.7-.5 6.4 1.3-.4 1.8 5.1.8 2.9-1.6-1.2-1.3 2-2.1 4-2 2.1.1 3.5-.7 5.9-1 2.3-.2 12.4-.1 17.2-.5 4.9-.4 10.6.2 12.6 1.5 2 1.2 11.1.4 11.6 1.5s5.3 1.5 5 2.9c-.2 1.5 2.7 1.8 5.6 1.7 2.9-.1 8.8 1.7 7.7 3.1-1.1 1.3-7.3 1.5-11.5 3.2-4.2 1.7-13.9.7-19.4 1.3-5.4.6-16 2.7-15.9 4.2.1 1.5 9.2-1.5 14.3-2.2 5.1-.7 16.6-.6 16.8.5.1 1.1-9.1 3.8-8.6 5.4.5 1.6 11-3.7 13.2-4.2 2.2-.5 1.3-2.9 5.3-3.3 3.9-.4 5.5 3.1 2.6 6s-8.7 8.8-6.8 8.6c1.8-.2 4-3.3 7-4.5 2.9-1.2 5.6-4.2 8.1-5.4 2.4-1.2 1.2 2.4 3.7 1.3 2.4-1.1 8.2 2.7 8.4-.5.2-3.2 3.9-3.9 8.4-3.9s14.2 2.7 14.2 4c-.3 1.8-7 4.6-9.6 4.7zm-212.4-6.2c-2.2-.6-11.6 1.5-9.7 2.2 1.8.7 12.7-1.6 12.3.7-.4 2.4-6.2 1.7-13.8 5.9-7.5 4.2-11.3 6.8-13 6.8-2.4 0 0 2.9-3.5 3.7-3.5.7-6.8-1.7-8.1-.6-1.3 1.1 1.8 4.2-5.1 3.9-7-.4-13 2.4-9.4 2.4 3.7 0 11.2-.7 11 2.4-.2 3.1-5 8.4-8.3 8.4-3.3 0-7.7-.9-7.7.6s2.8 3.1-.7 4c-3.5.9-7.7 1.3-10.8.4-3.1-.9-5.3 3.1-.2 2.4 5.1-.7 8.2-.2 8.6 1.7.4 1.5 3.7-2 5 0 1.3 2 .7 3.7-1.8 3.7-2.6 0-2.6 0-4.6 1.5-2 1.5-5 2-6.6.6-1.7-1.5-2.6-2-6.2-2-3.7 0-7.3-.7-8.4.9-1.1 1.6-5.7 1.1-7.3-.4-1.7-1.5-11 .9-13.6-1.5-2.3-2.1 5.1-4.2 8.4-4.2 3.3 0 3.1-2.2.2-2.6-2.9-.4-4.2-3.7.6-4 4.8-.4 6.6 1.7 7.2 3.7.6 2 5.5 2.8 5.5.6 0-2.2-6.8-3.7-4.8-5.5 2-1.8 5-5 .9-2.6-4 2.4-10.1 2.8-9.9-.2.2-2.9 6.6-5.5 10.6-4.8 4 .7 11.2 4 11.2 2.2 0-1.8-5.5-.9-8.1-5-2.6-4-5.1-4.9-7.7-4.9-2.6 0-3.7-6.4-.2-6.6 3.5-.2 10.1-.2 13 2.9 2.9 3.1 10.1 4.4 7 2-3.1-2.4-8.3-4.6-5.1-5.5 3.1-.9 10.1-.6 13.6-2.9 3.5-2.4.2-5.7 0-3.5s-11 4.8-13.2 4.2c-2.2-.6-3.9-1.3-4.4.5-.5 1.8-11.9.6-11.7-.9.2-1.5 1.1-4.2-1.3-2-2.4 2.2-10.3 1.5-10.5-.4-.2-1.8-3.9-.7-3.9-2.6 0-1.8 4.4-2.9 1.3-2.8-3.1.2-3.9-.6-1.7-1.6 2.2-1.1.2-2.2-2.4-.6s-7 .6-3.1-.9 7.9-1.8 8.8-.7 1.5-.9 3.3-2.6c1.8-1.7 6.4 0 6.4.9s5-.4 2.8-2 6.1-.7 4-2.4c-2-1.7 5-1.1 7.2.7s5 .7 5-1.3 7.7.4 6.8-1.5c-.9-1.8.7-2.6 2.6-2 1.8.5 3.5-.6 2.2-1.1-1.3-.6 3.3-1.5 7.5.4 4.2 1.8 2.6-1.8 6.4-1.3 3.9.6 8.1-1.5 10.3.4 2.2 1.8 3.9 1.8 3.1.2-.7-1.7 5-3.5 7.2-1.3s5-2.2 7.3-.6C409.9 8 424 7.3 422 8s-6.4 4.4-1.7 2.6c4.8-1.8 9.2-2.4 9.4-1.3.2 1.1 5-.7 4.8 1.3-.2 2 3.3 3.1 6.4 2.6 3.1-.6 6.4.4-1.1 4s-10.4 4.2-12.6 3.6zM326.6 33.3c.6 2 4.4 4 3.9 1.8-.5-2.2 4.8-.7 2.9.7-1.8 1.5 3.3 2 1.8 3.9-1.5 1.8.7 3.1 4 2.8 3.3-.4 4.2.9 4 1.8-.3 1.3-4.2 1.3-7 2.4-2.8 1.1-2.6 4.6-4.2 3.5-1.7-1.1-1.8 5.5-4.2 4.6-2.4-.9-5-1.3-5.9.2-.9 1.5-10.5-1.7-9.7-2.8.7-1.1-4.6-3.1-5.9-4.4-1.3-1.3 8.1-1.5 7.3-3.5-.7-2-9.2.9-12.1-.4-2.9-1.3-1.3-3-4-4.4-2.9-1.5-1.8-3.1 1.5-2.2 3.3.9 6.2-1.5 2.2-2-4-.6-3.9-4.6-.7-4.6 3.1 0 7.3-.6 3.5-2-3.9-1.5.4-1.8 2.8-1.6 2.4.2 2.6-1.3-.4-1.8-2.9-.6 2.2-3.5 7.2.9s12.5 5.1 13 7.1zm-27.9 18.4c.4-.7 6.1-.5 4.4 1.6-1.7 2.2 2 2.2-.4 3.1-2.4.9-4.6 1.3-7.3 1.3-2.8 0-6.4-7.2-5.3-8.8 1.1-1.6 8.3 3.5 8.6 2.8zm-6.2 23.1c-1.5 3.1 2.2 2.9.4 4.2-1.8 1.3-.4 3.1-3.5 3.3-3.1.2-7.2 1.5-8.6-.4-1.5-1.8 3.1-4.6.9-5.1-2.2-.6-7 1.8-9.9.2-2.9-1.7-4.8-2.2-6.6-4.6-1.3-1.7-2.9-5.3.5-5.1 3.5.2 4.6 3.3 6.8 6.2 2.2 2.9 4.2 1.1 2.6-.2-1.7-1.3-2-5.3 1.5-2.9s7.3 3.5 4.8 1.3c-2.6-2.2-4.6-6.1-1.3-4.8 3.3 1.3 7.5 3.5 7.7 1.7.1-1.9 6.2 3 4.7 6.2zm-10.3-37.1c-2.2-1.9 6.8-.2 5.5 2-1.2 2.2-4.2-.9-5.5-2zm1.7 14.1c-.9 1.8 3.7 2.2 1.7 4.6-2 2.4-4.8 1.5-7.7-.9-2.9-2.4-6.6-3.3-11-2-4.4 1.3-5.1-.9-5.3-1.5-.5-1.4 5.9.5 6.6-1.1.7-1.7-3.3-4-5.5-2.6-2.2 1.5-5.1-3.5-2.8-4.4 2.4-.9 11.9-.7 11.9 1.6 0 2.4 1.1 1.1 2.8.4 1.7-.7 2.4 2.9 4.4 2.9 2 .1 5.8 1.2 4.9 3zm-20 12c-1.6 1.9-6.6-2.2-6.2-5 .3-2.7 7.7 3.1 6.2 5zM256 82.1c-3.5.7-7.3-.9-9.4.5-2 1.5-3.9-1.6-5.9.4-2 2-10.6 5.5-14.7 4.6-4-.9-5-3.5.2-3.9 5.1-.4 11-3.5 6.1-3.3-5 .2-8.8 2.2-7.9-.6.9-2.8-1.5-.7-3.3 1.3-1.8 2-3.3 1.5-5.7.5-2.4-.9-4.8-.7-5.3-1.5-.9-1.1 5.1-1.6 7.3-2.4 2.2-.7-1.3-.7-4.2 0-2.9.7-1.1-2.9 3.1-2.8 4.2.2 3.3-.7.4-.7s-3.1-2.6-.6-2.8c2.6-.2 1.7-2.8 4.4-2.6 2.8.2 1.7 3.1 4.4 2.4 2.8-.7 9.4 2.6 9.7 4.4.4 1.8 8.8 2.8 9.5 1.6.7-1.1-4.8-2.4-3.1-3.1 1.7-.7 2.8-2.4-.4-2.8-3.1-.4 2-4.2 4.4-4.6 2.4-.4 1.3 2.8 2.9 4.4 1.7 1.7 2.8 4.2 4.8 3.8 2-.4 2-2.8 4.6-1.6 2.7 1.5 2.2 8.1-1.3 8.8zm-16.7-22.9c2 0-1.7 4-5.9 3.7-4.2-.4-5.5-1.5-5.5-3.7 0-2.8 6.6-2.8 10.5-3.3 3.9-.6 5 1.3 2.6 1.6-2.4.4-3.7 1.7-1.7 1.7zm-2.4-5.7c-1.3-1.1-3.1 1.3-5 .5-1.8-.7-3.5.8-5-.4-2.4-1.8 6.1-2.2 7.9-3.3 1.8-1.1 9-.7 9 2.2.1 3-5.6 2.1-6.9 1zm-16.7 3.8c-.6-.7 6.4-1.1 5.5 1.1-.9 2.2-4.2.6-5.5-1.1zm-4.9 7.6c.9 1.5-.2 1.8 0 3.1s-3.1.6-3.3 1.6c-.2 1.1-2.5 3.3-3.9.9-.9-1.7.7-4-1.3-3.7-2 .4-2 2.6-2.4 3.8-.4 1.3-.9 3.1-2.8 1.8-1.8-1.3-1.5 3.1-3.5 3.1-2.4 0-2-4.2-2.9-3.3-.9.9-1.3 2.7-3.3 2-1.1-.4-1.5-.2-2.9.6-1.5.7-.2-1.8-1.5-2.4-1.3-.5 2.8-3.1 5.5-2.9 2.8.2 2.9-2.4 5.9-3.9 2.9-1.5 5.5-4.6 7.5-3.8 2 .7 5.5 1.6 5.5.5s.7-3.3 2.6-1.7c1.8 1.7 4.4.7 3.3 1.8-1.1 1.4-3.4 1-2.5 2.5zm-12.5 12.8c-1.6-.2 6.2-5.9 6.4-4.2.2 1.6-3.1 4.6-6.4 4.2zm-9.4 8.2c.7.9 6.2 3.3 8.3 2.4 2-.9 0 2.6 2.6.9 2.6-1.6 5.1-1.1 8.4.9 3.3 2 6.6 3.5 5.1 4.6-1.5 1.1-10.1 4.8-13.2 5.5-3.1.7-1.1 3.5-3.3 4-2.2.6-3.9 1.5-3.9 4 0 2.6-1.8 3.3-4 3.1-2.2-.2-1.7 1.1-4 1.1-2.4 0-1.3 1.8-2.8 1.8-2.2 0-2.6-5.9-5.9-6.6-3.3-.7-7.7-.6-5.1-3.5 2.6-2.9 4.8-5.3 3.7-6.2-1.1-.9 4.6-5 2.9-6.2-1.7-1.3-4.2-3.9-1.8-3.9 2.4.2 12.3-2.8 13-1.9zm186.3 47.9c2-.2 4.4 0 5.3 1.3 1.2 1.7 1.7 5.1-.5 5.5-2.2.4-6.6 2.8-8.4-.4-2-3.1 1.5-6.2 3.6-6.4zm-13.6 45.9c-2 .3-2.8-4.4.5-4.6 3.3-.2.8 4.4-.5 4.6zm-9.2-8.7c.4 1.5-4 6.4-7 4.6-3.5-2.2 6.6-6 7-4.6zm-17.2-15.9c.2-3.3 4.6-4.9 4.6-2.7s3.1 2.7 5.1 3.9c2 1.1 8.4 2.7 8.1 4.8-.4 2 6.1 2.8 5.7 4.6-.4 1.8-5.9 1.6-8.4-.2-2.6-1.8-4.4-1.3-5.3.2-.9 1.5-4.8 4-7 3.8-2.8-.2 0-3.3-2.2-3.3s-4.6 1.8-5.1.2c-.6-1.6 4.4-2.4 3.5-5.5-1.1-3.2.8-2.5 1-5.8zm30-61.8c2.8-.6 10.5 3.1 10.5 5.1 0 2.1-7.3 0-9.9 1.6-2.6 1.6-6.1.7-6.2-2-.2-2.8-3.7-2.8-2.6-5.1 1.1-2.4 5.5.9 8.2.4zm-63.4-14.9c3.7 2.8 5.3 6.8 2 7-3.3.2-10.8-1.6-12.5-2.9-1.4-1.2 6.8-6.8 10.5-4.1zm-43.1.9c1.1-2.6 5.1.6 3.9 2-1.4 1.6-5 .6-3.9-2zm7.8 37.8c2.2 1.5 7.5 2.7 7.3 5.5-.2 2.7-4.8-1.1-5.9.2-1.1 1.3-4.4 1.8-4 2.8.4.9 1.7 2 3.1.2 1.5-1.8 5.7 2.2 2.8 3.7-2.9 1.5-10.7 2.2-13-.2-.9-.9-5-.7-5.3-1.8-.4-1.1-1.7-2.4-3.1-.2-1.5 2.2-2.9 2.7-6.1 2.6-3.1-.2-6.1 2.9-12.5 2.7-6.4-.2-9.2-.9-9-4 .2-3.1-4.8.2-9.5-2-4.8-2.2-5.3-2.2-5.7-3.8-.4-1.5 7.5-2.9 12.1-2.8 4.6.2 10.6.6 10.6-.7 0-1.3-9-2.9-14.1-2-5.1.9-12.1-.4-12.1-2.6s12.7-2.9 10.8-4.2c-1.8-1.3-8.4 1.7-9.7 1.3-1.4-.4.4-2-1.7-2-2 0-4.2-1.7-2-3.5s2-2.7 1.3-2.9c-.7-.2 1.8-2.4 7.5-4.4 5.7-2 9.2-4.4 10.5-2.4 1.3 2 2.8 4-.7 4.8-3.5.7 2 2.2 3.1 1.3 1.1-.9-.9-3.5 2.8-3.8 3.7-.4 7 1.5 6.6 3.1-.4 1.7-.7 2.8 1.3 1.1 2-1.6 4.2 1.7 4.8-.4.6-2-3.5-2-3.1-3.5.4-1.5 6.2.9 7.7 2.9s1.7 7.5 3.1 7.2c1.5-.4 3.7-.4 2.6-2.2-1.1-1.8-4-8.3-2.8-10.1 1.3-1.8 2.9.9 4.4 0 1.5-.9 5.7 3.3 5.7 2.2 0-1.1-4.6-3.7-5.1-4.4-.6-.7 4.8-3.1 8.1-1.8s1.3 4-.6 5.9c-1.8 1.8-.9 7.3 1.7 9.4 2.6 2-1.8 3.3 1.7 5.9 3.3 2.2 4.2 1.5 6.4 2.9zM297.6 99c-.7 2.7-.9 10.3-5.5 10.1-4.6-.2-3.3 4.8-7.3 2s-3.5-5.5-8.4-7c-5-1.5-6.4-5.5-3.1-6.1 3.3-.6 4.8 5.5 8.3.7 3.5-4.8-2.6-2-4.6-3.7-2.5-2.1 4.6-5.1 7.2-3.3 2.6 1.8 5.1.4 2.4-.7-2.8-1.1 6.6-3.1 5.3-1.3-1.3 1.8 4.2 1.5 2.9 3.9-1.3 2.4-6.6 2.6-5.3 4.4 1.3 1.8 4.8-.4 5.1 2 .4 2.4 1.7.4.6-1.6-1.2-2 3.2-2.2 2.4.6zm.6-38.2c-2.2-1.6 11.7-3.3 12.1-2.2.4 1.1-8.4 5-12.1 2.2zm25.9-.7c3.3 1.6-1.1 4.2-4 3.1-3.5-1.3.7-4.8 4-3.1zm.9 15.4c5 .2 4 3.5 6.8 2s8.3 1.5 11.7-.6c3.5-2 23.1-.4 23.3 1.7.2 2-1.1 6.1-3.7 6.6-2.6.6-8.4.6-11-.9-2.6-1.5-.4 2.4-9.2 2.2-8.8-.2-12.9-.5-13.8-2.6-.5-1.3-1.3-.2-2.9 1.3-1.7 1.5-4.8.6-6.8-.9s-3.5 1.1-4.8-2.6c-1.3-3.7 1.5-4.4-.2-6.4s-4.4-6.1-5.5-4.2c-1.1 1.8-11.7-2-13-3.9-1.8-2.6 7.2-2.9 10.5-1.5 3.3 1.5 5.3 3.3 8.8 2.6 3.5-.7 11.9 2.2 11 3.3-.9 1.1-6.2 3.7-1.2 3.9zm95.2 58.5c2.4.2 5.5 3.1 7.3 2.6 1.8-.6 7.3 2.6 7.3 3.8 0 1.3.5 3.3 3.5 3.1 2.9-.2 7 2 4.8 2.9-2.2.9-5.5 3.3-5.3 5.3.2 2-3.7.4-4.2 2.4s-.9 4-4.4 1.1c-3.5-2.9-3.9-5.7-6.1-5.9-2.2-.2-4-4-5.9-2-1.8 2 1.3 3.5-1.1 4.6-2.4 1.1 4.2 6.2 6.8 6.2 2.6 0 4.2 3.3 4.2 5.7 0 2.4 4.8 1.5 2.2 4.8-2.6 3.3-7.7 2-11.2-.7-3.5-2.7-9-1.8-6.2-1.1s12.3 9.2 10.8 11c-1.3 1.6-10.6-2.8-12.8-4.9-2.2-2.2-8.1-1.1-9.9-3.1-1.8-2 .5-5-2.4-5.3-2.9-.4-2.4-3.7-4.8-4.2-2.4-.6-5.9-1.5-6.2.4-.4 1.8-.7.9-4 .7-3.3-.2-7.3 1.6-9.2-.4-1.8-2 .4-5.1 2.4-5.1s.5-2.8 5.5-1.1c5 1.6 10.3-.2 9.7-2-.6-1.8-4.2-5 1.1-7 5.3-2 11.2 2.4 10.5 3.9-.7 1.5 7.9-1.3 6.1-2.9-1.8-1.6-4-4.4-6.4-3.1-2.4 1.3-6.6 1.7-6.8.6-.2-1.1 2.2-4 0-7.2-2.2-3.1-4-5-6.2-4-1.7.7-1.7-4.2-3.9-4-2.2.2-4.8 3.1-6.4 1.8-1.7-1.3 4.2-2 4-3.5-.2-1.5-6.1-2.9-6.2-4.2-.2-1.3-1.7-.6-2.2-2-.6-1.7-3.3-2.2-5-3.1-1.7-.9-2.2 1.5-.9 2 1.3.6 2.6 2.4.5 2.6-2 .2-8.8-2.2-9.4-1.3-.6.9-2.6 2-4.2 1.8-1.7-.2-5.7-1.5-9.2-1.6-3.5-.2-7 .4-8.3-1.3-1.3-1.6-1.3-1.6-4.2-.9-2.9.7-7.9-2.4-8.1-4-.2-1.7 3.9-.9 6.2-.6 2.4.4 4-.9.9-1.8s-8.4-.2-8.8-1.6c-.4-1.5-2.2-8.8 3.9-14.3s16.3-5.5 16.3-4-1.8 1.1-4.2 3.7c-2.4 2.6-3.5 4.4-2.2 5.9 1.3 1.5 0 3.3.9 5.3s7.2 5.1 7 2.8c-.2-2.4-2.8-1.6-4.4-3.1-1.7-1.5 3.3-2.9 2.2-3.8-1.1-.9-3.9-3.5-1.3-6.1 2.6-2.6 7.3-1.8 8.8-3.5 1.5-1.6 7-2.8 8.1 0 1.1 2.8 2.2 3.3 2.9 5 .7 1.6-1.6 7-.2 7 1.5 0 6.4-4.2 6.8-2.2.4 2 2.9 2.8 2.6.9-.4-1.8 2.6-3.5 4.6-3.5 2 0 9.5.7 8.8 3.5-.7 2.7 5.1 1.3 5.1 2.9 0 1.6 3.9 5.9 4.8 3.9.9-2 5.7-1.8 6.2-.2s-1.7 3.1-3.5 3.3c-1.8.2 0 2.4 1.5 1.3 1.5-1.1 5.3-2.6 5.3-1.1s.7 2.7 2.9 2c2.2-.7 7.3.7 6.4 2-.9 1.3-2 3.3-.7 3.3s1.7-2.2 2.9-1.5c1.3.7 3.3 2.6 2.2 3.5-1.1.9-2.6.4-2.4 1.8.2 1.5 5.7.4 4.8 2.4-.9 2-5.3-1.3-5.7 1.3-.2 2.1 3.3 3.9 5.7 4.1zm10.1 115c-.3-1.3 11.7 1.8 11.4 3.9-.4 1.9-11-2.4-11.4-3.9zM380 400.3c-.7 1.7-7.7-.2-8.4-1.5-.9-1.6 9.2-.2 8.4 1.5zm.9-14.1c2.8 0 8.4 3.7 7.7 4.6-.7.9-11.4 1.1-13.4.4-2-.7 2-2.4-2-3.3-4-.9-4.6-4.4-8.8-4.6-4.2-.2-6.8-.7-7-1.6-.2-.9-2-3.1-4-1.7-2 1.5-6.1 4.8-7.2 3.3-.8-1 6.4-7 14.7-5.1 8.3 1.7 17.3 8 20 8zm-5.8-11.4c-.3.5-1.6-.7-1.7-1.7 0-1-1.4-1.1-1.4-2.8 0-1.7.7-2.6 1.5-1.2.8 1.4.3 2.4.4 3.1.2.8 1.7 1.7 1.2 2.6zm18.1 16.5c1.3-.9 4.2.6 6.6 1.2.9.2 1.7.3 2.3.1 2.2-.7 11 2 11 4.6 0 2.6-5.3.6-8.6 1.7s-3.7 2.6-5.1 1.8c-.1 0-.2-.1-.3-.2-1.4-.7-3.2-1.6-5.7-.8-2.8.9-5.7-.4-5.3-1.3.7-1.8 8.1.2 8.1-1.5-.2-1.6-4.8-4.3-3-5.6zm25.5 7.9c-1.7-2.6 7.5-1.8 6.8 0-.4 1-5.1 2.5-6.8 0zm25.4 32c1 .8 1.1 2.1.2 2.4-.8.4-2.7.8-3.1.4-.5-.5.8-1.5-.1-1.9-.9-.5 2.1-1.7 3-.9zm26.2-307c-1.6-1.7.4-2.8.6-3.5.6-1.8 6.8-.9 8.1 1.5 1.2 2.3 3.4 1.1 3.3 3.1-.1 2-5.6 3.4-7.5 1.7-1.8-1.8-2.9-1.1-4.5-2.8zm6.5 135.7c.7-1.3 2.9 1.7 1.8 3.7-1.1 2-5.9.7-5.1-.5.7-1.2-1.1-2-2.6-1.2-1.5.7-3.4 2.8-3.5 1.5-.1-1.3 2.9-3.2 1-2.9-2 .2-2-2.3-3.8-1-1.8 1.3-3.7 1.2-5.9 1-2.2-.2-4.8 1-6.4.1-2.3-1.3 2.6-4 1.2-5-1.3-1 .6-2.6 2.3-2.4 1.7.1 1.8-2.1 1.8-3.9 0-1.8 4.9-8.6 6.7-9.3 1.8-.7 3.7.4 2 1.3-1.7 1-1.1 2.7-2.9 4.6-1.8 2-.7 4.4-.4 2.9.4-1.5 4-1 3.2-.1-.9.9 1.5 1.2 1.8 2.4.4 1.2 3.7 2.1 3.7.7 0-1.3 4.6.1 3.3.9-1.3.7-1.7 4.8-.2 4 1.5-.7 3.3-.2 1.7 1-1.5 1.2-.4 3.6.3 2.2zM179.9 120.7c1.5.2.4 2.7 1.4 3.2.7.4-2.2 2.7-.2 2.7s4 .1 4.8-1.7c.7-1.8 6.8-2.4 9.4-.4 2.6 2 5.9 2.7 8.1 2.8 2.2.1 2.7 1.3 6.1 1.9 3.4.6 6.1 1.6 6.1.5-.1-1 4.6 0 6.7 1.6 2.1 1.6 2.9 3.5 1.6 3.1-1.4-.4-6 1.9-4.7 3.2 1.3 1.3 8.3 1.5 12.2.8 3.9-.6 5.9-.4 7.6-1.3 1.7-.9 2.4-.1 3.7.9 1.3 1 2.9-.3 2.8.9-.2 1.2.7.1 2.1 1.2 1.4 1.1 2.2 2.8.5 3.4-1.7.6 2.6 2.7 2.6 1.1 0-1.7 3.3.3 1-3.1s-2.8-5.3-.5-5.7c2.4-.4 7.9-2.5 6.8-3.6-1.1-1.1-2.9 1.9-5.5 1.6-2.6-.4-2.4 1.3-3.9 1.3-1 0-2.8.3-1.8-1.7.9-2 4.3-1.6 6.1-2.7 1.7-1.1 6.5-1.5 6.8-.3.3 1.2-.3 3.2 2.1 3.3 2.4.1 1.8 1.8 3.7 1.8 1.8 0 3.3-.2 4.4 1 1.1 1.2 3.9 2.1 6.5 1.6 2.6-.6 6.1-1.2 8.1-1 1.9.2 3.9 1.2 3.9.1-.1-1.1 1.2-1.6.3-2.7-.9-1.1.4-1.7 1.7-1.1 1.3.6.7-1.1 1.9-1.1s-.6-2.3-3.1-2.4c-2.5-.1-4.7-.9-3.7-2.1 1-1.2 3.6.7 4.2-2.8.6-3.6 3.3-2.7 4.8-1.1s2.8 1.5 4.6 1c1.8-.5 3.7 1.2 2.5 1.5-1.2.3-3.4-.6-3.4.6 0 1.3 2 .7 3.3.3 1.3-.5 3.9 2.2 2.3 3.6s-2.9.4-4.8.4c-1.8 0 .3 1.9-2.2 1.6-2.5-.3-3.9-.8-3 .5.8 1.3 3.6 1.6 4.8 1.4 1.2-.2.5 1.6-.6 3.2-1 1.6.2 2.8 2.2 3.4 2 .5 2.9 0 2.2-1.6-.7-1.6-1.7-4.4 0-4 1.7.4 2.8.1 4-1.6 1.2-1.7 2.8-.7 2.8-2.5.1-1.7-.7-4.3-1.8-2.3s-1.9 2.7-2 1.5c-.1-1.2 2.1-1.7 1.3-3.3-.8-1.6 2.2-.7.1-2.1-2.1-1.4-6.1-1.2-8.3-2.9-2.2-1.7-1.2-3.5-.3-4.7.9-1.2.5-1-.7-2s-.3-4.1.8-4.5c1.1-.4 3 1.7 3.4.4.4-1.3-1.9-2-1.3-2.5.6-.5 2.6-.4 2.6-2.4s.2-3.6-.7-4.8c-.9-1.2-1.8-1.4-1.6-4.6.3-3.2-.7-4.4 0-4.8.7-.4 2.4 1.2 2.7.3.3-.9-1.8-1.7-1.1-2.5s5.9-1.6 8.6-1.4c2.8.2 3.5 1.7 6.8 1.5 3.3-.3 5.7-.1 4.3 1.8-1.4 1.9-4.9 7.3-6 8.2-1.1.8-4.5-.5-6.4-.6-1.9-.1-1.4 1-.3 1.4 1.1.4.9.9-.6 2.7-1.6 1.7-2.2 2.3-3 2.2-.8-.1-.5 2.1 1 1.8 1.5-.3 4.9 2.7 5.3 3.7.5.9-1.1 3.2-.2 3.7.9.5 3.7.8 3.7 2.2 0 1.4 3.5 1.4 2.6 2.7-.9 1.3-2.3-.2-2.4.8-.1 1-1.1 2.8-.2 3.6.9.7 2.3-1.2 3.1-.8.8.4 2.9 1.7 4.1 1.7 1.2 0 .4 1.5-1 1.7-1.4.2-1.5 1.3-.5 1.7.9.5.3 5.1 1.4 4.9 1.1-.2.5-2.7 1.8-3.3 1.3-.6.7-2.1 1.6-2.9.8-.8 2.4-.8 3.9.9 1.5 1.7 2.7 1.2 2.8 2.8.1 1.6 1.1 2.6.1 2.8-1 .2-1.7.6-1.7 1.8-.1 1.4 1.5 3.2 2.8 4.3 1.3 1.1 1.4 3.5 2.3 1.8.9-1.7 3.2-.6 2.9-2-.3-1.4-.5-2.3-1.6-2.6-1.1-.3-.9-3.1.6-3.2 1.5-.1.3 3.4 1.8 2.6 1.6-.8 1.7-1.7 2-4.1.3-2.4 1.7-1.9 2.7-1.8.9.1-.5-1.4.7-1.8 1.2-.5.1-1.9-1.3-2-1.4-.1-1.3-3.9-.4-3.9.9-.1 4.8-.3 6.5.5 1.7.8 4.6-.1 4.7 1.3.1 1.4 1.5 2.2 3.1 2.2 1.7 0 3 .9 1.4 1.8-1.7.9 1.9 1.2 1.1 2.5-.8 1.3-2.3 1.8-4.1 1.5-1.8-.4-1.6 1-.1 1.7s-.1 1.8 1.4 2.9c1.5 1.1 3.2 2.8 2 4.5-1.2 1.7-1.4.5-2.4 1.6s-1.9 2.2-3.8 2.8c-1.8.6-2.5 2-3.6-.1-.7-1.5-2.2-1.2-2.8-2.5-.6-1.3-2.8.3-.7 1.1 2.1.8 3.6 2.9 2.3 2.9-1.3 0-3.9 1.1-4.4.5-.6-.6-1.2-1.9-2.7-1.9-1.5 0-4.2.6-3.2 1.4 1 .8 3.9 1.3 2.4 2.4-1.5 1.1-4.5 4.6-6.2 4.5-1.7-.1-6.3-3.9-8.3-4-1.9-.2-2.1.9-.3 2.3s3.8 2.7 7.2 2.4c3.4-.3 5 .8 3.2 2-1.7 1.2-3.8 5.5-5.9 6.1-2.1.5-5.8-2-6.1-1-.4 1 .9 3.5-1 3.6-1.9.1-2.6.2-5-.7-2.4-.9-8.9-2.7-9.4-1.6-.5 1 6.5 1.1 6.5 2.8 0 1.7 5.5.2 6 2.3.5 2.1-2.7 2.8-4.8 2.8-2.1 0-2.8.3-1.9 1.2.9.9-.7.2-1 1.3-.3 1.1-.4 1.6-1.7 1.8-1.4.2-.3 2.8-1.7 3.2-1.4.4-2.9 1-2.9 2.4s-2.4 4.7-2.8 6.9c-.5 2.2-.4 7.4.2 7.8.5.4 2.7 1.4 4.6 1.1 1.9-.3 2.6 1.7 3 3.6.5 1.8 2.3 4.6 1.8 5.2-.5.6-1.2 2.1-.5 2 .6-.1 4.5-1.7 6.1-1.8 1.7-.1 4.4 2.4 5.5 2.2 1.1-.2 3.9.3 4.5 1.1.6.8 3.5 1.5 3.8 2.3.3.8 1.6 2.3 4.4 3 2.8.7 5 2.1 5.7 2.8.7.6 2 1 4.3.8 2.3-.2 4.6.4 6.2.4 1.7 0 2.8 1.6 2.3 2.6-.6 1-1.1 2.2-.5 3.3.6 1.1.3 4.9.3 6.3 0 1.5 2.8 2.4 2.8 3.7 0 1.3 1.3 1.6 2.9 2.8 1.7 1.3.8 2.9 1.5 2.8.6-.1 3.5 2.3 3.5 1.3 0-1 1.1-3.4 2.3-2.6 1.2.8 1.9 1.7 1.8.2-.1-1.6-2-.9-.6-2.1 1.4-1.2 2.1-1.8.9-3.5-1.2-1.7-.4-3.1-1.2-5-.8-1.8.5-2.4-1.1-4.1-1.6-1.7-2.2-3.9-1.1-4 1.1-.1 3.5.3 5.8-2.1s5.4-3 5.9-5.8.5-6.6-.9-9.1c-1.5-2.5-5.2-4-6.2-5-1-.9.1-2.5 1.4-3.9 1.3-1.5.3-2.6 1.2-2.8.9-.3 1.9.2 1.7-2-.3-2.2-1.2-2.1-1.7-3.8-.5-1.7-1.3-1.5-1.3-2.3 0-.8 1.2-.7 1.3-1.9.1-1.2 1.5-.7 1-2s-2.4-.9-2.7-2.8c-.3-1.9 1.6-2.2 1.7-3 .2-.8 3.2-.6 5.5 0s2.5 1.7 3.3 1.1c.8-.6 2.9 1 3.8.6.8-.4 2.7-1.6 4.1-1.4 1.5.2 1.8 1.4 2.9 1.5 1.1.1 1.7.6 1.7 1.7s1.5-.1 2 1.5 1.7.7 1.9 2.4c.2 1.7 3.8 1.8 5 1.7 1.2-.1 1.2 1.6 2.3.9 1.1-.7 2.2-.7 2.2.2 0 .9-1.6 1.1-1.4 3.5.2 2.4 1.5 3.8.5 4.7-1 .8 2.1 1.5 1.7 2.8-.5 1.4.6 1.6 2.2 1.5 1.6-.1 1.4 2.7 2.4 2 1-.7 1 1.7 2.2 1.8 1.2.1 4.1-1.1 4.1-2.4 0-1.3 1.7-1.6 2.5-.4.7 1.3.1-1.6 1.5-1.6s0-1.4.8-2.3c.8-.9 1.7-1 .5-2.5-.5-.7 1.4-.6 1.9-2.8.6-2.2 1.3-2.9 1.8-1.4.6 1.6 2 2.5 2.1 3.8.1 1.3 2.8 3.5 2.8 4.6 0 1.1 1.7 2.3 1.6 3.1-.1.8 1.5 1.5 1.6 2.4.1.9 2.8 2.1 2.7 3-.2.9-.2 2.1.5 2.2.7.1 2.2.9 1.7 1.8-.6.9-2 2.8-3.3 1.8-1.3-.9-2.8.4-.5 1.1 2.4.7 6.3 3.6 7 5.3.6 1.7 1.5 2.9 2.9 2 1.5-.9 1.2 1.4 2.5.5 1.3-.9 2.7 2.3 4.7 1.8 2-.5 3.7.9 3 1.9-.6 1-2.5.4-4.6 1.7-2.1 1.4-2.9.3-3.8 1.4-.8 1.1-1.5.3-2.4 1-.9.7-.9 3.5 1 1.6 1.9-1.8 1.7.1 3.9-1.7s5-2.5 6.4-1.6c1.5.9-1.5 3.1.3 3.3 1.7.2 2.7-2.8 4.4-.6 1.7 2.3 2.8 1.6 2.2 3.2-.5 1.6-1.2 2.4-2.5 2.5-1.3.1-.1.9 1.2 1.2 1.3.3 1.8.7.4 1.7-1.5 1-2.8 3.7-5.8 3.5-2.9-.2-4.5-.2-5.7 1.6-1.2 1.8-5.3 4.7-7.4 4.6-2.1-.1-24-.4-25.9 1.3-1.8 1.7-2.8 2.5-3 3.7-.3 1.2-2.4-.2-4.3 1.3s-4.8 5.9-5.8 5.4-.1.7-.8 1.9c-.7 1.2-5.5 4.3-3.8 4.3s5.8-5.9 9-7.7c3.2-1.8 15.9-6.6 17.9-2.9 2 3.7-1.9 4.5-4 5.3-2.1.8-1.2 3.1.4 1.6s3.5-.6 1.8 1.4c-1.7 1.9.4 2.5.6 4.2.2 1.7 4.3 2.4 4.5 3.7.2 1.3 5.9 2 7.3 1.3 1.5-.7 1.7.4 1.7-1.7 0-.7 2-1.2 2.1-2.4.1-1.2 3-2.7 2.8-1.6-.2 1-1.2 3 .1 2.8 1.3-.2 3 .6 1.6 1.6-1.5 1-5.5 1-5.5 2s1.5 1.4-.8 2.1c-2.3.7-7.5 2.7-9.5 2.6-2-.1-1.9 1.6-3.9 3.4-2 1.7-3.9 2.3-5.4 1-1.5-1.3-2.1-2 .5-4.6 2.6-2.6 3.4-2.8 5.3-2.8 1.9.1 5.7-.9 3.1-.8-2.6.1-5.2-1-3.8-1.5 1.5-.5.5-3.1-.3-1.7-.7 1.4-3.2 3.6-4.9 3.5-1-.1-2.7.8-4.3 1.8-1.1.7-2.3 1.6-3.1 2.3-2 1.8-3.9-1.5-5.1-.2-1.3 1.3-1.6 3-3 3-1.5 0-.6 1.1-2.4 1.5-1.7.4-3.1 3.7-2.7 4.5.5.8-1.9 1.7-.6 2.1 1.4.4 2.3 2.5 1.1 3.2-1.2.7-2.6.9-3.5-.3-.9-1.2.1 1.7-2 1.7-2.1.1-6.7 1.1-6.7 2.1s7.2-1.6 6.3.2c-.3.5-4.2 1.7-6.1 1.7-1.8-.1-3.3.5-2.3 1.2 1 .6-.6 3.5-2.2 5.1-1.6 1.7-1.9 1.5-2.9.2s-1.1 1.5-.2 1.7c.9.3.7 2.7-.6 5.4-1.4 2.8-2.3 3.3-1.8 1.2.5-2.1.1-3.6-1.1-5-1.2-1.4-.3-3 .4-4 .6-1-.9-1-1.4 0-.5 1 .3 5.2-.6 5.4-.9.2-2.8.6-1.7 1.5 1.2.8 3.7 2.5 2.7 3.5s-1.6 1.8.1 2c1.7.2 2.7 2.4 1.5 2.8-1.2.5-.7 1.3 1.3 1.4 2 .1-.1 1.8-1 2.5-.9.6-2.4.6-2.8-.2-.5-.7-1.7.4-1 1.5.6 1.1 2 2.4-.4 2.8-2.4.4-4.2 1.8-4.4 3-.2 1.2-1.4.9-2.5.9s-3 1.8-3.4 3.3c-.4 1.5-2.1.7-3.7 2.1-1.6 1.4-4.8 5.9-4.9 8.6-.1 2.8.8 6.1 2.3 8.1 1.5 1.9 0 2.3 1.2 3.9s2.5 6.9 2.3 8.3c-.2 1.5-1.7 3.3-1.8 4.9-.2 1.6-2.9.4-3.1-.6-.2-.9-1.4-3.2-2.8-3.6-1.5-.4.2-3-1.7-4.3-1.8-1.3-.9-2.9-1.7-4.1-.8-1.2 1.5-3.1-.1-4.7s-2.8-3.3-4.1-4.6c-1.3-1.3-2.5.1-3.9 1.3s-2.7.6-2.8-.5c-.2-1.1-1.9-2.8-3.9-2.8-1.9 0-5.5 1.7-5.5.6s-.8-2.4-1.7-1.1c-.8 1.3-.7.7-2.9.6-2.2-.1-4.7 1-3.6 1.8s-.5 1.3.8 2.3c1.3 1 2.7 2.3.9 2.1-1.7-.2-3.6-3.7-3.7-2.6-.1 1.1-.1 1.6-1.8 1.5-1.7-.1-2.3.3-3.5-1-1.2-1.3-2.6-2.6-2.8-1.3-.2 1.3-2.6 1-3.4-.1-.8-1.1-1.9-1.3-2-.5-.1.8-1 .2-2.1-.2s-.8 2-2.6 1.6c-1.7-.4-2.2-.2-2 .8.2 1-2.6 3.6-4 3.4-1.5-.2-2.5-.2-2.5.9s-1.9 1.8-3 2.6c-1.1.7 1.3 2.2-1 3.9-2 1.5 1.4 2.1 1.2 5.3-.5-.3-.9-.5-1.3-.6.4.1.8.3 1.3.6 0 .5-.1 1.1-.4 1.7-1.7 4.9-1.5 9.1-1.4 11.5.1 2.5.3 6.3 1.6 8.1 1.3 1.7 4.2 3.5 4.4 5.4.2 1.9.8 4.3 2.4 4.2 1.6-.1 3.6 2.4 4.7 2.2 1.1-.2 9-2.6 9.7-2.1.7.5 3.3 1.8 3.1.5-.2-1.4 2.8-1.5 2.8-3.8-.1-2.3 1.4-1.1 1.2-3.8-.2-2.7 1.6-4.2 5.3-4.8 3.8-.5 5-1.2 6.5-.3 1.5.9 3.2-1 3.6.9.4 1.9-1 2-2.3 3.4-1.3 1.4-.5 2.2-.7 4.7-.2 2-.6 4.5-1.8 5.6-.3.2-.6.4-.9.5-1.9.5.5 5.6-1.1 6.9-.7.5-1.1 1.4-1.3 2.1-.2 1 .2 1.8 1.7 1h.1c2.6-1.5 5.3.5 7.7-.5 2.4-.9 6.8-1.8 8.8.2 1.9 1.9 4.6 1.2 4.6 3.3v.4c-.5 2.6.1 3.2-.9 4.3-1 1.1 0 5.3-.6 7.1-.6 1.7-1.7 4.1-1 5.3.1.2.3.5.6.9.9 1.3 2.6 3.5 4.1 5.1.8.9 1.6 1.6 2.1 1.9 1.8 1 4.5 2.1 6.6.2 2.1-1.9 4.2-2.9 5.9-2.2 1.7.7 4.3.5 5.8 2.8 1 1.5 1.9 2.9 2.6 3.2.3.2.6.1.9-.2.9-1.1 2.1-3.5 4.1-4.8 2-1.3 1.6-2.6 1.5-3.9-.1-1.4 2.8-3.9 3.9-3.6 1.1.3 1.8 1.5 1.9.3.1-1.1 2.5-.6 3.8-1.2 1.3-.6 1.7-1.8 3.6-2.1 1.9-.3 2.9-3.2 4.7-2.2 1.7 1 .8 2.2-1 2.6-.6.1-.9.4-1 .8-.3.9.2 2.2.5 2.9.5 1-2.7 3.7-1.8 5.4.8 1.7 3.6 3.1 4.4 1.5.8-1.7-1.7-4.4-1.4-6.1.3-1.6 4.4-2.7 5.6-3.2s-.6-2.7 1.2-2.7c1.7 0 1.2 2.5 3.5 2.3 2.3-.2 3.3 1.4 3.2 3.2-.1 1.8 3.1 1.8 5.4.9 2.3-.9 5.8 3.4 7.8 2.3s5.5-2.5 8-2.8c2.5-.4 5.3.9 3.5 1-1.8.1-2.3 1.9-.6 2.3 1.7.4 6.2.6 6.1 2.3-.1 1.7-2.7 3.5-1.1 3.4 1.2-.1 4-.1 6 .6.6.2 1.2.5 1.5 1 1.6 1.7 4.4 1.9 4.1 3.5-.3 1.6 1 2.5 2.1 2.5 1 0 2.7 3.3 3.8 3.4.1 0 .3 0 .4-.1 1.1-.9 2.3-1.1 3.1.1.8 1.2 3.1.2 5.3-.1 1.2-.2 2.7.4 4.1.9 1.1.4 2.3.9 3.5 1.2 2.7.5 5.3 4.8 7.1 5.5h.1c1.7.8 1.3 6.1 3 7.9 1.7 1.8 4.4 2.2 3.4 4.4-1 2.2-2.7 5.2-4.1 5.1-1.5-.1-2.9 2.4-1.1 3.4 1.8 1 .4-2.3 2.7-3.2 2.3-.9 8.9.5 8.3 2.2-.6 1.7-2 3.9-3.6 4.8-1.6.9.8 2.8 2.1-.1 1.3-2.8 2.9.6 2.9-2 0-2.7 1.8-3.5 6.1-1.8 4.2 1.6 9.8 4.1 9.7 5.9-.1 1.7-2.3 4.5-.8 3.9 1.5-.6 3.4-3.1 5.4-2.7 2 .5 5.1 2.8 8.2 1.9 3-.8 7.5-1.2 12.1 3.8s8.1 5.4 9.9 5.3c1.8-.1 2.8-.7 3.6 2.4.7 3.1 2.6 7.5.8 12-1.7 4.5-4.5 7.6-5.8 8.2-1.3.6-2.9.5-3.9 3-1 2.6-2.1 5.7-3.3 6.4-1.2.7-1.9-.6-2.6-.8-.6-.2-1.5.8-.7 1.2.7.4 1.2.8.3 1.7-.9.8-.9 3.5-.9 6.1 0 2.6 1 5.2 0 8.1-1 2.8.2 4.1-.5 5.1-.6 1-2.1.8-2.1 2.2 0 1.4-.6 3.3-.6 5 0 1.7-1.2 1-1.6 2.2-.4 1.2-.6 3-1.7 3.8-1.1.8-1.6 1.9-1.6 3.8 0 1.8-.6 2.2-1.8 2.2-1.3 0-2.3 1.1-2.3 2.5s-1.5 1.2-3.7 1.2-6-.9-6.9-.1c-.9.8-1.8 2.1-3.2 2.5-1.4.4-.2 1.1-2.3 1.3-2.1.2-3.4.4-5.4 2.4-2 2-3.9 3.9-5.2 3.9s-.3 1.5-1.3 3c-1 1.6-.3 3.8-.1 6.1.2 2.4.2 5.8-1.2 6-1.4.2-2.6 1.2-4.1 4.4-1.6 3.2-2.6 6.1-5.3 8.1-2.8 2-2.4 1.3-.3-1.4s2.5-4.9-.1-3.8c-2.6 1.2-.2 2.5-2.2 4.4-2 1.9-1 2.8-2.2 5-1.2 2.2-.5 3.3-3.1 5.1-.8.6-1.4 1.2-1.9 1.9-1.1 1.5-1.9 3-3.3 3.9-2.1 1.3-4.3 1.1-6.2.8-1.9-.3-1.2.9-3.2 0s-3.7-1.6-5.3-1.4c-.9.1-1.2-.4-1.6-.8-.4-.3-.7-.5-1.5.2-1.6 1.5 1.2 2.7 2.9 2.8 1.7.2 3.3 1.3 2.3 2.5s-1.1 3.3.7 3.6c1.8.3 2.4 1.6 1.7 2.8-.6 1.1-3.5 4.1-3.8 5.4-.3 1.3-3.4 2.9-7.9 3.9-4.5.9-9.9 1.4-10.6.6-.7-.7-1.9.2-1.5 1.6.5 1.5 1.8 1.8.2 2.9-1.7 1.1-.4 2.9-.4 3.9s-2 2.6-4.8 2.4c-2.8-.2-5.9-2.8-6.6-1.7-.7 1-.2 3 .2 3.9.4.8-.2 3.1.6 3.1s1.5 1.3 2.3 1.1c.8-.2 1.3-1.9 2.8-.7 1.6 1.2-.5 3.2-1.7 3.2s-.6-1.6-2.3-1.4c-1.7.2-1.2 1.4-.2 1.7 1 .3.6 1.2-1.1 1.4-1.7.2-1.7 2.7-1.7 4.2 0 1.4-.2 2.3-1.1 2.8-.9.6.1 2.1-1 2.2-1.1.1-5 .5-6.8 3.9-1.8 3.4 1.8 6 2.8 6.3 1 .4 4.1.2 4.1 1.1 0 .9-1.2 3.3-.7 4 .5.7-2.9 2.3-4.9 4-1.8 1.6-2.8 2.4-2.9 4.6-.1 2.2-1.7 3.1-2.6 2.9-.8-.2-.9.7-2.2 1.6-1.3.9-.8 2.9-.8 3.9 0 .9.6 2.3.5 3.1-.1.8 2.8 3.2 2.2 3.8-.5.5-2.9-1-3.9-.5-.2.1-.4.3-.5.6-.5 1.8 2.2 1.6 3.4 1.6.1 0 .2 0 .3.1 1.1.3 2.3 1.8 1.4 2.2-.9.5-2 2-.4 1.7 1.7-.3.6.8 2 1.9 1.4 1.1 5.9 5.3 8.2 5.4 2.3.1 4.2.4 2.8 1.3-1.5.9-4.2.4-5.1 1.4-.6.6-1.3.2-1.9 0-.3-.1-.6-.1-.7.3-.3 1-1.4.8-2.8.4-1.4-.5-3.4-1.1-2.4 0s1.9 3.1.6 2.8c-1.4-.4-3-4-4.3-3.1-1.3.9 1.4 2.4-1.5 1.5-2.8-.9-1.7-4.1-2.9-3.9-1.3.3-.3 4.1-1.5 3.2-1.2-.9-.5-3.3-2.1-3.7-1.7-.4-3 1.1-3-.6 0-1.7 3.2-.5 2.1-1.6s.2-2.6 1.1-1.6c.9 1 2.9 2.8 2 .7-.9-2.1-.1-2.9.8-2.6.9.4.2 4.1 1.7 3.4 1.6-.7-.6-1.9-.2-2.9.5-1 3.3-.8 2.3-1.8s-2.6 1.1-3.8-.2c-1.2-1.3-.9-1.7.6-2.4 1.6-.6 2.7-2.7.5-2-2.1.7-4.2 1.7-3.7 3.9.6 2.2-1.5 3.8-3.2 2.9-1.7-.8-2.4.7-1.7 1.2s1.8.4.7 1.4c-1.1 1-1.1-.1-2.7-1.1s-2.3.6-3.6-.8c-1.3-1.4-1.9-2.9-.5-2.8 1.5.2 4.5 1.9 4.4.6-.1-1.4 1.1-2.9 2.1-2 1 .9 3.9-.3 3.1-1.7-.7-1.5-2.1 1.1-4.7.9-2.6-.2-2.1 2-3.8 1.6-1.7-.5-.2-.5-.1-1.7s2-2.2 2.3-1.5c.3.7 2.3.2 2.6-.5.3-.6 2.9.3 2.6-.8-.4-1.1-5.3-1.4-6.3-.4-1 1-2.1 2.2-3 1-.9-1.2-.2-2.8 1.2-2.5 1.4.3 4-.4 3.7-1.5-.4-1.1-2.6-2.2-2.7-.9-.1 1.3-1 1.7-1.4.5-.4-1.2-1.9-.1-2.5-.3-.6-.2.7-1.6 1.9-1.9 1.2-.4.5-1.9-.8-1.4-1.3.6-1.1.3-2.1-.1s-1.6 1.4-2.2.6c-.6-.7 1.3-1.7.1-2.5-1.2-.7 1.5 0 1.4-1.1-.1-1.1 1.1-.6 1.1-1.6s.6-2.2.6-3.1c0-.9 1.7-1.9.5-2.9-1.1-1-2 1-1.7 1.9.3.9-.1 1.8-1.3 1.6-1.3-.2-.1-1.7-1-1.3-.9.5-2-.9-.9-1.7 1.1-.8 1.8-1.6 2.2-2.5.4-.9 2.2-.1 2.1-1.7-.1-1.6-1.4-.9-1.7-.2-.4.7-1.4 1.2-2 1.3-.6.1-.6-1.1-1.6-1.8s1.9-2.7 2.8-2.3c.8.4 1.8.9 2.5-.2.6-1.1 2.1 0 2.8.6.6.6 1-1.3-.1-1.6-1.1-.4-3.7 1-3.9-.4-.2-1.4.6-2.7 1.3-2.6.7.1.9-1.8-.4-2.1-1.3-.3-1.9.9-2.4-.3s-1.9-.9-1.9 0-1.1.7-1-.2c.1-.9 1.7-2.2 2.6-2.5.9-.3-1-1.1-.2-2 .8-.9 2.5-.5 2.4-1.7-.1-1.3 2.2.2 2.2-1s-2.8-2.8-1.4-3.3 3 1.9 2.2 3c-.8 1.1-2.5 2.2-1.8 2.8.6.6 2.1 2.1 2.7 1.1.6-1-1.3-2-.4-2.8.9-.7 2.7-.1 2.1-1.2-.6-1.1-1.1-2.3-.2-2.5.9-.2-.5-1.4.1-1.7.6-.4-.3-.5-.2-2 .1-1.6 1.3-1.5.7-2.7-.5-1.2.4-2.3 1-3.3s-.9-2.7.4-3.5c1.3-.8.6-1.6-.3-1.8-.9-.3.3-1.9-1.1-1.6-1.4.4-.2 1.6-1.6 1.6-1.4 0 .4 7.2-1.8 7.4-2.2.2-2.3.3-1.9-2.8.4-3 .8-4.5 1.7-4.5.9 0 1.1-.6.4-2.5-.7-1.8.5-3.2.5-4.9 0-1.6.7-1.7 1.3-3.5.5-1.7.9-2.4-.2-4.2-1.1-1.8.3-3.4-.6-5.2-.8-1.8-.6-3 .6-3 1.1 0 1.1-1.2 1.9-3.3.8-2.1 2.9-6 3.2-8.8.3-2.8 1.7-3.2 1.5-5.1-.3-1.9.9-1.8.9-2.8 0-1 .6-6.1 0-9.1-.5-2.4 1.5-3 1.6-4.5.1-1.5-2.6-4.1-1.6-5 1-.8 2-1.8 1.8-3.6-.2-1.7 1-2.8 1.1-4.3.1-1.6 1.8-6.5 1.8-9.4 0-2.9-.3-4.8.5-5.5.7-.7-1.1-.8-.5-2.4.5-1.6 1.1-3.7 1.7-6.2.5-2.6.3-9.3-.3-10.6-.4-1 0-2.7 0-3.7 0-.4-.1-.7-.2-.8-.6-.4-3.9-2-5-3.8-1-1.7-8.1-5.4-11.9-7.3-3.9-1.9-5-3.6-6.5-4.6-1.5-1-2-3-1.6-3.8.5-.7-.5-2.8-2.5-5.3-2-2.6-5-8.6-6.4-12.2-1.5-3.6-1.6-4.9-2.9-6.3-1.4-1.5-2.7-4.6-4.1-5.7-1.5-1.1-4.7-2.6-4.5-3.6.2-1 1.6 0 1.3-1.1-.3-1.1-2.3-4.1-1.6-5.7.7-1.4 2.1-3.3 3.4-3.6.1 0 .2-.1.3-.1 1.5 0 2.4-1.7 1.8-2.6-.6-.9-.7.7-2-.5s-2.6-1.5-2.4-2.1c.2-.6 1-1.7.3-2.7-.7-1.1-.4-2.2.9-2.8 1.3-.6.5-.9 1.1-2.2.5-1.3 1.8-1.3 1.8-2.5s-.2-2.9 1.4-3c1.6-.1 2.9-.6 2.8-1.5v-.6c.1-.8.4-1.7.8-1.7.5 0 .5-2.6 2.1-2.7 1.7-.1 2.5-.9 3.4-2.8.9-1.8 1.7-2.7.9-3.6-.8-.9-1.5-6-.7-6.4.7-.5.4-1.6 0-2.3-.4-.7.5-1.8-.8-3.2l-1.3-1.3c-1.5-1.4-3.3-3.3-2.4-4.3 1.2-1.4.1-2.3-1.2-2.8-1.3-.6-4.2.1-4.6 1.5-.4 1.4-2.4 1-2.2 2 .2 1 1.7 1.4 1.2 2.3-.5.9-2.4 2.3-3.2.8-.8-1.5-1.7-.4-3-2-1.1-1.4-3.5-2.2-5.3-2.4-.4 0-.7-.1-1-.1-1.7 0-2.5-.6-2.4-2.1.1-1.5-2-2.6-2.9-2.6-.9 0-.8-1.6-1.8-1.6s-.4 1.3-2.4.5-1.9-3-1.1-3.6c.4-.3.5-.9.3-1.6-.2-.6-.7-1.3-1.4-1.7-1.6-.8-3.6-4-5-4.9-.7-.4-.7-1-.6-1.6.1-.5.2-1.1-.4-1.6-.6-.5-.9-.3-1.2 0-.3.2-.7.6-1.3.6-1.4 0-6.6-1.6-8-2.7l-.1-.1c-1.2-1.1-4 .1-5.8-1-.9-.6-2.7-2.3-4.5-3.9-1.8-1.6-3.5-3.1-4.5-3.5-1.8-.7-4.3-2.4-7.5-1.1-3.2 1.3-6.1 1.9-8.3.5-2.3-1.5-5.8-3-9.4-4-3.6-1-5.7-3.2-8.2-4.1-2.5-.9-5-.6-6.6-2-1.7-1.4-3.9-3.9-6-4-2-.2-3.2-4.3-3.3-5.1-.1-.8 2-.4 1.3-1.5s.6-1.7.2-3c-.5-1.3-.8-2.7-2-4.5-1.2-1.7-6.9-8-8.9-9.9-2-1.9-.8-2.1-3.4-3.1-2.6-1-3.1-2-2.6-3.2.6-1.2.4-2.3-.6-2.5-1-.2-1.3-1.9-2.8-2.2-1.6-.3-2-1.9-2-2.8 0-.8-2.3-.9-3.5-2.4s-2.5-2.8-2.9-2.4c-.5.5-1.9 1.7-1.9-1.1s1.7-.5-.7-4.7 0-4.8-.7-5.2c-.7-.5-2.3.5-2.8-.6-.5-1-1.6-1.3-2.2-.9-.6.4-1-.2-1.5-.7-.5-.5-1.9-.7-1.5.5.5 1.2 1.4 4.7 1.4 6.1 0 1.5.9 2.6 2.3 3.2 1.4.6 2.5.6 3.2 1.4.7.8-1.3 1.7-.5 2.2.8.6 2.1 2.3 3.3 4.5 1.2 2.2 4 4.2 4.6 6.2.6 2 1.6 4.8 2.7 5.9 1.1 1.1-.1 3.5 1 3.7 1.1.2 3.5-.1 3.5 1.5s1.4 1.9.9 3.3c-.5 1.4-1.7 2.3-2 1.3-.3-1-1.5-3.4-4.4-5.3-2.9-1.9-5.7-3.5-4.8-4.2.9-.7 1.1-3.1-1.2-5.1-2.3-2-3-2.9-4.5-2.8-1.5.2-5.3-3-5.1-3.9.2-.8 3 .5 3.3-.3.3-.8.3-4-2-5.5s-5-2.7-5.1-4.1c-.2-1.5-1.6-5.7-3.5-8.1-1-1.3-1.7-2.4-2.2-3.4-.4-.9-.7-1.8-.9-2.6-.5-1.7-2.7-4.3-3.9-4.6-1.2-.3-1.7.4-3.5-.7-1.7-1.1-3.4-2.1-5.1-2.1-1.7 0 .3-1.7-2.1-3.9-2.4-2.1-4.3-3.8-4.3-4.7 0-.9.9-2.6-.6-3.2-1.5-.6-1.5-.9-1.7-2.6-.2-1.6-1.1-.6-2.1-2.3-1-1.6-2-2.9-3.1-3.6-1.1-.6-.3-3.7-1.3-5.4-1-1.7-1.1-3.1-.5-5.4.6-2.3-.2-4.9-1.4-6.7-1.2-1.8.8-4.7 1.1-6.4.3-1.7.2-7.4.6-10.2.5-2.8-.5-3.9.8-3.8 1.3.2 1.4-.6 0-1.4-1.4-.7-.4-1.9-1.8-3.9-1.5-1.9-2-4.4-2.1-5.5 0-.1 0-.2-.1-.3-.4-.9-1.8-1.6-1.8-2.3 0-.8-1.5-.1-2.1-.9-.6-.8-.9-2.3-2.2-2.3-1.3 0-1.7-1.7-2.8-1.8-1.1-.1-1.7-2.4-2.8-2.2-1.1.2-2-.4-1.9-1.3.1-.9-2.6-1.1-1.3-1.9 1.3-.8 2.5-.7 4.3.6 1.8 1.4 3.9 1.3 5.4 1.2 1.6-.1 4.4 4.2 4.9 5.4.5 1.2 3.6.9 4.8 2.2 1.2 1.3 3.2.5 2.6 1.6-.3.5-.4 1.1-.4 1.7 0 .8.2 1.5.8 1.5 1 0 1.6 2 .5 2.6-1 .6-.8 2.1.6 2.1s1.7-2.5 1.3-4.2c-.5-1.7.6-2.8-.7-4.3-.1-.2-.3-.3-.4-.5-1.1-1.7-1.6-4.5-3.2-3.9-.7.3-1.4-1.3-2.5-1.2-1.1.1-2.9.8-3.1-.5-.2-1.3-.7-3.1-1.6-2.5-.8.6-3-.1-3.6-1.1-.6-1-1.7-2.1-2.8-1.7-1.2.4-4.4-.8-4.4-1.7 0-.8.1-2.1-.9-2.2-1-.1-1.2-2.5.2-2.5s.6-1.4-.3-1.8c-.8-.5-2.6-3.1-3.4-2.1-.8 1-2.6 0-1.7-1.4.8-1.4.1-3.2-.9-2.4-1 .8-2.7 1.2-3.6.2-.9-1 .2-2.3-.7-3.1s2.2-.8 1.1-1.7c-.9-.8-1.7-1.3-1.8-2.1v-.5c.2-1.1-1.7.7-1.7-.3s.7-2.7-.4-2.9c-1.1-.2-1.2 2.1-1.9 1s-2.1-1.6-2.1-.7-.1 2.9-.9 2.3c-.8-.6-2-1.6-2.3-.8-.3.7.2 2.4-1.4 1.4-1.6-1 .5-2.8-.1-4-.6-1.3-1.7-3.1-.6-3.2 1.2-.1 2.6 2.8 3.6 1.7 1-1.1 2-1 2.1-2.1.1-1.1-2-4.2-3.2-4.1-1.2.1-1.4 2.2-.1 2.3 1.3.1 2.5 1.7 1.7 2-.8.4-3-1.3-3.5-2.8-.5-1.5-2.2 2.1-2.7.5s-.9 1.6-1.7 1.5c-.7-.1-1-3.8-.5-4.3.6-.6 2.3-.1 2.3-1.1s1.9-.9 1.4-2.8-2-3.9-2.5-2.8 1.4 3.2.1 3.9c-1.3.7-1.9 2-2.5 1.4-.5-.6.6-2.6-.5-2.9-1.1-.4-1.5 1.5-.6 2.8.8 1.3 1.1 4.1.4 4.5-.7.4-.7-2-1.9-2.4-.9-.3.2-2.6-1.3-2.8-1.5-.3-3.5-2.8-3.4-4 .1-1.3 3.1-1.7 2.8-.7-.3.9 2.5 2.3 3 .6.6-1.7.6-4.1-.3-5.4-.8-1.3-2.5-3.1-1.7-.4.8 2.8 1.5 5.1-.4 3.5-1.8-1.6-1-.1-3.3-1.7-2.3-1.6.5 3.5-2.4 2s-3.7-2.8-4.9-3.9c-1.2-1.2-3.8-1.9-4.9-2.4-1.1-.5-2.8-.6-2-1.5.8-.9 2.3-1.4.8-2.6-1.5-1.2-2.2 2.2-5 1.6-2.8-.6-2.4-2.6-3.7-2.5-1.3.1-6.2.7-9 .3-2.8-.5-4.7-.7-4.7-1.5 0-.7 0-1.7-.9-.8-.9.9-1.4 1.4-2.5.4-1.1-1-2.1-.4-3.3.6-1.2 1-2-1.1-.5-1.5 1.6-.4 3.3-.2 1.8-1.4-1.5-1.2-2.4 1-3.2-.7-.8-1.7-2.1-.5-3-1.1-.9-.6-1.9-1.2-2.3.2-.4 1.4-2 .3-1.4 2 .6 1.7 2.8 2 1.8 2.5-1 .5.7 1.8-.1 2.1-.8.3-3-1.2-6 .3-2.9 1.5-6.1 4.5-8.2 4.5-2.1 0-3.2-.9-1.7-1.4 1.6-.5 3.1-1.7 1.5-1.8-1.7-.2-1.6-1.3-.3-3s0-2.2 1.7-3.8c1.7-1.6 2.5-1.7 4.3-.8 1.8.8 2.4-1.5-.1-1.6-2.5-.1-1.2-1.7-2.5-1s-2.4 2.4-3.6 2.5c-1.2.1-.9 1.2-2.1 2.5-1.2 1.3-2.7 1.6-2.8 3-.1 1.5-1.7 2.6-2.8 2.5-1-.1-3.7 2.3-3.4 2.9.3.6 3.3.6 3.3 1.6s-.9 1.9-2.1 2.1c-1.2.2-.3 2.6-1.5 3-1.2.5-1.6-.1-3.1 1.2-1.6 1.3-3.4 2.8-4.6 2.8-1.2.1-.6 1.9-1.7 2.2-1.1.3-7 3-7.5 4.3-.5 1.3 0 2-2.5 2.5s-2.8 1.6-3.7 1.5c-.8-.1-2.2-.4-3 .4-.8.7-2.7 1.9-3.4 1.1-.7-.8-1.3-1-1.5.1-.2 1.1-4.4 3.2-5 2.7-.8-.8 2.3-2.4 3-4.5.7-2.1 5.9.1 6.4-.6.6-.7 4.6-5.2 7-5.5 2.4-.3 3.6-4 5-4.4 1.5-.4-.6-4.1 1.5-6.6 1.5-1.8 2.8-3.2-.1-1.9-2.8 1.3-4.4.9-4.5-.5-.1-1.4-1.7.5-1.7 2.1s-.6 1.3-2.6-.8c-1.9-2.1-5.4-1.7-5.7-.5-.3 1.3-4.7 1.7-4.5.6.2-1.1-.6-3.4.4-4.1 1-.7-.6-3.7-1.7-4.7s-.2 1.6-2.1 1.7c-1.9.1-3.6 1.9-4.9.7-1.3-1.2-3.3-4.5-5.1-4.9-1.8-.4 2-2.7.2-3.9-1.8-1.3-1.5.7-3.8-2.5s1.2-.4 2-3.7c.8-3.3 4.2-1.6 4.1-3-.1-1.4-.5-4.2 1.7-4.2s3.5 2.8 5.2 1.5c1.7-1.4 1.1-3.5 2.2-3.4 1.1.1 3 1.1 5-.4s.6-4.3-.5-5.5c-1.1-1.2 3.3-.9 1.2-2.8-2.1-1.9-6.2 1.4-7.3 2.6-1.1 1.2-2.4-.5-3.8-.5s-6.5 1.2-8.8 0c-2.3-1.2-1.7-2.6-3.1-3-1.5-.5 2.6-1.6.7-2-1.8-.4-6.5-1.2-6-2.4.6-1.2 3.7-2 5.6-3.2 1.9-1.2 3.2 1 3.6-.4.4-1.4-.7-.7 2.3-2.5 3-1.7 5.2-1.1 5.1-.2-.1.9-1.6 3 0 2.8 1.6-.2 4.6-.8 5.3.2.7 1 1.7.4 3.5-1s5.4-.1 5-1.4c-.5-1.3-2.8-.2-4.4-.9-1.6-.7.5-3.3-1.4-3.6-1.8-.3-6.5 1-7-.2s-3-6.1-6.8-7.2c-3.8-1-5.3-1.9-4.6-2.9.7-1-.3-2.6 1.1-2.6 1.4 0 8 .5 10.5-2.1 2.5-2.7.8-3.5 1.7-4.4.9-.9 3.9-4.2 4.9-4 .9.2 4.8.3 6.1-1.1 1.3-1.4 1.7 1.6 3 .4 1.3-1.3-.8-1.2-.9-2.2-.1-1 2.1-1.4 3.9-1.2 1.7.2 4.6.4 6.5-1.4 1.9-1.7 3.4-2.9 4.3-2.7.9.3 3.4.7 3.3 1.6-.1.8-2.4 1.1-1.7 1.8s2.6.5 3.2-.6c.6-1.1 2.2-1.4 2.1-.6-.1.8.4 1.8 2 1.6 1.7-.2 6.2-1.5 7.2-.1.9 1.4-.4 2.3 1.3 2.1 1.7-.2 1.4 1.6 2.7 1.2 1.3-.5 6.7-1.6 10.5-.7 3.9.9 5.8 3 8.8 2.6 3-.5 5 .2 6.5.9s5.7.2 7.8-.3c2.1-.5 6.1 1.4 8.7 2.4.5.2 1.2.3 1.9.4 3.1.3 7.6-.1 7.6.6 0 .9 6.4 4.8 9.6 4.5 3.2-.3 5.5 2.4 6.2 1.6.7-.7-.2-1.3-1.7-2.4-1.5-1.1.7-2.7 2.9-2.7s2.8-.8 2.8-1.5c0-.6 3.1.4 2.2.9-.9.6.3 1.7.9.6.6-1 3.7.6 2.9-.8-.7-1.5 2.1-1.1 4.6-2.2 2.5-1.1 5-2.8 6.5-2.5 1.5.3 3.7-.5 3.6.5-.1 1-4.3 2.8-6.5 3.1-2.2.4-6.4 3.8-8 4.6-1.4.7-2.8 2.2-1 2.3 1.7.1 3-.7 2.8-1.8-.3-1.1 6.2-4.4 6.4-3.5.2.9 1.7 1.3 3.9-1.3s4.1-1.6 4-.6c-.1.9 3.2-1 3-2.7-.2-1.7 3.4.1 1.5-2.4s.2-2.4 2.5-.7 3.5 8.1 6.2 8.3c3.3 1.5 4.7-4.8 6.2-4.6zm192.6 162.2c4.6-.2 9.4-1.6 8.1-4 0-.1-.1-.2-.2-.2-1-1.2-2.9.8-5.7.4-2.9-.4-9.2 1.5-8.4 3.3.5 1.3 1.1 1.1 2.9.9.8-.2 1.9-.3 3.3-.4zm-13.8 8.8c3.1-1.7 8.8-4.4 9.5-5.8.1-.2.1-.3.1-.4-.4-.9-.7-.4-2.6.9-1.8 1.3-2.6-.4-5.3-.6-1.7-.1-3.7 1.6-5.1 2.6-.8.6-1.5 1-1.7.5-.5-1.3-3.1-1.8-3.1.9 0 2.8 4.8 3.7 8.2 1.9zm-23.1-1.3c2.7-1.7 3.7-3.1 2.9-6.1-.7-2.9.2-7 1.1-8.8.9-1.8 3.5-.7 4.2-3.1.7-2.4 4.4-2.4 6.4.7 2 3.1-1.3 5.1-1.7 7.5-.4 2.4 2.2-1.5 4.4-.7 2.1.7.5 4.8 1.5 5.3h.1c1.1.2 2.9-3.7 2.9-6.4s1.5-1.8 1.3-3.7c-.2-1.8 2.9 1.5 5.3 1.3 2.8-.2-.2-2.6-1.5-5.7s-5.1-1.1-7.7-2c-2.1-.7-5.2-1.2-6.3-.8-.3.1-.5.2-.5.5 0 1.1-4.8.7-8.6 1.7-3.9.9-8.1 5.3-6.2 5.3 1.8 0-.2 3.5-.9 7.2-.9 5.3.6 9.5 3.3 7.8zm-20.5-25.5c1.5 1.5 3.3-.9 5.3.9s6.4-2.2 9.4-3.9c2.9-1.6-.6 2.2 1.5 2.2 2 0 .9 1.5 3.1 2.6s5-1.5 7.7-1.5c2.8 0 2.3 2.7 3.9 1.7.3-.2.4-.4.5-.6.4-1.3-2-3.3-2.3-5.8-.4-2.9-4 0-4.4-3.1-.4-3.1-6.4-3.7-8.8-3.7-1.8 0-3.4 3.4-5.4 5-.7.5-1.4.9-2.1.8-3.3-.1-9.9 4-8.4 5.4zm156.6 201.5zm2.1 118.7c-.4-.2-1.7-.2-2.7-.2 1 0 2.3 0 2.7.2zM464 468.4c-.3 0-.7-.1-1.1-.2.4.1.8.2 1.1.2zm-7.1 91.4c.5.8.4 1.2-.3 1.6.7-.4.8-.8.3-1.6zm-19.2 9.6h-.4.4zm-21.6 4h-.1c0 .1.1 0 .1 0zm1-105.4c-1.1.4-2.6.9-3.4.9.9 0 2.4-.5 3.4-.9zm-7.3 54.2c-.2-.1-.5-.1-.7-.1.2 0 .4.1.7.1zm-3.1-28.6h-.2c-.9.1-1.7-.7-2.8-.1 1.2-.6 2.1.3 3 .1zm-23.3-16.2l-.3-.3-.2-.2c.2.1.3.3.5.5zm-59-76.5c-1.9 0-4-.1-4.4-.1.4 0 2.5.1 4.4.1zM292.3 238c3.7 2 1.5 7.6 3.5 7.3 1.6-.2 1.6-4 .4-6.4-1.3-2.4-3.5-9.9-5-11.7-1.5-1.8-5.1-.7-5.1 1.6 0 2.4 1.9 6.8 6.2 9.2zm-80.2-55.1c1 1.7 8.2 1.4 11.2 1.2 3-.2 1-2.7 3.5-3.1 2.5-.4 2.3.2 5.1-2.3s9.9-3.9 9.9-6.1c0-2.2-9.6 2.5-11.2 4.2-1.7 1.7-4.7 0-6.3-2.3-1.7-2.3-9-1.4-6 .1s3.1 3.9 1.3 3.9-3 2-3.3 3.2c-.2 1-4.5.6-4.2 1.2zm-31.8-33.1c3.6 1.6 6.7-.4 8-1.3 1.3-.9 5.3.4 5.2 1.8-.1 1.5-3.9-.1-4.5.7-.6.8 1.7 1.9-.2 2.6-1.9.7-.9 2.3-2.3 2.4-1.4.1.4 1.5 1.8 1.5 1.4.1 3.6 0 3.7-1.2.1-1.2 3.5-4 4.9-3 1.4 1-4 4.9-3 5.1 1 .2 2.7-1.7 5.3-2.3 2.6-.6 2.5-1.3 1.2-2.2-1.2-.9.3-2.1 2.8-1.7 2.5.4 3.3 0 5.7-3 2.4-3-1.4-3.2-2.3-1.8-.9 1.4-4.7 2.3-7 .9-2.3-1.3 2.5-2.3 1.9-3.7-.6-1.5-8.5.4-10.2 2-1.8 1.6-12.2 2.7-11 3.2zm-176 76.6c.9 1.1 0 2.2-2.2 3.1-1.7.7 1.3-4.2 2.2-3.1zm-2.2-36.2c-.5-1.4 3.5-2.8 3.7-1.3s1.9-.7 2.9.2c1 .9.6 2.4-.8 2.8-1.6.6-5.3-.3-5.8-1.7zm15.6 31.1c2 .7-.7 1.7-2.2 1.7-1.5 0-2 1.3-3.3 1.1-1.8-.3 3.5-3.5 5.5-2.8zM35.6 383c-.3 1.1-1.2 1.5-2.4.2-1.4-1.3 2.7-1.3 2.4-.2zm6.6 3.4c-.7 1.2-1.7.9-2.6-.4-1-1.6 3.3-.8 2.6.4zm5.2 1.5c1.3-.2 1.9.9.4 2-.8.6-1.7-1.8-.4-2zm3.1 3.5c2.3-.3 3.8 2.2 3.2 3.4-.5.9-2.1 1-3 1.7-1.3.9-2.5-4.8-.2-5.1zm6.8-186.2c.3-1 1.8-2.1 3.7-4.2 1.8-2.1 3.3-2.2 3.2-1.2-.1 1 1.8 1.5.8 2-1 .6-3 .6-2.9 1.4.1.8 2.4 1.2 1.6 2.5-.8 1.3-4.6 3.9-5.4 3.9-.8 0-.9-.9-2.2 0-1.3.9-2.4-1.9-1.7-3.2.5-1.4 2.6-.2 2.9-1.2zm92.3 23.7c0 2.2 3.1 5.7 2 6.4-1.7 1.1-9.6-7.3-6.3-9.1 3.2-1.7 4.3.5 4.3 2.7zm170.6 251c-.8 1.2-4.4-1.5-2.6-4.2 1.9-2.8 3.5 2.7 2.6 4.2zm129.5 230.9c2 .4-2.6 5.9-4.8 4.8-2-1.1 2.8-5.2 4.8-4.8zm7.6 2c.7 1.3-5.3 3.9-6.8 3.1-1.5-.7 5.3-5.9 6.8-3.1zm91.5 18.3c-1.6 2.5-3-.2-4.7-1.6-1.6-1.4-3.2-.7-3.6-2.3-.2-.9 9.9 1.4 8.3 3.9zm54.6-581.7c.7.9 2.8 1.1 1.5.1-1.2-1-2.4-2.3-.6-2.3 1.8 0 7.7 3.4 6.3 4.2-1.4.8.6 4.2 1.1 3.3.6-.9 1.8-1.8 2.7-1.2.9.5 1.2-.8.5-1.9-.6-1.1.7-3.3 1.9-1.3 1.2 2 1.8 1.8 1.7.9-.1-.9 1.3-2.8 2.8-1.9 1.4.9 2.2 1.5 2.1.7-.1-.7 1.7-1.3 2.4-.4s1.7.8 1.7-.1 2.2.6 2.4-.2c.2-.7-.4-2 .5-2.5s3 2.1 4 1.9c1-.2 2.9-.8 2.8-.2-.1.6 1 1.7.7 2.6-.3.9.8 2 2.3 2 1.5 0 2.8 2.2 2.1 3.4-.6 1.2-2.2 3.2-3.2 3.1-1-.1-.9 2.5-3.3 2.6-2.4.1-4.2 1.2-5.6 2.1-1.3.9-4.6.4-5.1 1.7-.5 1.3-4.7 2.6-7.2 1.7-2.4-1-5.4-3.5-7.5-3-2.1.5-4.2 1.2-5.3.2-.8-.8.1-1.2 2.1-1.3 2-.1 2.1-1.6 1.4-1.9-.7-.3.2-2-1.2-1.4-1.5.6-1.4-.7-1.5-1.5-.1-.8-5.6.7-6-.1-.4-.8 2.4-1.5 4.7-1.3 2.3.2 3.1-.4 2.1-1.2-1-.7 1.8-1.1.8-2-1-.9-3.1-.8-5 0s-4.1-.1-4-1c.1-.9 1.3-1.5 2.1-2.8.8-1.2 2.1-1.9 2.8-1zM878 555.8c-1.1-2.7-1.7-5.3-.5-7.5s.1-5.7 1.7-5.5c1.6.2 3.4-1.2 5.3-1 1.8.2 4-2.8 5.7-2.9 1.7-.1 3.7-1.5 3.1-2.6-.6-1.1.6-.9.1-2.2-.5-1.3 1.1-2 2.1-1.8 1 .1 2.6-.9 2.4-1.8-.1-1 .1-2.4.6-2.9s.9-3.2 1.5-1.2c.4 1.3 2.8 4 2.9 6.8.1 2.8 2 5.9 1.6 7.8-.4 2-1.6 2-2.4.5-.9-1.5-1.8.7-1.1 2.6.7 1.8-1 2.9-.7 4.6.2 1.7-2.4 9.9-4.5 16.1-2.1 6.2-4.5 15.6-6 17.4-1.5 1.8-2.9.2-4.3 1.6-1.3 1.3-5.7-.1-7.3-1.8-1.6-1.7-1.6-5.4-2.7-7.8-1.1-2.4-1.3-6.4 1.6-9.9 2.8-3.6 2-5.8.9-8.5zm44.1-132.4c-.1.6-2.8 2.2-4.2.8-1.5-1.6 4.4-1.4 4.2-.8zm60.6 274.8c.5 1.3 5.9.9 5.5 3-.4 2.1-2.5 2.5-3.6 1.6-1.1-.9-1.8.7-3.4 0-3.5-1.5 1-5.9 1.5-4.6zm47.3-262.1c.9-.1 6.8 6.2 6.7 9.7-.1 3.4-4 7.4-6.4 5.9-2.1-1.3-1.8-3.8-2.1-6.1-.2-2.3-.4-3.9.2-5.5.7-1.7.5-3.9 1.6-4zm63.7 18.9c3.3-.1 5.3.7 6 2.8.7 2.1 6.4 4.7 7 6.2.7 2 2.7 3.9 3.5 3.5.9-.4 2.2.2 3.2 1.3s1.5-.2 2.6 1.2c1.1 1.5 2.1.9 2.1 2.1 0 1.2 2.2.4 2.2 1.8 0 1.5 3.4 2.6 2.1 3.8-1.3 1.2-1.2 2.9.9 2.9s1.7 3.5 3.7 3.7c2 .1.9 2.3 2.6 2.2 1.7-.1 2.2 1.6 2.6.7.4-.9-.4-1.8-1.6-2-1.2-.1-1.6-1.8.5-1.8s2.6 3.1 3.4 3.3c.9.2 1 2.8-.1 2.6-1.1-.2-1.7.1-1.7 1s-.7 2.6-.6 4.3c.1 1.7-.2 6.2-1.5 6.1-1.2-.1-3.8-1.2-4.4-.1-.6 1.1-1.3-1.1-2.1-2.1-.7-1-6.1-4.2-7.5-6.5-1.3-2.3-5.4-3.9-6-7.1-.6-3.2-4.5-9.2-6.4-9.5-1.8-.4-2.1-8.1-4.5-8.3-2.4-.2-3.5-4.6-5.6-5.9-2.1-1.2-6.6-5.9-5.6-7.9.6-1.5 1.9 1.9 5.2 1.7zm4.3 19c-1.5 1.5-2.8-2.1-2.6-3.3.3-1.2 4.1 1.8 2.6 3.3zm5.4 9.5c-.9.7-2.2-1.7-2-2.3.8-1.9 2.8 1.6 2 2.3zm35.8 6.1c-1-1.5 2.2-2.1 2.2-1 0 1.2-1.2 2.6-2.2 1zm-6.8 12.8c1.3-2.3 8-.7 9.7.5 1.7 1.2 8.7 3.7 8.8 2 .1-1.7 4.6 2.2 8.6 1 3.9-1.2 6.5-.9 4.9.1-1.6 1-6.5 1.8-4.2 2.8 2.3 1 7.1-.4 7.2 1.1.1 1.5 6.6.7 4.2 2.6-2.4 1.8-4-1.3-4.9-.1-.9 1.2-3.3-.6-5.5-.2-2.2.4-7.8.2-10.3-1.7-2.4-2-7.3-3.1-7.8-2s-5.7-.4-7.3-.6c-1.6-.2-1.1-2.3-2.2-2.3s-2.7.9-3.1-.6c-.6-2.4.5-.3 1.9-2.6zm88.3 9.1c-.3.8-6.3 2.6-8.7 4-.2.1-.3.2-.4.3-.2.1-.3.3-.4.4-.2.2-.3.4-.6.7-1.3 1.6-3.6 3.8-5.2 3-1.6-.9-.4-3.7 2-4.7.4-.2.9-.3 1.3-.3h.1c.2 0 .4-.1.6-.1.5-.1 1-.3 1.3-.6.1-.1.2-.2.4-.2 1.2-1 1.9-2.3 3.5-2.2 2.4 0 6.4-1.2 6.1-.3zm-.4-19.7c-1 1.7-4.5.6-5-1.3-.6-2.3 6-.4 5 1.3zm-3.8-54.2c0 2.9 2.4 7.5 1 9.2-1.5 1.7-4.3.5-4.4 1.8-.1 1.3 1.5 5.3.1 5.3-1.3 0-1.5-1.7-4.3-2.2-2.8-.5-1.3-6.7-3.4-7.1-2.1-.4-1.6 1.2-3.1 1.1-1.5-.1-2.2 1.8-3.7 2-1.2.1-.2-3.8 1.6-4.3s3.5-3.7 4.8-2.8c1.2.9 3.8 2.3 3.7.9-.1-1.5 2.2 0 2.4-1.8.2-1.8 3.4-.4 2.3-2.2-1-2 3-2.9 3 .1zm-20.3-12.6c-2.7.9-3.5-2.7-3.9-4.4-.3-1.3 6.6 3.5 3.9 4.4zm13.3 10.2c1 1.2-2.6 3.2-3.1 2-.3-.9 2.2-3.2 3.1-2zm-8.2-4c-.1 1.2-1.6 1.1-2.2 1.2-1.4.3-2.1-5.3-.2-5.6 1.8-.4 6.6 3.4 6.2 4.9-.4 1.5 1.1-.4 1.6.7s-2.7 7-4.4 6.6c-1.7-.4-1.7-3.4-.6-4.5s-.2-4.5-.4-3.3zm-9.9 42.2c2.3-.4 2.2-3.1 5-2.1s8.3 2.4 10.4 1.1c2.1-1.3 5.5-3.8 4.4-1.7-1.1 2.1-4.3 5.6-7.2 4.3-2.9-1.3-13.1-.7-13.7 3.1-.6 3.8 4.5 6.2 5.1 4 .6-2.2 7.8-3.7 8.4-2.4.6 1.2-4.5 4.2-6.2 4.5-1.7.4-.5 2.2 1.3 3.4 1.8 1.2-.5 3.3.9 4.8 1.3 1.5 1.7 2.6-.2 3.2-2 .6-3.8 1.8-3.8-.5s-3.2-2.1-2.1-4.2-2.2-3.1-2.7-1.7c-.5 1.3-.6 6.7.5 7.6 1.1.9-.1 3.3-2.1 4-1.6.6-.9-3.2-.5-4.8.4-1.6.6-4.3-1.2-4.4-1.8-.1-4.8-.6-2.6-4.2 2.2-3.5 2.2-7.3 3.3-7.9 1.2-.6.7-5.7 3-6.1zm-3.4-43.2c.7 1.5 1.1 2.8-1.1 4.4-2.2 1.6-6.7 8.3-7.5 7-.5-1 3.6-4.6 5.3-6.8 1.7-2.2 2.6-6 3.3-4.6zm-8.1 84.4c-3.1 1.5-5.6-.5-6-1-.8-1 .7-3.1 2-2.2 1.2.9 3.3.6 3.8-.5s6.9.4 6.1 2c-.7 1.6-2.8.2-5.9 1.7zm9.2-1.6c-.5-1.1 4.4-2.3 7.7-1.1 3.3 1.2 5.5-1.2 8.8-.7 3.3.5.9 1.1-1.3 1.2-2.2.1-5.1 2-8.4 1.8-3.4-.1-6.3-.2-6.8-1.2zm.4 5.7c-.9-.7-2.9-.7-3.7-1.8-.8-1.2 7.6 0 7.6 2.1s-3.1.5-3.9-.3zm-45.6-121c-1.6-3.3 2.4-5.6 4-5.6s4.9-.5 5.1.4c.3 1.1-2.1 3.4-2.2 4.9-.1 1.4-5.3 3.6-6.9.3zm29.6 54.9c.1-1.2 1.8-4.2 3.3-4.2 1.5 0 3.8 2.1 3.8 3.2s2.6 1.2 3.7 1c1.1-.2 3.3 1 2.8 2.4-.5 1.5-4.9.6-3.8 1.6 1 .8-1.1 1.8-2.6 2.5l-.6.3c-1.3.7 1.3 2.9-.2 3.1-1.6.1.2 2.7 1.3 3.7s-.2 2.6 1.3 3.3c1.6.7 3.7 2.3 2.8 3.3-.9 1-6.5 1.1-6.2 3.5.2 2.4-.2 5-2.4 6.4-2.2 1.3-.9 8.3-3.2 9.2-2.3.9-5.7 2.4-6 1-.2-1.5-4-2.2-5.3-2.4-1.2-.2-5 1.7-5.5.6s-1.7-2.7-3.3-1.6c-1.6 1.1-3.9-2.9-3.9-5.5s-2.7-2.8-3.6-4.2c-.9-1.3-.4-4-2.2-5.7-1.5-1.4 1.1-5.6 2.7-5.7h.5c1.8.4 5.5 3 6.1 1.5.7-1.6-.6-5 2.7-5.3 3.3-.2 5.5.5 6-1.8s2.7-5.7 3.7-5.7h.1c1 .1 2.9 1.5 2.9.5 0-.7 1.2-.7 2-.9.6-.2 1-.5.9-1.1-.3-1.9 2-1.8 2.2-3zm18.1-77.1c1.3-4.9 6.2-7.2 7.3-5.7 1.1 1.5-3.9 12-5.1 12.8-.4.2-3.6-2.3-2.2-7.1zm7.4 41.8c2.1-1.2 5.6-.1 5.7 1 .1 1.1 2.8 1.7 2.8 3.7s3.7 1.2 4.6 3.3c1 2.1 2.7 3.9 1.1 5s-2.1 1-1.8 2.4c.2 1.5-1 3.1-1.3 1.1-.4-2-3.2-3.5-2.1-5.1 1.1-1.6-.6-2.8-1.7-1.8-1.1 1-1.7-2.6-1.2-3.7s-2.7-4-5-3.7c-2.3.4-1.5-2.1-3.8-1.2-2.3.9-4.8.6-4.2-1.3.6-2-.1-3.2-1.1-3.2s-1.5-4.5-1.1-5.6c.3-.8 1.2 1.1 2 .5.7-.6-.7-8.7.9-9.7s5.1 1 6 .5c.9-.5 1 0 .7 1.5-.2 1.5 2 4.8.2 6.7-1.7 2-4.3 4.3-2.8 5.9 1.5 1.5 0 4.9 2.1 3.7zm127.6 75.2c2 1.2 3.7 3.5 1.3 4.2-1.4.4-.1-1.6-2.6-3.9-2.4-2.4-.7-1.6 1.3-.3zm-9.2 7.5c3.1-1.2 5-1.8 5-2.9 0-1.1 1.8-2.6 2.7-1.6.9 1-1.2 2.7-1.2 3.7s-5.3 4.3-8.6 4.3-6.8-2-6.7-3.1c.2-1.8 5.8.9 8.8-.4zm-73.2-170.6c2-.4 3.4.2 3.9-1.1s4.2-1.3 4.2.5-1.6 4.3-2.8 3.7c-1.2-.6-3.2-.1-3.5 1.3-.4 1.5-1.2 1.5-2.3 1.1-1.6-.5-1.5-5.2.5-5.5zm-7.4 1.6c.1 1.1 2.8.9 2.8 2.1 0 1.2 2.7.4.9 2.7-1.8 2.3-3.4 6.7-4.6 7-1.4.3-2.7-2.8-1.6-5s-.1-5.5-.6-4.2c-.5 1.3-1.6 2.6-2.3 1.2-.7-1.3-.1-1.6 1.7-2.9 1.8-1.4 3.6-2 3.7-.9zm1 194.1c.2 1.1-4.4 2-5.3 1.3-1.4-1.2 5.1-2.4 5.3-1.3zm-6-36.3c3.2 1 4.2 4.2 2.8 4.2-1.3 0-2.7-1.8-5.3-1.8-2.6 0-5.1.6-5.6-.9-.5-1.7 4.9-2.5 8.1-1.5zm-8.1-10.3c-1.6.3-4.2-6.4-2.2-9.1 2-2.7 2.8.7 2.8 1.6 0 .9 2.4-.6 2.4 1.1 0 1.7 1.2 3.3-1.5 3.1-2.6-.2-.1 3.1-1.5 3.3zm51.3-182c1.2-.6 5.1-3.7 5.3-1.5.1 2.2 3.5 9.5 2 11-1.6 1.5-4.8 2.7-3.8 4.5 1 1.8 0 4.9-1 6.4s.4 4.3-1.1 5.9c-1.5 1.6-3.8 2-3.9.6-.1-1.3-1 2.3-2.4 2.4-1.5.1-1.8-2.2-3.1-.2-1.2 2-4.3 1.8-5.3.4-1-1.5-2.6-.5-1.2.6 1.3 1.1.1 1-1.5 2.8-1.6 1.8-4.6 2.2-4.9.2-.2-2 2-3.8-1.7-3.7-3.7.1-9.7 1.5-10.4 2.6-.7 1.1-3.1.4-4.5 1.1-.9.4-2.1-2.1 0-2.4 2.1-.4 4.8-3.2 6.4-4.8 1.6-1.6 3.3.7 6.1-.4s5.1-1.7 5-.6c-.1 1.1 3.4.4 2.6-.9-.9-1.2 2.7-1.5 2.6-4.2-.1-2.7 3.5-4.4 3.1-3.3-.5 1.1.6 2.9 2.7 1.3 2.1-1.6 3.4-1.2 3.8-2.9.4-1.7 2.7-1.7 2.6-4-.1-2.3 3.4-4.4 2.1-5.5-1.6-1-.7-4.8.5-5.4zm22.5-16.8c.9 1.1 3.7-2.1 3.8-1.1.1 1-5.4 4.5-4.5 5.1.9.6.6 2-2.2 2-2.8 0-5.6.9-6 2.8-.4 2-.9 2.6-2.7 1-1.8-1.6-4.8-2.2-6.2-1.5-1.5.7-3.3-.9-3.4.4-.1 1.2 2.7 1.8 2.4 3.1-.2 1-1.2-.6-2.2.5-1 1.1-2.3 2-2.1.9.2-1.1.9-2.7 0-3.2s-1-1.7.7-2.4.1-2.2 1.6-2.4c1.5-.2 3.7 0 3.4-1.5-.2-1.5 1.2-1.5 1.2-3.7s1.5-2.7.2-4.3c-1.2-1.6 1.2-3.4 2.7-1.2 1.5 2.2 7.2 7 9.1 6.6 1.9-.5 3.3-2.2 4.2-1.1zm-4.7-26.1c.7 1.3.5 2.6-1.3.7-1.8-1.8-4.9-2-4.9.5 0 2.4-1.8 4.8-1.2 6.7.6 2 1.6 5.1 2.8 4.9 1.2-.2 2.1 4.3.7 3.7-1.3-.6-1.3-3.4-3.5-3.1-2.2.4-1.2 4.4-2.7 2.7-.9-1 1.7-9.7.7-11.6-1-2 1.3-13.7.4-15.9-1-2.2-2.1-5.7-1.3-8.2.7-2.4-1.1-4.3.9-4.5 2-.2.7-3.5 2-4.3 1.2-.7.2 3.1 2.7 4.9 2.4 1.8-.9 5.3.5 8.8 1.2 3.5 3.5 13.3 4.2 14.7zm15.6 260.5c1.7 1.1 4.3 1 4.2 2-.1 1 2.1 2.4 2.9 2.8.9.4 3.3 2.4.6 2.6-2.7.1-5.7-2.2-8.7-1.6-2.9.6-6.2-5.9-9.1-8.1-2.8-2.2-7.6-3.3-8.7-2-1.1 1.3-1.5 3.1-2.4 3.1-1 0 .4 3.1-5 2.8-1.9-.1-3.3-.7-4.4-1.5-2.2-1.4-3.3-3.4-4.4-3.4-1.7 0-8.9 1.6-9.5.5-.6-1.1 1.7-3.3 3.9-3.3s1.7-2 .1-3.7c-1.6-1.7.1-2.9-2.3-4.8-2.4-1.8-8.8-3.9-11.6-4-2.8-.1-.9-1.2-3.7-2-2.8-.7-4.3-2.8-4.3-1.2 0 1.6-2.8 2-2.8 0s-1.6-2.8-2.6-3.7c-1-.9 1-1 2.4-.6 1.5.4 1.5-1.3 3.5-.6 2.1.7 1.8-1.3.4-1.2-1.5.1-5.9 1.2-6.6-.4-.7-1.6-.7-2.8-2.3-2.8-1.6 0-2.4.5-2.2-1.1.3-1.7 2.8-.6 3.6-2.7.7-2.1 8.1-.6 9.4 1.2 1.3 1.8 1.5 11.2 4.4 10.3 2.9-1 5.1-4.3 6.7-4.3 1.6 0 1.8-3.2 3.7-3.3 1.5-.1 8.9 3.2 14.2 5 1.1.4 2.2.7 3.1.9 4.9 1.1 16 6.6 16.3 8.9.2 2.3 6.5 2.9 8.2 4.5 1.7 1.6 1.3 2.8-.9 2.7-2.2-.1-.9 2.6 1 3.4 1.8 1 1.2 4.5 2.9 5.6zM1164 589.5c.6-.8-1.7-2.5-1.2-2.9.5-.5 1.8 3.4 2.5 2.1.6-1.3-.5-2.9-2.4-5.5s-.6-4.6.7-6.6c1.4-2-.8-2.8-.2-4.7.6-1.9 2.1-3.7 2.1-3 0 .6-.2 3.1.5 2.6.6-.6.6-2.9 2.2-3 1.6-.1 3.8-1.4 5.1-2.8 1.4-1.5 4.7-2.4 5-1.2.3 1.2 2.7-.7 3.9-1.7 1.3-1 2.7-.2 3.9-1.3 1.3-1.1 5.4.3 7.3-2 1.9-2.3 5.2-5.4 6-5.9.7-.5-1.5-3.1.2-4.9 1.7-1.7 3.2-3 3.2-1.6s1 3.8 1.7 3.1c.6-.6 1.7-.6 1.3-2.1-.4-1.6-1.8-2.8-.6-3.1 1.2-.4 3.2 1.6 3 .3-.2-1.4-.4-4 .8-4 1.2 0 1.2-1.3 1.9-1.4.7-.1-.6-1.7.7-1.8 1.4-.2 3.4 1.2 3.2-.1-.2-1.3.1-1.9 1.3-1.9s1.2-1.3 2.4-1.4c1.2-.1 3.1 1.6 3.5 2.6.4 1 2.6.2 2.3 1.9-.3 1.7 1.5 2.5 1.4.9-.1-1.6 1.3-1.6 2.7-.2 1.4 1.4 3.7 1.3 2.1-.5-1.6-1.7-1.5-2.7-.2-3.5 1.3-.8.5-1.7 1.7-3s1.5-3.9 2.9-3.8c1.5.1-.6-1.7 1.2-1.2 1.7.5 7.7-.5 6.3-1.9-1.4-1.5-2.7-2.3-1.6-2.8 1.2-.5 1.8 2.1 3.9 2.4 2 .3 7.2 1.3 8.1 2.5.9 1.2 2.7-1.2 3.1-1.3.5-.1 1 2.4 1.6 2.2.6-.2.1-1.9 1.6-1.6 1.5.3 2.3 1.5.9 2s.5 1.7-1.4 2.7c-1.8 1-3.4.7-2.7 1.9.7 1.2 1 2.5-.4 3.5s-1.8 1-.4 2c1.5 1 2.1 1.3 2.8 3.1.6 1.8 2.2-.1 4.2 1.5s2.8 3.4 4 3.2c1.3-.2 3.8.6 3.7 1.7-.1 1.2 2.8 2.9 5 2.1 2.2-.8 2.4-3.3 3.5-4.9 1.1-1.6 1-4 1.3-6.3.3-2.3-.7-6.3.4-7.3s-.3-3.9.6-4.6c.8-.7 1.1-2.1 1-3.3-.1-1.2 2-3.6 2.7-3 .6.6.7 4 2 5s2.1 4.5 1.9 6.6c-.2 2.1-.3 4.3 1.3 4.1 1.6-.2 3.1-1.1 3.2-.1.1 1 2.9 1.5 2.8 3.3-.2 1.8.6 3.4.6 5-.1 1.7 2.5 2.3 2.5 4.3s.3 4.4 1 5c.7.6-.7 2.5 1 2.8 1.7.4 9.6 4.4 9.5 5.6-.1 1.2 0 2 1.4 3s1.8 2.1 1.6 3c-.3.9 0 3.2 1 2.8 1-.4 1.7-1.1 2.4-.2.6.9 1.9-.8 1.7 1.4-.3 2.2 0 4.6 1.5 4.3 1.5-.3.5 2.3 2 1.9 1.6-.4 2.9 2.2 3.2 3.1.3.9 1.6 4.4 2.8 3.2 1.2-1.2 1.5-1.5 1 .8s-.5 7.3.2 6.9c.6-.5 1.7 2.5 1 3-.7.6 1.2 2.3-.2 3.8s-.6 3.5-.5 4.1c.2.6-1 3.1-1 5.2s-2.1 4-2.2 5.8c-.1 1.7-1.6 2.6-2.5 2.8-.8.3-4 5.9-4.4 8.9-.4 3-2.8 3.5-3.1 6.3-.4 2.8-.7 8.3-1.4 8.3-.6 0-7.1.3-8.6 1.6-1.6 1.3-2.5 2.3-3.9 2.8-1.5.6-1.8 1.4-1.8 2.3 0 .9-.7.1-1.4-1-.6-1.1-2.3-1.1-2.8-2.5s-1-.4-1.1.8c-.1 1.2-2-.5-.7-1.3 1.3-.7-1.1-2.8-1.7-.6-.6 2.2-3.9 4.1-5.2 3-1.3-1.1-6.1-2.9-8.3-2.9s-1.1-.3-4.2-1.8c-3.1-1.6-2.6-3.4-2.2-5.3.4-1.9-1.9-5.5-3.5-5.7-.9-.1-2.7 1.1-3 .2-.4-.9 2.1-2.6.6-4.6-1.6-2-2.3-1-2.3 1.2s-4.1 1.6-3.9.4c.3-1.2 1.7 1 2.6-3.2.8-4.2 3-4.8 1.7-5.9-1.3-1.1-3.2 1.5-3.5 3.7-.3 2.2-2.3.5-4.1 3.1-1.8 2.6-2.5 3-3.4 1.2-.9-1.8.7-2.2-1-4.6-1.7-2.4-4.5-2.3-3.7-3.5.8-1.2 1-2.3-.3-2.6-1.3-.3-1.1-1.3-2.4-1.2-1.3.1-2.4-.9-4.9-.6-2.5.3-2.8-3-5-2.5-2.2.6-6.4.2-8.7 1.1-2.3.9-5.6 2.8-9.2 2.7-3.6-.2-4.8-.1-6.1 1.2-1.4 1.3-4.9 1.4-5.5 3.1-.7 2-2.8 3.5-7.7 3.2-4.9-.3-9.6-.6-10.6.6-1 1.3-.8 1.9-2.9 2-2.1.1-2.6 2.5-4.1 2.5-1.6 0-6.1.5-8.1-.8-1.9-1.3-1.3-2.5-3-2.7-1.7-.2-2.7-2.8-1.1-2.8s2.8-.9 2.4-3.4c-.4-2.5 1.5-4.7.9-5.5-.6-.8-3.9-6.1-3.7-9.4.2-3.3-3.4-5.5-3.5-7.8-.1-2.3-4.6-8.5-4.2-9.4 0-.4 2 3.6 2.5 2.7zm99.4 43.5c-.6 1.3-3.9 1.6-5 .6-.9-.8 5.5-1.9 5-.6zm29.4 24.1c.9-.2 4.6 2.3 7.1 2 2.5-.3 6.5-3 7-1.5.5 1.6 1.7 6.3.2 6.3s-.2 3.9-1.2 4.5c-1 .6-2.2-1.4-2.4-.5-.2.9.3 2.2-.9 2.1-1.2-.1-.6 1.9-2.3 1.6-1.7-.3-6.8-4.8-5.5-6.4 1.2-1.5-3-7.8-2-8.1zm47.5-151.1c-1.5.9-5.4-4.9-5.1-6 .2-1.1 7.8 4.3 5.1 6zm6.2 2c-.6.5-3.6-2.4-3.5-2.8.1-.9 4.1 2.4 3.5 2.8zm10.2 4.5c-1 .6-5.9-2-5.8-3.1.2-1.2 6.8 2.5 5.8 3.1zm3.5 6.2c-1.1.6-3.9-.5-4.2-2.3-.4-1.8 5.3 1.7 4.2 2.3zm.1-6.4c.7-1.5 3.8 5.7 3.3 5.6-.5-.1-4.2-3.6-3.3-5.6zm7 10c-1.2.8-3.6-1.4-3.8-1.8-.3-.8 5 1 3.8 1.8zm19.1 49.5c-1.5 1-11.7-6.8-12-8.3-.2-1.5 13.5 7.4 12 8.3zm4.6 102.7c1.2-1.9 9.1-3.9 11.4-7.5 2.3-3.6 1.5-4.1 3.4-5.8 1.9-1.7.4-2.2 2.1-3.6 1.7-1.4 2.7 2.3 4 1.6 1.4-.6 2-1.9 3.3-1 1.3.9-.3 1.8.6 3.4.8 1.6-3.2 3.4-3.2 5.4 0 2-2.9 2.3-2.7 3.9.2 1.6 1.9 2.2-1.4 2.2s-3.9 1.5-4.6 2.8c-.7 1.4-.9 3.6-2.1 4.3-1.2.7.3 2-2.8 4.8-3 2.8-7.1 2.8-7.6 1.7-.6-1-1.7 0-2.9-1.2s-2.7-.1-3.8-1.7c-1.4-2 1-3 1.1-4.5 0-1.3 4-2.8 5.2-4.8zm-.8 13.6c1.2 1.5-.9 2-1.6 1.8-1.5-.4.4-3.3 1.6-1.8zm39.6-134.5c-1.4-1.3 4.9-3.9 4.8-1.3-.1 2.7-3.2 2.8-4.8 1.3zm-10 100.4c-2-1.6-6.9-3.3-5.5-4.9 1.4-1.7 3.4-1.2 3.4-3.8 0-2.6 1.7-5.8.6-6.1-1.1-.4-2.6-2.5-2.5-3.3.1-.8-1.9-1.8-2.8-2.9-.9-1.1-3.1-4.4-1.3-4.4s5.1 1.6 5.1 3.8c0 2.1 1.6 1.9 1.6 3.8 0 1.8.8 2.8 1.6 2.8.7 0 1.1 1.6 1.7.8.6-.7-1.4-2.2.1-2.3 1.5-.1 1.8 1.9 1.8 3.3s.9 2.5 2.5 2.5 3.2 1.7 4 .4c.8-1.4 4.8-2.1 4-.2-.7 1.9-.1 3.7-1.4 3.7-1.3 0-.7 2.5-1.7 2.5s-2-.1-2.8.9c-.7 1 .2 3-1.3 4.3-1.5 1.3-2.5 5.9-4.6 6.4-2.1.6-3.5-.1-3.8-.6-.4-1 3.4-5.1 1.3-6.7zm20-107.6c0 1.6-3.3 2.7-4.3 2.3-1.5-.5 4.3-3.8 4.3-2.3z" class="st0"/></svg>
